<svg xmlns="http://www.w3.org/2000/svg" width="356" height="174" fill="none" viewBox="0 0 356 174"><path fill="#fff" d="M15.36 43.92V58.16H51.76V66H6.24V14.16H51.68V22H15.36V36.4H45.12V43.92H15.36ZM75.6175 59.68H72.4975L86.2575 26.16H95.9375L78.3375 66H69.8575L52.4975 26.16H62.2575L75.6175 59.68ZM129.265 52.88H137.825C137.398 55.6 136.332 58.0267 134.625 60.16C132.972 62.24 130.705 63.8933 127.825 65.12C124.945 66.2933 121.505 66.88 117.505 66.88C112.972 66.88 108.918 66.0533 105.345 64.4C101.772 62.6933 98.9717 60.2933 96.945 57.2C94.9183 54.1067 93.905 50.4267 93.905 46.16C93.905 41.9467 94.8917 38.2667 96.865 35.12C98.8383 31.9733 101.558 29.5467 105.025 27.84C108.545 26.1333 112.598 25.28 117.185 25.28C121.932 25.28 125.878 26.1333 129.025 27.84C132.225 29.4933 134.598 32 136.145 35.36C137.692 38.6667 138.332 42.8533 138.065 47.92H102.945C103.212 50.16 103.932 52.1867 105.105 54C106.332 55.76 107.985 57.1467 110.065 58.16C112.145 59.12 114.572 59.6 117.345 59.6C120.438 59.6 123.025 58.9867 125.105 57.76C127.238 56.5333 128.625 54.9067 129.265 52.88ZM116.945 32.48C113.318 32.48 110.332 33.3867 107.985 35.2C105.638 36.96 104.118 39.2267 103.425 42H129.105C128.892 39.0133 127.692 36.6933 125.505 35.04C123.318 33.3333 120.465 32.48 116.945 32.48ZM141.185 26.16H150.065V66H141.185V26.16ZM164.465 33.76C161.585 33.76 159.105 34.3733 157.025 35.6C154.998 36.8267 153.372 38.32 152.145 40.08C150.918 41.84 150.065 43.5467 149.585 45.2L149.505 40.72C149.558 40.1333 149.745 39.2533 150.065 38.08C150.385 36.8533 150.865 35.52 151.505 34.08C152.198 32.64 153.105 31.2533 154.225 29.92C155.398 28.5333 156.812 27.4133 158.465 26.56C160.172 25.7067 162.172 25.28 164.465 25.28V33.76ZM165.185 26.16H174.705L190.785 64.4L183.105 66L165.185 26.16ZM209.585 26.16L183.985 82H174.625L185.585 60.16L200.065 26.16H209.585ZM231.333 66.88C227.653 66.88 224.293 66 221.253 64.24C218.266 62.48 215.893 60.0533 214.133 56.96C212.373 53.8133 211.493 50.2133 211.493 46.16C211.493 42 212.346 38.3733 214.053 35.28C215.813 32.1333 218.159 29.68 221.093 27.92C224.079 26.16 227.493 25.28 231.333 25.28C234.693 25.28 237.519 25.84 239.813 26.96C242.106 28.0267 243.919 29.52 245.253 31.44C246.586 33.3067 247.546 35.4933 248.133 38C248.773 40.5067 249.093 43.2267 249.093 46.16C249.093 48.3467 248.773 50.6667 248.133 53.12C247.493 55.52 246.479 57.76 245.093 59.84C243.759 61.92 241.946 63.6267 239.653 64.96C237.413 66.24 234.639 66.88 231.333 66.88ZM234.053 59.52C237.039 59.52 239.573 58.96 241.653 57.84C243.786 56.6667 245.386 55.0667 246.453 53.04C247.573 51.0133 248.133 48.72 248.133 46.16C248.133 43.3333 247.573 40.9333 246.453 38.96C245.333 36.9333 243.733 35.36 241.653 34.24C239.573 33.12 237.039 32.56 234.053 32.56C229.786 32.56 226.479 33.84 224.133 36.4C221.786 38.9067 220.613 42.16 220.613 46.16C220.613 48.7733 221.173 51.0933 222.293 53.12C223.466 55.1467 225.066 56.72 227.093 57.84C229.119 58.96 231.439 59.52 234.053 59.52ZM248.133 10.16H257.093V66H248.773C248.666 64.7733 248.533 63.2533 248.373 61.44C248.213 59.6267 248.133 58 248.133 56.56V10.16ZM281.376 66.88C277.75 66.88 274.416 66 271.376 64.24C268.39 62.48 265.99 60.0533 264.176 56.96C262.416 53.8133 261.536 50.2133 261.536 46.16C261.536 42 262.443 38.3733 264.256 35.28C266.07 32.1333 268.523 29.68 271.616 27.92C274.71 26.16 278.176 25.28 282.016 25.28C286.283 25.28 289.67 26.2133 292.176 28.08C294.683 29.9467 296.47 32.4533 297.536 35.6C298.603 38.7467 299.136 42.2667 299.136 46.16C299.136 48.3467 298.816 50.6667 298.176 53.12C297.536 55.52 296.523 57.76 295.136 59.84C293.803 61.92 291.99 63.6267 289.696 64.96C287.456 66.24 284.683 66.88 281.376 66.88ZM284.096 59.52C287.083 59.52 289.616 58.96 291.696 57.84C293.83 56.6667 295.43 55.0667 296.496 53.04C297.616 51.0133 298.176 48.72 298.176 46.16C298.176 43.3333 297.616 40.9333 296.496 38.96C295.376 36.9333 293.776 35.3867 291.696 34.32C289.616 33.2 287.083 32.64 284.096 32.64C279.83 32.64 276.523 33.8933 274.176 36.4C271.83 38.9067 270.656 42.16 270.656 46.16C270.656 48.7733 271.216 51.0933 272.336 53.12C273.51 55.1467 275.11 56.72 277.136 57.84C279.163 58.96 281.483 59.52 284.096 59.52ZM298.176 26.16H307.136V66H298.816C298.816 66 298.763 65.4933 298.656 64.48C298.55 63.4667 298.443 62.24 298.336 60.8C298.23 59.3067 298.176 57.8933 298.176 56.56V26.16ZM308.498 26.16H318.018L334.098 64.4L326.418 66L308.498 26.16ZM352.898 26.16L327.298 82H317.938L328.898 60.16L343.378 26.16H352.898ZM31.12 94.16C36.72 94.16 41.4133 94.8533 45.2 96.24C48.9867 97.6267 52 99.52 54.24 101.92C56.48 104.267 58.08 106.987 59.04 110.08C60.0533 113.173 60.56 116.427 60.56 119.84C60.56 123.307 60.0267 126.613 58.96 129.76C57.8933 132.907 56.1867 135.707 53.84 138.16C51.5467 140.56 48.5333 142.48 44.8 143.92C41.0667 145.307 36.5067 146 31.12 146H6.24V94.16H31.12ZM15.36 138H31.04C34.9867 138 38.2667 137.493 40.88 136.48C43.4933 135.467 45.5733 134.107 47.12 132.4C48.6667 130.64 49.76 128.693 50.4 126.56C51.04 124.373 51.36 122.133 51.36 119.84C51.36 117.547 51.04 115.36 50.4 113.28C49.76 111.147 48.6667 109.253 47.12 107.6C45.5733 105.893 43.4933 104.56 40.88 103.6C38.2667 102.587 34.9867 102.08 31.04 102.08H15.36V138ZM98.0494 132.88H106.609C106.183 135.6 105.116 138.027 103.409 140.16C101.756 142.24 99.4894 143.893 96.6094 145.12C93.7294 146.293 90.2894 146.88 86.2894 146.88C81.756 146.88 77.7027 146.053 74.1294 144.4C70.556 142.693 67.756 140.293 65.7294 137.2C63.7027 134.107 62.6894 130.427 62.6894 126.16C62.6894 121.947 63.676 118.267 65.6494 115.12C67.6227 111.973 70.3427 109.547 73.8094 107.84C77.3294 106.133 81.3827 105.28 85.9694 105.28C90.716 105.28 94.6627 106.133 97.8094 107.84C101.009 109.493 103.383 112 104.929 115.36C106.476 118.667 107.116 122.853 106.849 127.92H71.7294C71.996 130.16 72.716 132.187 73.8894 134C75.116 135.76 76.7694 137.147 78.8494 138.16C80.9294 139.12 83.356 139.6 86.1294 139.6C89.2227 139.6 91.8094 138.987 93.8894 137.76C96.0227 136.533 97.4094 134.907 98.0494 132.88ZM85.7294 112.48C82.1027 112.48 79.116 113.387 76.7694 115.2C74.4227 116.96 72.9027 119.227 72.2094 122H97.8894C97.676 119.013 96.476 116.693 94.2894 115.04C92.1027 113.333 89.2494 112.48 85.7294 112.48ZM108.209 132.88H116.449C116.876 134.907 117.969 136.56 119.729 137.84C121.489 139.067 123.863 139.68 126.849 139.68C128.769 139.68 130.263 139.467 131.329 139.04C132.449 138.613 133.223 138.027 133.649 137.28C134.129 136.533 134.369 135.68 134.369 134.72C134.369 133.547 134.023 132.64 133.329 132C132.689 131.36 131.729 130.827 130.449 130.4C129.169 129.973 127.569 129.6 125.649 129.28C123.676 128.8 121.729 128.267 119.809 127.68C117.889 127.093 116.156 126.373 114.609 125.52C113.063 124.613 111.836 123.493 110.929 122.16C110.076 120.773 109.649 119.093 109.649 117.12C109.649 115.307 110.049 113.68 110.849 112.24C111.703 110.747 112.876 109.493 114.369 108.48C115.863 107.467 117.623 106.693 119.649 106.16C121.676 105.573 123.889 105.28 126.289 105.28C129.756 105.28 132.636 105.84 134.929 106.96C137.276 108.08 139.036 109.653 140.209 111.68C141.436 113.707 142.049 116.027 142.049 118.64H134.209C133.783 116.507 132.956 114.96 131.729 114C130.503 113.04 128.663 112.56 126.209 112.56C123.756 112.56 121.889 112.987 120.609 113.84C119.329 114.693 118.689 115.867 118.689 117.36C118.689 118.48 119.089 119.387 119.889 120.08C120.743 120.72 121.943 121.28 123.489 121.76C125.036 122.24 126.849 122.72 128.929 123.2C130.849 123.733 132.663 124.293 134.369 124.88C136.076 125.413 137.596 126.107 138.929 126.96C140.316 127.76 141.409 128.827 142.209 130.16C143.009 131.493 143.409 133.147 143.409 135.12C143.409 137.573 142.743 139.68 141.409 141.44C140.129 143.2 138.263 144.56 135.809 145.52C133.356 146.427 130.396 146.88 126.929 146.88C123.889 146.88 121.249 146.533 119.009 145.84C116.823 145.147 114.983 144.24 113.489 143.12C112.049 142 110.929 140.8 110.129 139.52C109.329 138.24 108.769 137.013 108.449 135.84C108.183 134.667 108.103 133.68 108.209 132.88ZM157.054 89.28V97.84H146.414V89.28H157.054ZM147.214 106.16H156.174V146H147.214V106.16ZM179.77 139.84C176.037 139.84 172.65 139.173 169.61 137.84C166.623 136.507 164.25 134.56 162.49 132C160.783 129.44 159.93 126.373 159.93 122.8C159.93 119.227 160.757 116.133 162.41 113.52C164.117 110.907 166.463 108.88 169.45 107.44C172.49 106 175.93 105.28 179.77 105.28C180.89 105.28 181.957 105.36 182.97 105.52C184.037 105.68 185.05 105.893 186.01 106.16L204.65 106.24V113.68C202.09 113.733 199.503 113.387 196.89 112.64C194.33 111.84 192.063 111.013 190.09 110.16L189.85 109.68C191.663 110.587 193.29 111.707 194.73 113.04C196.223 114.32 197.397 115.787 198.25 117.44C199.103 119.093 199.53 120.96 199.53 123.04C199.53 126.56 198.677 129.573 196.97 132.08C195.317 134.587 192.997 136.507 190.01 137.84C187.077 139.173 183.663 139.84 179.77 139.84ZM192.57 162.24V160.4C192.57 157.787 191.797 155.947 190.25 154.88C188.703 153.813 186.543 153.28 183.77 153.28H172.97C170.837 153.28 168.997 153.093 167.45 152.72C165.957 152.4 164.757 151.893 163.85 151.2C162.943 150.56 162.277 149.787 161.85 148.88C161.423 148.027 161.21 147.067 161.21 146C161.21 143.867 161.85 142.267 163.13 141.2C164.463 140.133 166.197 139.44 168.33 139.12C170.517 138.8 172.81 138.747 175.21 138.96L179.77 139.84C176.623 139.947 174.223 140.24 172.57 140.72C170.97 141.147 170.17 142.027 170.17 143.36C170.17 144.16 170.49 144.8 171.13 145.28C171.77 145.76 172.677 146 173.85 146H185.21C188.463 146 191.317 146.373 193.77 147.12C196.223 147.92 198.117 149.227 199.45 151.04C200.837 152.907 201.53 155.44 201.53 158.64V162.24H192.57ZM179.77 132.88C181.903 132.88 183.797 132.48 185.45 131.68C187.103 130.88 188.41 129.733 189.37 128.24C190.33 126.747 190.81 124.933 190.81 122.8C190.81 120.667 190.33 118.827 189.37 117.28C188.41 115.733 187.103 114.56 185.45 113.76C183.797 112.96 181.903 112.56 179.77 112.56C177.69 112.56 175.797 112.96 174.09 113.76C172.437 114.56 171.13 115.733 170.17 117.28C169.21 118.773 168.73 120.613 168.73 122.8C168.73 124.933 169.21 126.747 170.17 128.24C171.13 129.733 172.437 130.88 174.09 131.68C175.743 132.48 177.637 132.88 179.77 132.88ZM206.976 106.16H215.856V146H206.976V106.16ZM232.656 105.28C234.949 105.28 237.056 105.6 238.976 106.24C240.949 106.88 242.629 107.867 244.016 109.2C245.456 110.48 246.549 112.08 247.296 114C248.096 115.92 248.496 118.187 248.496 120.8V146H239.616V122.56C239.616 119.307 238.816 116.907 237.216 115.36C235.669 113.76 233.216 112.96 229.856 112.96C227.296 112.96 224.949 113.52 222.816 114.64C220.736 115.707 219.029 117.12 217.696 118.88C216.362 120.587 215.589 122.48 215.376 124.56L215.296 120.24C215.562 118.267 216.149 116.4 217.056 114.64C217.962 112.827 219.162 111.227 220.656 109.84C222.149 108.4 223.909 107.28 225.936 106.48C227.962 105.68 230.202 105.28 232.656 105.28ZM264.144 137.36V146H253.504V137.36H264.144Z"/></svg>