<svg xmlns="http://www.w3.org/2000/svg" width="456" height="366" fill="none" viewBox="0 0 456 366"><path fill="#fff" d="M252.914 20L252.914 324.5L240.5 347L216.5 347L209.5 335.5L202.914 324.5L202.914 20L252.914 20Z"/><path fill="#fff" d="M0 0L456 0L441 25.5L426.5 48L30 48L15.5 24L0 0Z"/><path fill="#fff" d="M228.5 365.5L217 346.5L240.5 346L228.5 365.5Z"/><rect width="76.354" height="33.643" x="338.388" y="126.6" fill="#fff" transform="rotate(-58.5508 338.388 126.6)"/><rect width="116" height="32.56" x="261.752" y="251.142" fill="#fff" transform="rotate(-58.2739 261.752 251.142)"/><path fill="#fff" d="M309 105L309 237L278 287L259 317L259 317.538L259 105L309 105Z"/><path fill="#fff" d="M259 55H422L410 73.5L403.5 84.5L398.5 93.5L391 105H259V55Z"/><path fill="#fff" d="M34 55H198V105H65L48.5 79L34 55Z"/><path fill="#fff" d="M198 105L198 317.5L196 316L186.5 301L172 277L148 239.5L148 105L198 105Z"/><path fill="#fff" d="M94.5 152H198V202H124.5L108.5 174.5L94.5 152Z"/></svg>