<svg width="196" height="154" viewBox="0 0 196 154" fill="none" xmlns="http://www.w3.org/2000/svg">
<path d="M147.346 135.938C147.346 135.938 150.198 140.064 159.281 145.853C159.96 146.281 160.673 146.723 161.424 147.17C164.276 148.876 167.627 150.692 171.586 152.574L172.537 128.333C172.537 128.333 184.895 129.284 195.827 124.531C194.568 123.903 189.14 120.98 181.335 114.93C180.636 114.393 179.909 113.822 179.177 113.228C175.726 110.452 171.881 107.111 167.77 103.142C161.605 113.599 147.346 135.938 147.346 135.938Z" fill="url(#paint0_linear_1200_17399)"/>
<path d="M48.4815 134.512C48.4815 134.512 45.6296 138.638 36.5465 144.427C35.8668 144.855 35.1538 145.297 34.4028 145.744C31.551 147.45 28.2238 149.266 24.2407 151.148L23.2901 126.907C23.2901 126.907 10.9321 127.858 0 123.105C1.25957 122.478 6.68759 119.554 14.4922 113.504C15.1909 112.967 15.9181 112.396 16.6501 111.802C20.1008 109.026 23.946 105.685 28.0575 101.716C34.2222 112.173 48.4815 134.512 48.4815 134.512Z" fill="url(#paint1_linear_1200_17399)"/>
<path fill-rule="evenodd" clip-rule="evenodd" d="M99.3394 154C141.865 154 176.339 119.526 176.339 77C176.339 34.4741 141.865 0 99.3394 0C56.8134 0 22.3394 34.4741 22.3394 77C22.3394 119.526 56.8134 154 99.3394 154ZM99.3394 135.463C131.628 135.463 157.802 109.288 157.802 77C157.802 44.7118 131.628 18.537 99.3394 18.537C67.0512 18.537 40.8764 44.7118 40.8764 77C40.8764 109.288 67.0512 135.463 99.3394 135.463Z" fill="#E36302"/>
<mask id="mask0_1200_17399" style="mask-type:alpha" maskUnits="userSpaceOnUse" x="22" y="0" width="155" height="154">
<path fill-rule="evenodd" clip-rule="evenodd" d="M99.3394 154C141.865 154 176.339 119.526 176.339 77C176.339 34.4741 141.865 0 99.3394 0C56.8134 0 22.3394 34.4741 22.3394 77C22.3394 119.526 56.8134 154 99.3394 154ZM99.3394 135.463C131.628 135.463 157.802 109.288 157.802 77C157.802 44.7118 131.628 18.537 99.3394 18.537C67.0512 18.537 40.8764 44.7118 40.8764 77C40.8764 109.288 67.0512 135.463 99.3394 135.463Z" fill="#6C7E92"/>
</mask>
<g mask="url(#mask0_1200_17399)">
<g filter="url(#filter0_f_1200_17399)">
<ellipse cx="69.5577" cy="21.8477" rx="27.3285" ry="51.5199" transform="rotate(42.5525 69.5577 21.8477)" fill="#FBEB93"/>
</g>
<g filter="url(#filter1_f_1200_17399)">
<ellipse cx="145.488" cy="21.2234" rx="17.5864" ry="49.4789" transform="rotate(150 145.488 21.2234)" fill="#F9C94D"/>
</g>
<g filter="url(#filter2_f_1200_17399)">
<ellipse cx="142.211" cy="129.377" rx="17.5864" ry="35.6481" transform="rotate(-135 142.211 129.377)" fill="#FEDB78"/>
</g>
<g filter="url(#filter3_f_1200_17399)">
<ellipse cx="52.8525" cy="122.723" rx="17.5864" ry="35.6481" transform="rotate(-45 52.8525 122.723)" fill="#FBE515"/>
</g>
</g>
<circle cx="99.3394" cy="77" r="58.463" fill="url(#paint2_linear_1200_17399)"/>
<path fill-rule="evenodd" clip-rule="evenodd" d="M99.3394 139.741C133.99 139.741 162.08 111.651 162.08 77C162.08 42.3493 133.99 14.2593 99.3394 14.2593C64.6886 14.2593 36.5986 42.3493 36.5986 77C36.5986 111.651 64.6886 139.741 99.3394 139.741ZM99.3394 135.463C131.628 135.463 157.802 109.288 157.802 77C157.802 44.7118 131.628 18.5371 99.3394 18.5371C67.0512 18.5371 40.8764 44.7118 40.8764 77C40.8764 109.288 67.0512 135.463 99.3394 135.463Z" fill="url(#paint3_linear_1200_17399)"/>
<path d="M114.07 104.899C113.27 104.898 112.483 104.701 111.779 104.324L99.7627 98.012C99.603 97.9279 99.4252 97.8839 99.2446 97.8839C99.0641 97.8839 98.8863 97.9279 98.7265 98.012L86.7107 104.324C86.0058 104.701 85.219 104.898 84.4197 104.899C83.7032 104.897 82.9957 104.739 82.3465 104.435C81.6974 104.132 81.1221 103.691 80.6607 103.142C80.1993 102.594 79.8628 101.952 79.6748 101.26C79.4867 100.569 79.4515 99.8449 79.5716 99.1385L81.8673 85.7633C81.8981 85.5846 81.8848 85.4012 81.8284 85.2289C81.7721 85.0565 81.6745 84.9006 81.5441 84.7746L71.8288 75.3017C71.1725 74.6606 70.7084 73.8487 70.4888 72.9579C70.2692 72.067 70.3029 71.1325 70.5861 70.2597C70.8693 69.3869 71.3907 68.6107 72.0915 68.0184C72.7923 67.4262 73.6446 67.0415 74.5523 66.9078L87.9846 64.959C88.1638 64.932 88.3338 64.8622 88.4803 64.7555C88.6268 64.6487 88.7453 64.5082 88.8259 64.3459L94.8338 52.1732C95.2401 51.3504 95.8686 50.6576 96.648 50.1732C97.4275 49.6888 98.3269 49.4321 99.2446 49.4321C100.162 49.4321 101.062 49.6888 101.841 50.1732C102.621 50.6576 103.249 51.3504 103.655 52.1732L109.663 64.3459C109.744 64.5082 109.863 64.6487 110.009 64.7555C110.155 64.8622 110.325 64.932 110.505 64.959L123.937 66.9078C124.845 67.0415 125.697 67.4262 126.398 68.0184C127.099 68.6107 127.62 69.3869 127.903 70.2597C128.186 71.1325 128.22 72.067 128 72.9579C127.781 73.8487 127.317 74.6606 126.66 75.3017L116.945 84.7746C116.815 84.9006 116.717 85.0565 116.661 85.2289C116.604 85.4012 116.591 85.5846 116.622 85.7633L118.918 99.1385C119.038 99.8449 119.003 100.569 118.814 101.26C118.626 101.952 118.29 102.594 117.829 103.142C117.367 103.691 116.792 104.132 116.143 104.435C115.494 104.739 114.786 104.897 114.07 104.899Z" fill="#470068"/>
<path d="M101.952 53.0177L107.96 65.1904C108.177 65.6283 108.498 66.0071 108.893 66.2943C109.289 66.5815 109.748 66.7686 110.232 66.8397L123.664 68.7932C124.222 68.8742 124.745 69.1095 125.176 69.4724C125.606 69.8354 125.926 70.3115 126.1 70.8471C126.275 71.3826 126.295 71.9561 126.16 72.5028C126.026 73.0496 125.741 73.5476 125.337 73.9408L115.617 83.4137C115.267 83.7555 115.006 84.1773 114.855 84.6426C114.705 85.1079 114.669 85.6029 114.752 86.0849L117.043 99.4649C117.14 100.02 117.079 100.591 116.867 101.113C116.655 101.635 116.301 102.088 115.845 102.419C115.389 102.75 114.85 102.947 114.288 102.987C113.726 103.027 113.164 102.908 112.666 102.645L100.674 96.3326C100.24 96.1033 99.7571 95.9834 99.2667 95.9834C98.7763 95.9834 98.2933 96.1033 97.8598 96.3326L85.8297 102.645C85.3316 102.908 84.7696 103.027 84.2076 102.987C83.6456 102.947 83.106 102.75 82.6501 102.419C82.1942 102.088 81.8403 101.635 81.6286 101.113C81.4168 100.591 81.3557 100.02 81.4521 99.4649L83.7431 86.0849C83.8262 85.6029 83.7908 85.1079 83.6401 84.6426C83.4894 84.1773 83.2279 83.7555 82.8781 83.4137L73.158 73.9408C72.7549 73.5476 72.4698 73.0496 72.3349 72.5028C72.2 71.9561 72.2208 71.3826 72.3949 70.8471C72.5689 70.3115 72.8893 69.8354 73.3199 69.4724C73.7504 69.1095 74.2738 68.8742 74.8311 68.7932L88.2633 66.8397C88.747 66.7686 89.2064 66.5815 89.602 66.2943C89.9977 66.0071 90.3179 65.6283 90.5353 65.1904L96.5432 53.0177C96.7916 52.5123 97.1766 52.0866 97.6546 51.7889C98.1327 51.4912 98.6845 51.3334 99.2477 51.3334C99.8108 51.3334 100.363 51.4912 100.841 51.7889C101.319 52.0866 101.704 52.5123 101.952 53.0177Z" fill="url(#paint4_linear_1200_17399)"/>
<circle cx="99.3394" cy="77" r="57.2747" stroke="url(#paint5_linear_1200_17399)" stroke-width="2.37654"/>
<defs>
<filter id="filter0_f_1200_17399" x="1.2688" y="-48.4183" width="136.578" height="140.532" filterUnits="userSpaceOnUse" color-interpolation-filters="sRGB">
<feFlood flood-opacity="0" result="BackgroundImageFix"/>
<feBlend mode="normal" in="SourceGraphic" in2="BackgroundImageFix" result="shape"/>
<feGaussianBlur stdDeviation="14.0216" result="effect1_foregroundBlur_1200_17399"/>
</filter>
<filter id="filter1_f_1200_17399" x="88.3894" y="-50.5714" width="114.198" height="143.59" filterUnits="userSpaceOnUse" color-interpolation-filters="sRGB">
<feFlood flood-opacity="0" result="BackgroundImageFix"/>
<feBlend mode="normal" in="SourceGraphic" in2="BackgroundImageFix" result="shape"/>
<feGaussianBlur stdDeviation="14.0216" result="effect1_foregroundBlur_1200_17399"/>
</filter>
<filter id="filter2_f_1200_17399" x="86.0535" y="73.22" width="112.314" height="112.314" filterUnits="userSpaceOnUse" color-interpolation-filters="sRGB">
<feFlood flood-opacity="0" result="BackgroundImageFix"/>
<feBlend mode="normal" in="SourceGraphic" in2="BackgroundImageFix" result="shape"/>
<feGaussianBlur stdDeviation="14.0216" result="effect1_foregroundBlur_1200_17399"/>
</filter>
<filter id="filter3_f_1200_17399" x="-3.30444" y="66.5657" width="112.314" height="112.314" filterUnits="userSpaceOnUse" color-interpolation-filters="sRGB">
<feFlood flood-opacity="0" result="BackgroundImageFix"/>
<feBlend mode="normal" in="SourceGraphic" in2="BackgroundImageFix" result="shape"/>
<feGaussianBlur stdDeviation="14.0216" result="effect1_foregroundBlur_1200_17399"/>
</filter>
<linearGradient id="paint0_linear_1200_17399" x1="185.195" y1="139.681" x2="156.346" y2="119.461" gradientUnits="userSpaceOnUse">
<stop stop-color="#FC0106"/>
<stop offset="0.5559" stop-color="#E82626"/>
<stop offset="0.6787" stop-color="#B90004"/>
<stop offset="1" stop-color="#790400"/>
</linearGradient>
<linearGradient id="paint1_linear_1200_17399" x1="16.6358" y1="135.701" x2="35.9004" y2="119.558" gradientUnits="userSpaceOnUse">
<stop stop-color="#FC0106"/>
<stop offset="0.493927" stop-color="#E82626"/>
<stop offset="0.716768" stop-color="#B90004"/>
<stop offset="1" stop-color="#790400"/>
</linearGradient>
<linearGradient id="paint2_linear_1200_17399" x1="99.3394" y1="18.537" x2="99.3394" y2="135.463" gradientUnits="userSpaceOnUse">
<stop stop-color="#BD49D0"/>
<stop offset="0.5" stop-color="#9703B9"/>
<stop offset="1" stop-color="#852878"/>
</linearGradient>
<linearGradient id="paint3_linear_1200_17399" x1="99.3394" y1="13.6008" x2="99.3394" y2="139.678" gradientUnits="userSpaceOnUse">
<stop stop-color="#FFEE02"/>
<stop offset="0.5" stop-color="#D27003"/>
<stop offset="1" stop-color="#FBA400"/>
</linearGradient>
<linearGradient id="paint4_linear_1200_17399" x1="99.2559" y1="51.8432" x2="99.2559" y2="96.7817" gradientUnits="userSpaceOnUse">
<stop offset="0.0820804" stop-color="#F7E547"/>
<stop offset="0.2263" stop-color="#FEFCAF"/>
<stop offset="0.3883" stop-color="#F8DC20"/>
<stop offset="0.5895" stop-color="#E67A0B"/>
<stop offset="1" stop-color="#F8DC20"/>
</linearGradient>
<linearGradient id="paint5_linear_1200_17399" x1="99.3394" y1="18.537" x2="99.3394" y2="135.463" gradientUnits="userSpaceOnUse">
<stop stop-color="#AB2EBE"/>
<stop offset="1" stop-color="#340354"/>
</linearGradient>
</defs>
</svg>
