<svg width="196" height="154" viewBox="0 0 196 154" fill="none" xmlns="http://www.w3.org/2000/svg">
<path d="M147.432 135.938C147.432 135.938 150.284 140.064 159.367 145.853C160.047 146.281 160.76 146.723 161.511 147.17C164.363 148.876 167.714 150.692 171.673 152.574L172.623 128.333C172.623 128.333 184.982 129.284 195.914 124.531C194.654 123.903 189.226 120.98 181.421 114.93C180.723 114.393 179.996 113.822 179.264 113.228C175.813 110.452 171.968 107.111 167.856 103.142C161.691 113.599 147.432 135.938 147.432 135.938Z" fill="url(#paint0_linear_1200_17365)"/>
<path d="M48.5679 134.512C48.5679 134.512 45.7161 138.638 36.6329 144.427C35.9532 144.855 35.2402 145.297 34.4893 145.744C31.6374 147.45 28.3103 149.266 24.3272 151.148L23.3765 126.907C23.3765 126.907 11.0185 127.858 0.0864258 123.105C1.34599 122.478 6.77402 119.554 14.5786 113.504C15.2773 112.967 16.0045 112.396 16.7365 111.802C20.1872 109.026 24.0325 105.685 28.1439 101.716C34.3086 112.173 48.5679 134.512 48.5679 134.512Z" fill="url(#paint1_linear_1200_17365)"/>
<path d="M36.6329 144.427C35.9532 144.855 35.2403 145.297 34.4893 145.744C32.7924 140.235 26.0288 128.067 23.3766 124.531C21.5101 121.994 19.4438 119.609 17.1976 117.401C16.3182 116.522 15.2583 114.74 14.5786 113.504C15.2773 112.967 16.0045 112.396 16.7365 111.802C17.6016 113.171 18.9134 115.22 20.0637 116.926C21.9649 119.778 33.8476 134.988 35.2736 137.84C36.2099 139.731 36.5236 142.664 36.6329 144.427Z" fill="#9925E8"/>
<path fill-rule="evenodd" clip-rule="evenodd" d="M98 154C140.526 154 175 119.526 175 77C175 34.4741 140.526 0 98 0C55.4741 0 21 34.4741 21 77C21 119.526 55.4741 154 98 154ZM98 135.463C130.288 135.463 156.463 109.288 156.463 77C156.463 44.7118 130.288 18.537 98 18.537C65.7118 18.537 39.537 44.7118 39.537 77C39.537 109.288 65.7118 135.463 98 135.463Z" fill="#6C7E92"/>
<mask id="mask0_1200_17365" style="mask-type:alpha" maskUnits="userSpaceOnUse" x="21" y="0" width="154" height="154">
<path fill-rule="evenodd" clip-rule="evenodd" d="M98 154C140.526 154 175 119.526 175 77C175 34.4741 140.526 0 98 0C55.4741 0 21 34.4741 21 77C21 119.526 55.4741 154 98 154ZM98 135.463C130.288 135.463 156.463 109.288 156.463 77C156.463 44.7118 130.288 18.537 98 18.537C65.7118 18.537 39.537 44.7118 39.537 77C39.537 109.288 65.7118 135.463 98 135.463Z" fill="#6C7E92"/>
</mask>
<g mask="url(#mask0_1200_17365)">
<g filter="url(#filter0_f_1200_17365)">
<ellipse cx="50.933" cy="26.2709" rx="17.5864" ry="35.6481" transform="rotate(42.5525 50.933 26.2709)" fill="#F0F2F7"/>
</g>
<g filter="url(#filter1_f_1200_17365)">
<ellipse cx="147.69" cy="26.2709" rx="17.5864" ry="35.6481" transform="rotate(150 147.69 26.2709)" fill="#F0F2F7"/>
</g>
<g filter="url(#filter2_f_1200_17365)">
<ellipse cx="140.871" cy="129.377" rx="17.5864" ry="35.6481" transform="rotate(-135 140.871 129.377)" fill="#F0F2F7"/>
</g>
<g filter="url(#filter3_f_1200_17365)">
<ellipse cx="51.5126" cy="122.723" rx="17.5864" ry="35.6481" transform="rotate(-45 51.5126 122.723)" fill="#889BAF"/>
</g>
</g>
<circle cx="98.0001" cy="77" r="58.463" fill="url(#paint2_linear_1200_17365)"/>
<circle cx="98.0001" cy="77" r="57.2747" stroke="url(#paint3_linear_1200_17365)" stroke-width="2.37654"/>
<path fill-rule="evenodd" clip-rule="evenodd" d="M98 139.741C132.651 139.741 160.741 111.651 160.741 77C160.741 42.3493 132.651 14.2593 98 14.2593C63.3493 14.2593 35.2593 42.3493 35.2593 77C35.2593 111.651 63.3493 139.741 98 139.741ZM98 135.463C130.288 135.463 156.463 109.288 156.463 77C156.463 44.7118 130.288 18.5371 98 18.5371C65.7118 18.5371 39.537 44.7118 39.537 77C39.537 109.288 65.7118 135.463 98 135.463Z" fill="url(#paint4_linear_1200_17365)"/>
<path d="M112.73 104.899C111.931 104.898 111.144 104.701 110.439 104.324L98.4234 98.012C98.2636 97.9279 98.0858 97.8839 97.9053 97.8839C97.7247 97.8839 97.5469 97.9279 97.3872 98.012L85.3714 104.324C84.6665 104.701 83.8797 104.898 83.0804 104.899C82.3638 104.897 81.6564 104.739 81.0072 104.435C80.358 104.132 79.7827 103.691 79.3213 103.142C78.8599 102.594 78.5235 101.952 78.3354 101.26C78.1473 100.569 78.1121 99.8449 78.2322 99.1385L80.528 85.7633C80.5588 85.5846 80.5454 85.4012 80.4891 85.2289C80.4327 85.0565 80.3351 84.9006 80.2048 84.7746L70.4895 75.3017C69.8331 74.6606 69.369 73.8487 69.1494 72.9579C68.9299 72.067 68.9636 71.1325 69.2467 70.2597C69.5299 69.3869 70.0513 68.6107 70.7521 68.0184C71.4529 67.4262 72.3052 67.0415 73.213 66.9078L86.6452 64.959C86.8244 64.932 86.9945 64.8622 87.1409 64.7555C87.2874 64.6487 87.4059 64.5082 87.4865 64.3459L93.4944 52.1732C93.9008 51.3504 94.5292 50.6576 95.3087 50.1732C96.0881 49.6888 96.9876 49.4321 97.9053 49.4321C98.823 49.4321 99.7224 49.6888 100.502 50.1732C101.281 50.6576 101.91 51.3504 102.316 52.1732L108.324 64.3459C108.405 64.5082 108.523 64.6487 108.67 64.7555C108.816 64.8622 108.986 64.932 109.165 64.959L122.598 66.9078C123.505 67.0415 124.358 67.4262 125.058 68.0184C125.759 68.6107 126.281 69.3869 126.564 70.2597C126.847 71.1325 126.881 72.067 126.661 72.9579C126.442 73.8487 125.977 74.6606 125.321 75.3017L115.606 84.7746C115.475 84.9006 115.378 85.0565 115.321 85.2289C115.265 85.4012 115.252 85.5846 115.283 85.7633L117.578 99.1385C117.698 99.8449 117.663 100.569 117.475 101.26C117.287 101.952 116.951 102.594 116.489 103.142C116.028 103.691 115.453 104.132 114.803 104.435C114.154 104.739 113.447 104.897 112.73 104.899Z" fill="#053A4C"/>
<path d="M100.612 53.0177L106.62 65.1904C106.838 65.6283 107.158 66.0071 107.554 66.2943C107.949 66.5815 108.408 66.7686 108.892 66.8397L122.324 68.7932C122.882 68.8742 123.405 69.1095 123.836 69.4724C124.266 69.8354 124.587 70.3115 124.761 70.8471C124.935 71.3826 124.955 71.9561 124.821 72.5028C124.686 73.0496 124.401 73.5476 123.998 73.9408L114.277 83.4137C113.928 83.7555 113.666 84.1773 113.515 84.6426C113.365 85.1079 113.329 85.6029 113.412 86.0849L115.703 99.4649C115.8 100.02 115.739 100.591 115.527 101.113C115.315 101.635 114.961 102.088 114.505 102.419C114.05 102.75 113.51 102.947 112.948 102.987C112.386 103.027 111.824 102.908 111.326 102.645L99.3338 96.3326C98.9003 96.1033 98.4173 95.9834 97.9269 95.9834C97.4364 95.9834 96.9534 96.1033 96.5199 96.3326L84.4899 102.645C83.9918 102.908 83.4298 103.027 82.8678 102.987C82.3057 102.947 81.7661 102.75 81.3103 102.419C80.8544 102.088 80.5005 101.635 80.2887 101.113C80.077 100.591 80.0158 100.02 80.1123 99.4649L82.4033 86.0849C82.4863 85.6029 82.451 85.1079 82.3003 84.6426C82.1496 84.1773 81.8881 83.7555 81.5382 83.4137L71.8182 73.9408C71.415 73.5476 71.1299 73.0496 70.9951 72.5028C70.8602 71.9561 70.881 71.3826 71.055 70.8471C71.2291 70.3115 71.5495 69.8354 71.98 69.4724C72.4105 69.1095 72.934 68.8742 73.4912 68.7932L86.9235 66.8397C87.4072 66.7686 87.8665 66.5815 88.2622 66.2943C88.6578 66.0071 88.978 65.6283 89.1954 65.1904L95.2033 53.0177C95.4517 52.5123 95.8368 52.0866 96.3148 51.7889C96.7928 51.4912 97.3447 51.3334 97.9078 51.3334C98.471 51.3334 99.0229 51.4912 99.5009 51.7889C99.9789 52.0866 100.364 52.5123 100.612 53.0177Z" fill="url(#paint5_linear_1200_17365)"/>
<path opacity="0.15" d="M158.364 29.2315C154.746 33.5617 151.454 36.9054 147.44 40.7927C147.142 41.088 146.845 41.3832 146.547 41.6785C146.349 41.8753 146.2 42.0229 146.002 42.2197C145.259 42.9086 144.515 43.6467 143.722 44.3356C143.425 44.5817 143.177 44.8277 142.88 45.123C142.681 45.2706 142.483 45.4674 142.334 45.615C142.087 45.8611 141.839 46.0579 141.591 46.2547C115.223 69.4313 81.7168 83.5537 46.3276 86.1125C45.9806 86.1125 45.6832 86.1617 45.3363 86.1617C45.0885 86.1617 44.8406 86.2109 44.5928 86.2109C44.1963 86.2109 43.8493 86.2601 43.4528 86.2601C42.1641 86.3093 40.8755 86.4078 39.5868 86.4078C39.1903 86.4078 38.7442 86.457 38.3477 86.457C37.3564 86.5062 36.3651 86.5062 35.4233 86.5062C30.8138 86.5062 26.2043 86.3586 21.5452 85.9649C21.1983 83.0617 21 80.06 21 77.0584C21 34.4942 55.7449 0 98.5688 0C117.849 0 135.04 7.39946 148.62 19.0123C152.139 22.014 155.39 25.6394 158.364 29.2315Z" fill="url(#paint6_linear_1200_17365)"/>
<defs>
<filter id="filter0_f_1200_17365" x="-4.48364" y="-30.6075" width="110.833" height="113.757" filterUnits="userSpaceOnUse" color-interpolation-filters="sRGB">
<feFlood flood-opacity="0" result="BackgroundImageFix"/>
<feBlend mode="normal" in="SourceGraphic" in2="BackgroundImageFix" result="shape"/>
<feGaussianBlur stdDeviation="14.0216" result="effect1_foregroundBlur_1200_17365"/>
</filter>
<filter id="filter1_f_1200_17365" x="96.2019" y="-33.8806" width="102.977" height="120.303" filterUnits="userSpaceOnUse" color-interpolation-filters="sRGB">
<feFlood flood-opacity="0" result="BackgroundImageFix"/>
<feBlend mode="normal" in="SourceGraphic" in2="BackgroundImageFix" result="shape"/>
<feGaussianBlur stdDeviation="14.0216" result="effect1_foregroundBlur_1200_17365"/>
</filter>
<filter id="filter2_f_1200_17365" x="84.7136" y="73.2201" width="112.314" height="112.314" filterUnits="userSpaceOnUse" color-interpolation-filters="sRGB">
<feFlood flood-opacity="0" result="BackgroundImageFix"/>
<feBlend mode="normal" in="SourceGraphic" in2="BackgroundImageFix" result="shape"/>
<feGaussianBlur stdDeviation="14.0216" result="effect1_foregroundBlur_1200_17365"/>
</filter>
<filter id="filter3_f_1200_17365" x="-4.64429" y="66.5657" width="112.314" height="112.314" filterUnits="userSpaceOnUse" color-interpolation-filters="sRGB">
<feFlood flood-opacity="0" result="BackgroundImageFix"/>
<feBlend mode="normal" in="SourceGraphic" in2="BackgroundImageFix" result="shape"/>
<feGaussianBlur stdDeviation="14.0216" result="effect1_foregroundBlur_1200_17365"/>
</filter>
<linearGradient id="paint0_linear_1200_17365" x1="181.892" y1="138.315" x2="157.176" y2="122.867" gradientUnits="userSpaceOnUse">
<stop offset="0.01" stop-color="#9D00FF"/>
<stop offset="0.41" stop-color="#7B00DB"/>
<stop offset="0.53" stop-color="#9825E4"/>
<stop offset="0.62" stop-color="#6800B5"/>
<stop offset="1" stop-color="#400071"/>
</linearGradient>
<linearGradient id="paint1_linear_1200_17365" x1="10.7191" y1="138.291" x2="39.5846" y2="118.076" gradientUnits="userSpaceOnUse">
<stop offset="0.01" stop-color="#9D00FF"/>
<stop offset="0.41" stop-color="#7B00DB"/>
<stop offset="0.53" stop-color="#9825E4"/>
<stop offset="0.62" stop-color="#6800B5"/>
<stop offset="1" stop-color="#400071"/>
</linearGradient>
<linearGradient id="paint2_linear_1200_17365" x1="98.0001" y1="18.537" x2="98.0001" y2="135.463" gradientUnits="userSpaceOnUse">
<stop stop-color="#2A99A4"/>
<stop offset="0.484375" stop-color="#10667B"/>
<stop offset="1" stop-color="#184A61"/>
</linearGradient>
<linearGradient id="paint3_linear_1200_17365" x1="98.0001" y1="18.537" x2="98.0001" y2="135.463" gradientUnits="userSpaceOnUse">
<stop stop-color="#3F879B"/>
<stop offset="1" stop-color="#062C3C"/>
</linearGradient>
<linearGradient id="paint4_linear_1200_17365" x1="98" y1="14.2593" x2="98" y2="139.741" gradientUnits="userSpaceOnUse">
<stop stop-color="#3C4E56"/>
<stop offset="1" stop-color="#ADBED2"/>
</linearGradient>
<linearGradient id="paint5_linear_1200_17365" x1="97.9078" y1="51.8342" x2="97.9078" y2="96.7984" gradientUnits="userSpaceOnUse">
<stop offset="0.08" stop-color="#C8D0E5"/>
<stop offset="0.23" stop-color="#FAFAFA"/>
<stop offset="0.39" stop-color="#C8D1E2"/>
<stop offset="0.59" stop-color="#566B7C"/>
<stop offset="1" stop-color="#A9B8CF"/>
</linearGradient>
<linearGradient id="paint6_linear_1200_17365" x1="57.296" y1="11.8704" x2="100.794" y2="72.7547" gradientUnits="userSpaceOnUse">
<stop offset="0.5084" stop-color="white" stop-opacity="0"/>
<stop offset="1" stop-color="white"/>
</linearGradient>
</defs>
</svg>
