<svg xmlns="http://www.w3.org/2000/svg" xmlns:xlink="http://www.w3.org/1999/xlink" id="Layer_1" width="210" height="27" x="0" y="0" enable-background="new 0 0 210 27" version="1.1" viewBox="0 0 210 27" xml:space="preserve"><g><path fill="#818181" fill-rule="evenodd" d="M0.17,26.458V0.877h6.01c1.711,0,2.969,0.096,3.763,0.287 c0.799,0.197,1.502,0.525,2.11,0.99c0.757,0.59,1.341,1.39,1.759,2.386c0.423,0.996,0.632,2.098,0.632,3.309 c0,2.094-0.584,3.691-1.753,4.777c-1.175,1.09-2.886,1.634-5.146,1.634H7.003l9.767,12.199h-3.864L3.569,14.259h-0.43v12.199H0.17 L0.17,26.458z M3.139,3.454v8.551h2.32c2.379,0,3.971-0.304,4.776-0.919c0.805-0.608,1.204-1.675,1.204-3.202 c0-1.64-0.411-2.784-1.24-3.446C9.37,3.782,7.79,3.454,5.459,3.454H3.139z" clip-rule="evenodd"/><path fill="#818181" fill-rule="evenodd" d="M62.554,23.596h1.938c3.142,0,5.319-0.137,6.529-0.412 c1.21-0.273,2.218-0.738,3.023-1.406c1.049-0.871,1.848-1.998,2.391-3.375c0.549-1.383,0.823-2.964,0.823-4.746 c0-1.789-0.269-3.363-0.811-4.723c-0.542-1.354-1.342-2.475-2.403-3.363c-0.805-0.674-1.825-1.15-3.065-1.437 s-3.399-0.43-6.487-0.43h-1.938V23.596L62.554,23.596z M59.478,26.458V0.877h4.913c3.631,0,6.189,0.186,7.674,0.549 c1.485,0.37,2.791,0.984,3.906,1.842c1.466,1.133,2.582,2.576,3.339,4.335c0.757,1.759,1.133,3.787,1.133,6.082 c0,2.284-0.376,4.299-1.127,6.053c-0.752,1.752-1.867,3.195-3.345,4.328c-1.121,0.859-2.391,1.473-3.816,1.844 c-1.431,0.363-3.649,0.548-6.667,0.548h-1.097H59.478z" clip-rule="evenodd"/><path fill="#818181" fill-rule="evenodd" d="M102.351,26.458V0.877h5.331c1.872,0,3.256,0.096,4.15,0.287 c0.888,0.197,1.657,0.525,2.295,0.99c0.816,0.603,1.449,1.384,1.896,2.332c0.447,0.948,0.674,1.991,0.674,3.118 c0,1.354-0.322,2.48-0.973,3.387c-0.644,0.913-1.586,1.544-2.82,1.908c1.509,0.233,2.707,0.912,3.584,2.033 c0.877,1.127,1.318,2.546,1.318,4.258c0,1.025-0.186,2.004-0.561,2.934c-0.371,0.93-0.889,1.729-1.551,2.396 c-0.722,0.711-1.615,1.211-2.672,1.503c-1.061,0.292-2.844,0.436-5.342,0.436H102.351L102.351,26.458z M105.32,14.473v9.337h2.361 c1.615,0,2.784-0.065,3.5-0.191c0.715-0.131,1.288-0.352,1.723-0.667c0.52-0.37,0.931-0.889,1.229-1.557 c0.305-0.661,0.453-1.396,0.453-2.2c0-0.936-0.179-1.747-0.542-2.433c-0.358-0.686-0.883-1.223-1.568-1.61 c-0.405-0.244-0.876-0.417-1.413-0.523c-0.531-0.103-1.365-0.156-2.492-0.156h-0.889H105.32L105.32,14.473z M105.32,3.526v8.55 h2.361c2.164,0,3.691-0.316,4.573-0.942c0.888-0.625,1.329-1.687,1.329-3.178c0-1.64-0.41-2.785-1.234-3.446 c-0.816-0.656-2.379-0.984-4.668-0.984H105.32z" clip-rule="evenodd"/><path fill="#818181" fill-rule="evenodd" d="M126.336,26.458V0.877h6.01c1.711,0,2.97,0.096,3.763,0.287 c0.799,0.197,1.503,0.525,2.11,0.99c0.758,0.59,1.342,1.39,1.76,2.386c0.423,0.996,0.631,2.098,0.631,3.309 c0,2.094-0.584,3.691-1.752,4.777c-1.175,1.09-2.887,1.634-5.146,1.634h-0.543l9.768,12.199h-3.863l-9.338-12.199h-0.43v12.199 H126.336L126.336,26.458z M129.305,3.454v8.551h2.32c2.379,0,3.971-0.304,4.775-0.919c0.805-0.608,1.205-1.675,1.205-3.202 c0-1.64-0.412-2.784-1.24-3.446c-0.83-0.656-2.41-0.984-4.74-0.984H129.305z" clip-rule="evenodd"/><rect width="3.041" height="25.581" x="149.254" y=".877" fill="#818181" fill-rule="evenodd" clip-rule="evenodd"/><path fill="#818181" fill-rule="evenodd" d="M182.176,6.996c-1.223-1.33-2.528-2.313-3.912-2.945 c-1.389-0.639-2.922-0.955-4.597-0.955c-1.354,0-2.671,0.274-3.96,0.823c-1.281,0.548-2.402,1.311-3.344,2.29 c-0.979,1.014-1.712,2.146-2.201,3.398c-0.488,1.252-0.733,2.635-0.733,4.15c0,1.187,0.144,2.283,0.436,3.285 s0.728,1.92,1.312,2.76c1.025,1.456,2.283,2.576,3.781,3.363c1.496,0.787,3.111,1.181,4.847,1.181c1.634,0,3.148-0.339,4.544-1.013 c1.4-0.675,2.678-1.682,3.828-3.023v4.036c-1.271,0.919-2.636,1.616-4.097,2.087s-2.976,0.704-4.538,0.704 c-1.347,0-2.664-0.203-3.947-0.603c-1.281-0.398-2.48-0.989-3.602-1.759c-1.859-1.288-3.285-2.88-4.269-4.765 c-0.983-1.891-1.479-3.959-1.479-6.219c0-1.967,0.327-3.762,0.989-5.372c0.656-1.616,1.658-3.077,3.012-4.395 c1.306-1.258,2.748-2.2,4.334-2.821c1.586-0.625,3.315-0.936,5.188-0.936c1.485,0,2.916,0.227,4.3,0.673 c1.39,0.448,2.755,1.139,4.108,2.082V6.996z" clip-rule="evenodd"/><polygon fill="#818181" fill-rule="evenodd" points="190.774 26.458 190.774 .877 193.779 .877 193.779 12.254 204.518 .877 208.149 .877 197.184 12.392 209.234 26.458 205.305 26.458 193.779 12.69 193.779 26.458" clip-rule="evenodd"/><polygon fill="#BB2025" fill-rule="evenodd" points="22.888 26.458 22.888 21.979 44.79 21.979 44.79 26.457 27.826 26.457" clip-rule="evenodd"/><polygon fill="#BB2025" fill-rule="evenodd" points="26.275 15.907 26.275 11.429 48.176 11.429 48.176 15.906 31.213 15.906" clip-rule="evenodd"/><polygon fill="#BB2025" fill-rule="evenodd" points="29.661 5.356 29.661 .877 51.563 .877 51.563 5.356 34.599 5.356" clip-rule="evenodd"/></g></svg>