<svg xmlns="http://www.w3.org/2000/svg" id="Logo-white" width="528.293" height="160.229" viewBox="0 0 528.293 160.229"><path id="Muir" fill="#fff" d="M174.4,124.751a52.944,52.944,0,0,1-22.509-4.475,36.357,36.357,0,0,1-15.4-12.768,35.537,35.537,0,0,1-5.792-20.14h22.246a19.855,19.855,0,0,0,21.193,19.481,20.565,20.565,0,0,0,13.426-4.081,13.475,13.475,0,0,0,5-10.925,14.214,14.214,0,0,0-4.344-11.189,32.953,32.953,0,0,0-11.715-6.45L160.977,68.94a50.474,50.474,0,0,1-20.4-12.11A26.94,26.94,0,0,1,133.6,37.216a30.243,30.243,0,0,1,4.87-17.77A32.947,32.947,0,0,1,152.289,7.863a46.015,46.015,0,0,1,20.14-4.081,47.677,47.677,0,0,1,20.4,4.212,32.318,32.318,0,0,1,13.821,11.715,34.748,34.748,0,0,1,5.4,17.9H189.409a16.283,16.283,0,0,0-4.739-10.925,16.545,16.545,0,0,0-12.637-4.739A17.245,17.245,0,0,0,160.45,25.37a12.415,12.415,0,0,0-4.739,10.4,12.593,12.593,0,0,0,3.686,9.346,32.486,32.486,0,0,0,9.872,5.792c4.212,1.58,8.951,3.291,14.348,5a97.968,97.968,0,0,1,15.664,6.976,31.744,31.744,0,0,1,11.452,10.662,30.9,30.9,0,0,1,4.344,16.98,32.75,32.75,0,0,1-18.3,29.749A54.829,54.829,0,0,1,174.4,124.751Zm70.028-97.934a13.1,13.1,0,0,1-9.477-3.554,11.274,11.274,0,0,1-3.686-8.819,11.731,11.731,0,0,1,3.686-8.819A13.406,13.406,0,0,1,244.431,2.2a13.2,13.2,0,0,1,9.477,3.422,11.094,11.094,0,0,1,3.686,8.819,11.732,11.732,0,0,1-3.686,8.819A13.529,13.529,0,0,1,244.431,26.817Zm-10.662,95.828V39.717h21.193v82.928ZM287.343,159.5,306.3,117.117h-5l-31.855-77.4h22.9l23.036,58.444,23.957-58.444h22.509L309.852,159.5Zm110.176-34.751a38.011,38.011,0,0,1-17.375-3.422,24.124,24.124,0,0,1-10.136-9.083,24.683,24.683,0,0,1-3.291-12.505,22.95,22.95,0,0,1,8.951-18.692,42,42,0,0,1,26.721-7.24h20.8V71.7A15.209,15.209,0,0,0,418.448,59.2,17.8,17.8,0,0,0,406.6,55.118a19.451,19.451,0,0,0-11.32,3.159,13.349,13.349,0,0,0-5.923,9.083H368.691A28.5,28.5,0,0,1,374.746,51.7,33.828,33.828,0,0,1,388.3,41.429a44.44,44.44,0,0,1,18.56-3.554,41.206,41.206,0,0,1,27.643,8.819,31.791,31.791,0,0,1,10.136,25.142v50.941H426.609l-1.974-13.426A30.3,30.3,0,0,1,414.5,120.408a32.684,32.684,0,0,1-16.98,4.344Zm4.739-16.849a17.751,17.751,0,0,0,14.216-6.055,29.511,29.511,0,0,0,6.318-14.874H404.758a18.146,18.146,0,0,0-12.11,3.159,9.541,9.541,0,0,0-3.686,7.635,8.614,8.614,0,0,0,3.686,7.5,14.834,14.834,0,0,0,9.609,2.633ZM473.6,123.83a12.689,12.689,0,0,1-9.478-3.686,12.019,12.019,0,0,1-3.686-8.951,12.311,12.311,0,0,1,3.686-9.083,14.121,14.121,0,0,1,18.955,0,12.432,12.432,0,0,1,3.817,9.083,11.853,11.853,0,0,1-3.817,8.819,12.32,12.32,0,0,1-9.477,3.817Z" transform="translate(41.397 0.727)"/><g id="Path_598" transform="translate(6.442 63.349)"><path id="Path_56916" fill="#fff" d="M7.9,77.984S23.3,107.6,70.03,106.417s52.126-26.326,52.389-32.25S123.209,51,90.7,51C72,51.263,73.321,69.165,50.417,77.984A59.2,59.2,0,0,1,7.9,77.984Z" data-name="Path 56916" transform="translate(-3.887 -47.183)"/><path id="Path_56917" fill="#fff" d="M68.362,111.283C21.9,111.283,5.969,81.929,5.31,80.745a3.986,3.986,0,0,1,.527-4.475,3.836,3.836,0,0,1,4.344-1.053,55.9,55.9,0,0,0,39.753,0c10-3.817,14.874-9.346,19.613-14.743C74.812,54.418,80.209,48.232,91.661,48.1c13.953,0,24.089,3.159,29.88,9.214,6.318,6.582,5.923,14.874,5.792,18.034-.132,3.554-3.159,34.619-56.207,35.935Zm-48.967-25.4c8.161,7.9,23.957,18.165,51.6,17.507,45.939-1.053,48.44-25.668,48.572-28.432.132-2.633.395-8.03-3.554-12.242-4.344-4.475-12.373-6.845-24.089-6.845-7.9.132-11.189,3.949-16.191,9.741-4.87,5.529-10.794,12.373-22.641,16.98A64.272,64.272,0,0,1,19.395,85.878Z" data-name="Path 56917" transform="translate(-4.851 -48.1)"/></g><g id="Path_599" transform="translate(0 0)"><path id="Path_56918" fill="#ff2c00" d="M117.664,31.441s-15.4-29.617-62.13-28.432S3.408,29.335,3.013,35.258c-.263,5.923-.79,23.167,31.723,23.167,18.692-.263,17.375-18.165,40.279-26.984a59.55,59.55,0,0,1,42.649,0Z" data-name="Path 56918" transform="translate(0.992 0.974)"/><path id="Path_56919" fill="#ff2c00" d="M35.817,63.323c-14.085,0-24.089-3.159-30.012-9.346C-.513,47.264-.118,39.1.013,35.944.277,32.389,3.436,1.324,56.352.008c48.7-1.185,65.026,29.222,65.684,30.539a3.986,3.986,0,0,1-.527,4.475,3.836,3.836,0,0,1-4.344,1.053,55.9,55.9,0,0,0-39.753,0c-10,3.817-14.874,9.346-19.613,14.743C52.666,56.873,47.269,63.06,35.817,63.323Zm23.3-55.417h-2.5C10.676,9.091,8.043,33.574,7.911,36.338c-.132,2.633-.395,7.9,3.554,12.11,4.344,4.607,12.5,6.845,24.22,6.845,7.9-.132,11.189-3.949,16.191-9.741,4.87-5.529,10.794-12.373,22.641-16.98a64.518,64.518,0,0,1,33.434-3.291C100.185,17.778,85.047,7.906,59.116,7.906Z" data-name="Path 56919" transform="translate(0.043 0.026)"/></g></svg>