<svg xmlns="http://www.w3.org/2000/svg" width="265" height="24.56" viewBox="0 0 265 24.56"><defs><style>.a{fill:#51c4ca}</style></defs><g><g><g transform="translate(-137 -66) translate(137 66) translate(0)"><path d="M55.553-48.418a1.56,1.56,0,0,1-.423.507.95.95,0,0,1-.557.157,1.436,1.436,0,0,1-.756-.258q-.407-.256-.972-.572a7.949,7.949,0,0,0-1.322-.574,5.563,5.563,0,0,0-1.785-.257,5.353,5.353,0,0,0-1.629.224,3.419,3.419,0,0,0-1.171.624,2.492,2.492,0,0,0-.707.955A3.129,3.129,0,0,0,46-46.391a2.126,2.126,0,0,0,.474,1.413,3.968,3.968,0,0,0,1.254.964A11.627,11.627,0,0,0,49.5-43.3q1,.315,2.043.673a18.986,18.986,0,0,1,2.044.831,7.052,7.052,0,0,1,1.777,1.2,5.434,5.434,0,0,1,1.255,1.77,6.148,6.148,0,0,1,.473,2.542,8.3,8.3,0,0,1-.556,3.049,7.05,7.05,0,0,1-1.628,2.477A7.676,7.676,0,0,1,52.3-29.1a9.659,9.659,0,0,1-3.539.606,11.456,11.456,0,0,1-2.26-.224,11.91,11.91,0,0,1-2.135-.64,11.422,11.422,0,0,1-1.92-1,9.168,9.168,0,0,1-1.595-1.3L42.16-33.8a1.412,1.412,0,0,1,.432-.39,1.09,1.09,0,0,1,.565-.157,1.585,1.585,0,0,1,.9.341q.481.34,1.146.756a9.087,9.087,0,0,0,1.554.755,5.983,5.983,0,0,0,2.136.341,4.382,4.382,0,0,0,2.958-.906,3.252,3.252,0,0,0,1.046-2.6A2.409,2.409,0,0,0,52.42-37.2a3.808,3.808,0,0,0-1.254-1.006,9.45,9.45,0,0,0-1.778-.69q-1-.281-2.027-.614a17.478,17.478,0,0,1-2.027-.8,6.574,6.574,0,0,1-1.778-1.212,5.541,5.541,0,0,1-1.254-1.87,7.111,7.111,0,0,1-.474-2.767,6.556,6.556,0,0,1,.524-2.559,6.611,6.611,0,0,1,1.521-2.21,7.438,7.438,0,0,1,2.46-1.545,9.007,9.007,0,0,1,3.356-.582,11.219,11.219,0,0,1,3.922.664,8.87,8.87,0,0,1,3.057,1.862Z" class="a" transform="translate(-7.985 53.054)"/><path d="M70.32-52.763a13.713,13.713,0,0,1,4.171.564A8.035,8.035,0,0,1,77.4-50.62a6.25,6.25,0,0,1,1.7,2.427,8.35,8.35,0,0,1,.557,3.09,8.537,8.537,0,0,1-.582,3.2,6.629,6.629,0,0,1-1.745,2.5,8.112,8.112,0,0,1-2.917,1.629,13.053,13.053,0,0,1-4.1.581H66.98v8.459H62.51V-52.763Zm0,12.08a6.738,6.738,0,0,0,2.144-.307,4.067,4.067,0,0,0,1.521-.88,3.563,3.563,0,0,0,.905-1.4,5.344,5.344,0,0,0,.3-1.836,4.852,4.852,0,0,0-.3-1.745,3.426,3.426,0,0,0-.9-1.329,3.992,3.992,0,0,0-1.511-.838,7.154,7.154,0,0,0-2.161-.291H66.98v8.624Z" class="a" transform="translate(-9.842 53.029)"/><path d="M103.407-28.736H99.369a1.767,1.767,0,0,1-1.661-.9l-5.053-7.693a1.779,1.779,0,0,0-.623-.614,2.189,2.189,0,0,0-1.006-.183H89.116v9.388h-4.47V-52.763h7.328a15.257,15.257,0,0,1,4.2.506,8.034,8.034,0,0,1,2.875,1.421A5.575,5.575,0,0,1,100.7-48.65a7.2,7.2,0,0,1,.531,2.8,7.246,7.246,0,0,1-.357,2.293,6.618,6.618,0,0,1-1.03,1.96,6.94,6.94,0,0,1-1.662,1.545A8.336,8.336,0,0,1,95.929-39a4.382,4.382,0,0,1,.8.59,4.2,4.2,0,0,1,.665.806Zm-11.5-12.6a6.9,6.9,0,0,0,2.2-.316,4.247,4.247,0,0,0,1.545-.871,3.5,3.5,0,0,0,.905-1.321,4.549,4.549,0,0,0,.3-1.679,3.413,3.413,0,0,0-1.2-2.808,5.763,5.763,0,0,0-3.681-.981H89.116v7.977Z" class="a" transform="translate(-11.738 53.029)"/><rect width="4.487" height="24.028" class="a" transform="translate(93.945 0.265)"/><path d="M165.385-40.808v9.721a12.743,12.743,0,0,1-3.9,1.969,15.265,15.265,0,0,1-4.429.624,14.791,14.791,0,0,1-5.326-.913,11.933,11.933,0,0,1-4.071-2.543,11.142,11.142,0,0,1-2.6-3.889,13.033,13.033,0,0,1-.914-4.935,13.57,13.57,0,0,1,.88-4.968,11.2,11.2,0,0,1,2.5-3.89,11.159,11.159,0,0,1,3.929-2.525,14.231,14.231,0,0,1,5.185-.9,15.159,15.159,0,0,1,2.734.232,13.867,13.867,0,0,1,2.36.64,10.2,10.2,0,0,1,1.985.988,11.964,11.964,0,0,1,1.646,1.279l-1.28,2.027a1.219,1.219,0,0,1-.781.591,1.4,1.4,0,0,1-1.047-.241q-.549-.314-1.1-.632a7.141,7.141,0,0,0-1.221-.548,10.1,10.1,0,0,0-1.512-.382,11.148,11.148,0,0,0-1.937-.149,8.3,8.3,0,0,0-3.215.6,6.791,6.791,0,0,0-2.451,1.712,7.736,7.736,0,0,0-1.563,2.675,10.5,10.5,0,0,0-.548,3.489,10.714,10.714,0,0,0,.59,3.681,7.732,7.732,0,0,0,1.661,2.741,7.088,7.088,0,0,0,2.584,1.713,9.22,9.22,0,0,0,3.374.589,9.139,9.139,0,0,0,2.376-.282,11.547,11.547,0,0,0,2.043-.764v-4.354h-3.024a.913.913,0,0,1-.674-.24.8.8,0,0,1-.24-.591v-2.525Z" class="a" transform="translate(-16.836 53.054)"/><path d="M180.012-52.763a15.8,15.8,0,0,1,4.037.448,7.7,7.7,0,0,1,2.751,1.279,4.962,4.962,0,0,1,1.57,2.012,6.759,6.759,0,0,1,.5,2.658,5.273,5.273,0,0,1-.25,1.621,4.7,4.7,0,0,1-.773,1.445,5.786,5.786,0,0,1-1.329,1.222,8.027,8.027,0,0,1-1.919.931q4.951,1.114,4.952,5.351a6.818,6.818,0,0,1-.582,2.824,6.216,6.216,0,0,1-1.694,2.236,8.085,8.085,0,0,1-2.742,1.47,11.945,11.945,0,0,1-3.722.532h-9.073V-52.763Zm-3.806,3.456v6.945h3.557a5.983,5.983,0,0,0,3.464-.83,3.015,3.015,0,0,0,1.171-2.642,3.13,3.13,0,0,0-1.063-2.675,5.558,5.558,0,0,0-3.323-.8Zm4.52,17.081a6.351,6.351,0,0,0,2.094-.3,3.588,3.588,0,0,0,1.354-.8,2.92,2.92,0,0,0,.731-1.164,4.392,4.392,0,0,0,.224-1.412,3.768,3.768,0,0,0-.249-1.4,2.636,2.636,0,0,0-.782-1.063,3.669,3.669,0,0,0-1.371-.674,7.661,7.661,0,0,0-2.019-.232h-4.5v7.046Z" class="a" transform="translate(-19.2 53.029)"/><path d="M218.09-40.775a13.408,13.408,0,0,1-.873,4.893,11.508,11.508,0,0,1-2.467,3.9,11.233,11.233,0,0,1-3.839,2.567,13,13,0,0,1-4.985.922,12.957,12.957,0,0,1-4.968-.922,11.308,11.308,0,0,1-3.847-2.567,11.537,11.537,0,0,1-2.485-3.9,13.315,13.315,0,0,1-.88-4.893,13.322,13.322,0,0,1,.88-4.893,11.533,11.533,0,0,1,2.485-3.9,11.3,11.3,0,0,1,3.847-2.567,12.957,12.957,0,0,1,4.968-.922,13.5,13.5,0,0,1,3.441.423,12.062,12.062,0,0,1,2.957,1.2,11,11,0,0,1,2.418,1.878,11.469,11.469,0,0,1,1.819,2.468,12.118,12.118,0,0,1,1.137,2.958,14.059,14.059,0,0,1,.391,3.356m-4.57,0a11.022,11.022,0,0,0-.532-3.548,7.622,7.622,0,0,0-1.511-2.667,6.5,6.5,0,0,0-2.385-1.679,8.231,8.231,0,0,0-3.166-.581,8.231,8.231,0,0,0-3.166.581,6.561,6.561,0,0,0-2.392,1.679,7.526,7.526,0,0,0-1.521,2.667,11,11,0,0,0-.531,3.548,10.99,10.99,0,0,0,.531,3.548,7.425,7.425,0,0,0,1.521,2.659,6.6,6.6,0,0,0,2.392,1.67,8.214,8.214,0,0,0,3.166.582,8.214,8.214,0,0,0,3.166-.582,6.531,6.531,0,0,0,2.385-1.67,7.519,7.519,0,0,0,1.511-2.659A11.014,11.014,0,0,0,213.52-40.775Z" class="a" transform="translate(-21.086 53.054)"/><path d="M234.394-52.764h-4.553l-9.454,24.028h3.493a1.415,1.415,0,0,0,.942-.32,1.606,1.606,0,0,0,.521-.695l1.792-4.9h9.957l1.792,4.9a1.715,1.715,0,0,0,.549.722,1.493,1.493,0,0,0,.951.293h3.456Zm-6.108,14.958,2.514-6.848.622-1.71.677-1.847,3.831,10.4Z" class="a" transform="translate(-23.368 53.029)"/><path d="M267.156-28.736h-4.038a1.769,1.769,0,0,1-1.661-.9l-5.052-7.693a1.789,1.789,0,0,0-.624-.614,2.189,2.189,0,0,0-1.006-.183h-1.911v9.388h-4.47V-52.763h7.328a15.256,15.256,0,0,1,4.2.506,8.046,8.046,0,0,1,2.876,1.421,5.573,5.573,0,0,1,1.653,2.186,7.179,7.179,0,0,1,.532,2.8,7.271,7.271,0,0,1-.358,2.293,6.642,6.642,0,0,1-1.03,1.96,6.935,6.935,0,0,1-1.661,1.545A8.362,8.362,0,0,1,259.679-39a4.407,4.407,0,0,1,.8.59,4.169,4.169,0,0,1,.665.806Zm-11.5-12.6a6.9,6.9,0,0,0,2.2-.316,4.239,4.239,0,0,0,1.545-.871,3.513,3.513,0,0,0,.906-1.321,4.568,4.568,0,0,0,.3-1.679,3.413,3.413,0,0,0-1.2-2.808,5.764,5.764,0,0,0-3.681-.981h-2.858v7.977Z" class="a" transform="translate(-25.768 53.029)"/><path d="M292.74-40.75a13,13,0,0,1-.88,4.852,11.14,11.14,0,0,1-2.476,3.805,11.085,11.085,0,0,1-3.838,2.476,13.539,13.539,0,0,1-4.985.88H271.4V-52.763h9.157a13.428,13.428,0,0,1,4.985.888,11.258,11.258,0,0,1,3.838,2.476,11.07,11.07,0,0,1,2.476,3.8,13,13,0,0,1,.88,4.852m-4.586,0a11.183,11.183,0,0,0-.523-3.548,7.358,7.358,0,0,0-1.512-2.659,6.609,6.609,0,0,0-2.393-1.67,8.21,8.21,0,0,0-3.165-.582H275.89v16.917h4.669a8.21,8.21,0,0,0,3.165-.582,6.6,6.6,0,0,0,2.393-1.67A7.343,7.343,0,0,0,287.63-37.2,11.175,11.175,0,0,0,288.153-40.75Z" class="a" transform="translate(-27.74 53.029)"/><path d="M32.373-52.8l-7.328,6.231,1.3,1.778a.979.979,0,0,0,.3.274,1.321,1.321,0,0,0,.456.175,1.425,1.425,0,0,0,.549-.008,1.45,1.45,0,0,0,.591-.291l3.406-2.85-.006,18.753h4.111V-52.8Z" class="a" transform="translate(-6.632 53.032)"/><path d="M134.387-52.763v16.652l-12.48-15.938a3.411,3.411,0,0,0-.332-.374,1.185,1.185,0,0,0-.307-.216,1.165,1.165,0,0,0-.366-.1,4.22,4.22,0,0,0-.49-.025h-2.343v24.027h3.939V-45.391L134.453-29.5a2.084,2.084,0,0,0,.69.591,2.015,2.015,0,0,0,.889.174h2.292V-52.763Z" class="a" transform="translate(-14.602 53.029)"/><path d="M20.535-48.335a7.136,7.136,0,0,0-1.6-2.509,7.243,7.243,0,0,0-2.51-1.628,8.949,8.949,0,0,0-3.315-.582,8.79,8.79,0,0,0-3.339.614,7.865,7.865,0,0,0-2.592,1.679A7.584,7.584,0,0,0,5.5-48.285a7.66,7.66,0,0,0-.6,3.025,7.359,7.359,0,0,0,.574,3.015,6.556,6.556,0,0,0,1.5,2.16A6.118,6.118,0,0,0,9.11-38.78a7.144,7.144,0,0,0,2.443.432,7.846,7.846,0,0,0,2.093-.274,6.963,6.963,0,0,0,.869-.307L7-28.76h3.773a2.894,2.894,0,0,0,1.279-.274,2.168,2.168,0,0,0,.848-.674l5.5-7.843A19.856,19.856,0,0,0,19.512-39.3a12.855,12.855,0,0,0,.848-1.8,11.472,11.472,0,0,0,.54-1.919,11.222,11.222,0,0,0,.191-2.11A8.968,8.968,0,0,0,20.535-48.335Zm-3.64,4.4a3.63,3.63,0,0,1-.806,1.3,3.764,3.764,0,0,1-1.312.864A4.719,4.719,0,0,1,13-41.455a3.954,3.954,0,0,1-2.95-1.055A4.193,4.193,0,0,1,9.01-45.577a4.686,4.686,0,0,1,.283-1.653,3.72,3.72,0,0,1,.815-1.3,3.749,3.749,0,0,1,1.279-.856,4.383,4.383,0,0,1,1.679-.307,4.7,4.7,0,0,1,1.654.283,3.723,3.723,0,0,1,1.3.814,3.59,3.59,0,0,1,.848,1.3,4.834,4.834,0,0,1,.3,1.754A4.639,4.639,0,0,1,16.9-43.932Z" class="a" transform="translate(-4.906 53.054)"/></g></g></g></svg>