<svg width="78" height="81" viewBox="0 0 78 81" fill="none" xmlns="http://www.w3.org/2000/svg">
<path fill-rule="evenodd" clip-rule="evenodd" d="M39 8C57.2254 8 72 22.7746 72 41C72 59.2254 57.2254 74 39 74C20.7746 74 6 59.2254 6 41C6 22.7746 20.7746 8 39 8ZM46.324 34.6828L50.8069 42.4479L50.8752 42.5663L52.9763 41.3533L45.0776 27.6723L42.7959 40.9859C42.7337 41.3427 42.7033 41.704 42.7049 42.0668C42.7064 42.4236 42.7383 42.7864 42.8035 43.1462C42.8673 43.5014 42.9599 43.8521 43.0844 44.1937C43.2058 44.5277 43.3576 44.854 43.5398 45.1698C43.9634 45.903 44.5129 46.5194 45.1475 47.0052C45.8048 47.5107 46.5532 47.875 47.3411 48.0861C48.129 48.2971 48.9594 48.3548 49.7822 48.247C50.5747 48.1422 51.3595 47.8842 52.0928 47.4606L53.3042 46.7608L55.4629 50.4998H47.5096V52.9197C48.1577 52.9197 49.3114 52.92 50.6285 52.9205C53.915 52.9215 58.2189 52.9229 58.2243 52.9197C58.3777 52.9197 58.5173 52.8802 58.6357 52.8119C58.7633 52.7375 58.8665 52.6328 58.9378 52.5083C59.0092 52.3838 59.0487 52.2411 59.0487 52.0953C59.0487 51.9572 59.0137 51.8175 58.9378 51.6855L54.1847 43.4528L50.8874 45.3565L50.8798 45.3611C49.9613 45.8909 48.9169 45.9987 47.9681 45.7452C47.4838 45.6146 47.0254 45.3914 46.6231 45.0833C46.236 44.7857 45.8974 44.4077 45.6378 43.9568C45.5224 43.7565 45.4268 43.553 45.3509 43.3481C45.2735 43.1356 45.2158 42.9245 45.1778 42.7135C45.1384 42.4964 45.1186 42.2763 45.1186 42.0547C45.1171 41.8315 45.1368 41.6099 45.1733 41.3928L46.324 34.6828ZM34.4221 29.9342L34.3554 30.0511L29.8739 37.8146L36.2606 35.4555C36.467 35.3796 36.6674 35.284 36.8617 35.1716C37.053 35.0593 37.2337 34.9333 37.4022 34.7906C37.5661 34.6525 37.721 34.4961 37.8652 34.323C38.0048 34.156 38.1339 33.9708 38.2493 33.7704C38.5104 33.3196 38.6683 32.8383 38.732 32.3541C38.7988 31.8516 38.7624 31.343 38.6333 30.8587C38.3783 29.9099 37.762 29.0583 36.845 28.5285L36.8374 28.5239L33.5401 26.6202L38.2933 18.3876C38.3707 18.257 38.4739 18.1553 38.5939 18.087C38.7199 18.0126 38.8641 17.9762 39.0068 17.9762C39.1495 17.9747 39.2922 18.0126 39.4197 18.0855C39.5381 18.1538 39.6413 18.254 39.7188 18.3876C39.7229 18.3907 41.6855 21.792 43.293 24.5778C44.0431 25.8777 44.7158 27.0437 45.0761 27.6677L42.9812 28.8776L39.0038 21.99L36.845 25.7291L38.0565 26.4289C38.7897 26.8525 39.406 27.402 39.8918 28.0366C40.3974 28.6955 40.7617 29.4439 40.9727 30.2318C41.1837 31.0197 41.2414 31.8501 41.1336 32.6729C41.0289 33.4653 40.7708 34.2502 40.3473 34.9834C40.1651 35.2976 39.9586 35.5922 39.7294 35.8654C39.4971 36.1432 39.2391 36.3998 38.9628 36.6336C38.6819 36.8704 38.3859 37.0784 38.0762 37.259C37.7635 37.4412 37.434 37.596 37.094 37.722L24.4225 42.4023L32.3211 28.7213L34.4221 29.9342ZM31.7108 50.4968H31.8459V50.4983H40.8088L35.5729 46.1475C35.4028 46.0063 35.2207 45.8788 35.0263 45.7679C34.8351 45.6586 34.6347 45.5645 34.4267 45.4901C34.2248 45.4173 34.0123 45.3611 33.7906 45.3231C33.5751 45.2867 33.3519 45.267 33.1196 45.267C32.5989 45.267 32.1025 45.3702 31.6516 45.5569C31.1841 45.7512 30.7605 46.0366 30.4068 46.3904C29.713 47.0841 29.2834 48.0436 29.2834 49.1032V49.1123V52.9197H19.7771C19.6238 52.9197 19.4856 52.8787 19.3657 52.8104C19.2382 52.7375 19.1349 52.6328 19.0636 52.5083C18.9922 52.3853 18.9528 52.2426 18.9528 52.0953C18.9528 51.9587 18.9877 51.819 19.0651 51.6855C19.0651 51.6787 21.3761 47.6785 23.0379 44.8022C23.623 43.7895 24.1276 42.9161 24.4225 42.4054L26.5174 43.6153L22.54 50.5029H26.8575V49.1032C26.8575 48.2561 27.0275 47.4469 27.3327 46.7091C27.6515 45.941 28.116 45.2518 28.6929 44.6749C29.2697 44.098 29.9605 43.632 30.7271 43.3147C31.4649 43.008 32.274 42.8395 33.1211 42.8395C33.4855 42.8395 33.8438 42.8714 34.1944 42.9337C34.5527 42.9974 34.9034 43.0915 35.2434 43.2145C35.588 43.339 35.916 43.4923 36.2272 43.6699C36.5414 43.8506 36.839 44.057 37.1183 44.2893L47.5081 52.9227H31.7108V50.4968Z" fill="white"/>
</svg>
