<svg xmlns="http://www.w3.org/2000/svg" id="Layer_2" data-name="Layer 2" viewBox="0 0 1731.08 455.89"><defs><style>.cls-1{fill:none}.cls-2{fill:#fff}</style></defs><g id="Layer_1-2" data-name="Layer 1"><g><g><g><path d="M1642.35,123.64l-1.84-.52c-4.97-1.4-8.6-5.65-9.21-10.78l-.23-1.9c-2.26-18.91-11.35-36.39-25.58-49.2-9.03-8.13-19.72-13.98-31.23-17.25-10.8,2.44-22.67,7.22-29.96,16.6-7.98,10.27-9.23,24.68-3.71,42.83l.18,.59-.62,173.96,80.17,.56c.19,0,.37,0,.56,0,20.87,0,40.53-8.06,55.41-22.73,.27-.27,.53-.55,.8-.82-10.41-.48-22.13-2.5-34.29-7.38-.04-.02-.08-.04-.12-.06-3.13-1.3-5.33-4.38-5.33-7.97,0-4.77,3.86-8.63,8.63-8.63s8.63,3.86,8.63,8.63c0,1.14-.22,2.22-.62,3.21,10.88,3.23,21.24,4.16,30.2,3.97,10.01-13.39,15.49-29.56,15.61-46.59h0c.25-35.44-23.37-66.91-57.44-76.51Z" class="cls-1"/><path d="M1731.08,200.06c.31-43.97-25.7-83.55-64.88-101.25-3.54-1.6-6.18-4.67-7.21-8.42-5.55-20.18-16.79-38.5-32.57-52.71-20.04-18.05-45.95-28.09-72.95-28.28-29.45-.14-57.19,11.06-78.15,31.74-20.96,20.67-32.62,48.27-32.82,77.71l-.53,76.78h-.27v70.34c0,23.67,19.19,42.87,42.87,42.87h39.18l96.37,.67c.26,0,.52,0,.78,0,29.14,0,56.6-11.25,77.37-31.74,20.96-20.67,32.62-48.27,32.82-77.7h0Zm-198.54-95.15l-.62,172.7-8.07-.06h-38.1c-7.05,0-12.77-5.72-12.77-12.77v-37.87h.05l.75-107.85c.14-21.08,8.49-40.85,23.5-55.65,15.01-14.8,34.88-22.95,55.97-22.73,1.18,0,2.36,.04,3.54,.11-7.15,3.27-13.89,7.89-18.97,14.42-9.64,12.39-11.42,29.11-5.29,49.7Zm167.26,94.94c-.12,17.03-5.59,33.2-15.61,46.59-8.96,.19-19.32-.75-30.2-3.97,.4-.99,.62-2.07,.62-3.21,0-4.77-3.86-8.63-8.63-8.63s-8.63,3.86-8.63,8.63c0,3.6,2.2,6.68,5.33,7.97,.04,.02,.08,.05,.12,.06,12.15,4.88,23.88,6.9,34.29,7.38-.27,.27-.52,.55-.8,.82-14.88,14.67-34.54,22.73-55.41,22.73-.19,0-.37,0-.56,0l-80.17-.56,.62-173.96-.18-.59c-5.52-18.14-4.27-32.55,3.71-42.83,7.29-9.38,19.16-14.16,29.96-16.6,11.51,3.26,22.2,9.12,31.23,17.25,14.23,12.81,23.32,30.29,25.58,49.2l.23,1.9c.61,5.12,4.25,9.38,9.21,10.78l1.84,.52c34.07,9.61,57.69,41.07,57.44,76.51h0Z" class="cls-2"/></g><g><g><path d="M188.06,313.18c-14.8,24.34-47.25,36.75-74.94,36.75C52.98,349.93,0,304.58,0,233.46S52.98,117.47,113.12,117.47c26.73,0,59.66,10.98,74.94,36.28v-9.07c0-13.36,10.5-24.82,23.87-24.82,14.32,0,25.3,11.46,25.3,24.82v178.04c0,13.36-10.98,24.82-25.3,24.82-13.36,0-23.87-11.46-23.87-24.82v-9.55Zm-69.21-10.98c36.28,0,68.73-25.3,68.73-69.21s-35.32-67.78-68.73-67.78c-37.23,0-68.26,26.73-68.26,67.78s31.03,69.21,68.26,69.21Z" class="cls-2"/><path d="M308.43,155.18c13.84-23.87,44.39-37.71,74.46-37.71,60.14,0,110.74,46.3,110.74,116.47s-50.6,115.99-110.74,115.99c-30.07,0-60.62-11.93-74.46-36.75v117.9c0,13.36-10.98,24.82-25.3,24.82-13.36,0-23.87-11.46-23.87-24.82V144.68c0-13.36,10.5-24.82,23.87-24.82,14.32,0,25.3,11.46,25.3,24.82v10.5Zm68.26,147.49c37.23,0,66.82-26.73,66.82-67.78s-29.59-69.69-66.82-69.69-67.78,26.25-67.78,69.69,33.89,67.78,67.78,67.78Z" class="cls-2"/><path d="M573.84,439.19c-5.25,12.41-17.66,19.09-30.55,15.75s-20.05-18.62-15.27-31.03l36.28-89.26-75.89-182.81c-5.25-12.41,2.39-27.68,15.27-31.03,12.89-3.34,25.3,3.34,30.55,15.75l56.32,138.42,56.8-138.42c5.25-12.41,17.66-19.09,30.55-15.75,12.89,3.34,20.52,18.62,15.27,31.03l-119.33,287.35Z" class="cls-2"/></g><g><path d="M761.66,157.52c12.41-27.21,47.25-38.66,70.64-38.66,56.8,0,90.21,37.23,90.21,100.71v104.53c0,13.36-10.98,24.82-25.3,24.82-13.36,0-23.87-11.46-23.87-24.82v-101.67c0-34.84-21.96-55.37-49.64-55.37s-62.05,15.75-62.05,59.66v97.37c0,13.36-10.98,24.82-25.3,24.82-13.36,0-23.87-11.46-23.87-24.82V24.82c0-13.36,10.98-24.82,25.3-24.82,13.36,0,23.87,11.46,23.87,24.82V157.52Z" class="cls-2"/><path d="M1147.14,324.1c0,13.36-10.98,24.82-25.3,24.82-13.36,0-23.87-11.46-23.87-24.82v-10.98c-12.89,25.78-43.44,38.19-68.26,38.19-53.94,0-84.96-34.84-84.96-97.85v-107.4c0-13.36,10.98-24.82,25.3-24.82,13.36,0,23.87,11.46,23.87,24.82v101.67c0,35.32,18.14,55.37,46.78,55.37s57.28-15.75,57.28-59.66v-97.37c0-13.36,10.98-24.82,25.3-24.82,13.36,0,23.87,11.46,23.87,24.82v178.04Z" class="cls-2"/><path d="M1218.55,155.61c13.84-24.34,43.44-36.75,74.94-36.75,60.62,0,111.22,44.87,111.22,116.47s-51.55,115.99-111.69,115.99c-30.07,0-60.62-13.36-74.46-37.23v10.02c0,13.36-10.98,24.82-25.3,24.82-13.36,0-23.87-11.46-23.87-24.82V24.82c0-13.36,10.5-24.82,23.87-24.82,14.32,0,25.3,11.46,25.3,24.82V155.61Zm68.73,147.97c37.23,0,67.3-28.16,67.3-69.21s-30.07-67.78-67.3-67.78c-33.41,0-68.26,23.87-68.26,67.78s31.98,69.21,68.26,69.21Z" class="cls-2"/></g></g></g><path d="M1697.96,16.69c0-9.51,6.77-16.44,16.36-16.44s16.28,6.93,16.28,16.44-6.77,16.52-16.28,16.52-16.36-7.01-16.36-16.52Zm3.47,0c0,7.82,5,13.3,12.9,13.3s12.98-5.48,12.98-13.3-5.16-13.3-12.98-13.3-12.9,5.48-12.9,13.3Zm16.36,1.77l4.52,6.69-5.08,.08-3.87-6.45h-1.37v6.45h-4.19V7.9h7.74c3.63,0,6.04,2.1,6.04,5.4,0,2.58-1.45,4.43-3.79,5.16Zm-5.8-6.77v3.63h3.3c1.13,0,2.1-.56,2.1-1.85s-.97-1.77-2.1-1.77h-3.3Z" class="cls-2"/></g></g></svg>