<svg width="118" height="29" viewBox="0 0 118 29" fill="none" xmlns="http://www.w3.org/2000/svg">
<path fill-rule="evenodd" clip-rule="evenodd" d="M72.6021 0.36032H70.9421C70.0921 0.36032 69.4991 0.95332 69.4991 1.80232V23.6803H62.5951C58.3251 23.6803 56.5931 23.4093 56.5931 16.5903V1.80032C56.5931 0.95232 56.0001 0.36032 55.1511 0.36032H53.5381C52.6891 0.36032 52.0481 0.97832 52.0481 1.80032V16.5903C52.0481 26.2803 55.5561 27.9853 62.9281 27.9853C65.5791 27.9853 69.2111 27.9853 72.6741 27.4973L72.7541 27.4813C73.6091 27.2673 74.0441 26.7763 74.0441 26.0233V1.80232C74.0441 0.95232 73.4511 0.36032 72.6021 0.36032ZM92.5301 0.41232L92.4171 0.38232C91.4441 0.17732 88.7851 0.0283203 87.4651 0.0283203C82.7991 0.0283203 80.3321 1.98532 80.3321 5.68832V26.3083C80.3321 27.1573 80.9251 27.7503 81.7751 27.7503H83.4351C84.2851 27.7503 84.8781 27.1573 84.8781 26.3073V6.06732C84.8781 5.15432 85.1081 4.33332 87.8931 4.33332L92.0151 4.32932C92.4191 4.37832 92.8051 4.26632 93.1011 4.01532C93.4251 3.74132 93.6031 3.34232 93.6031 2.89232V1.84932C93.6031 1.16432 93.2121 0.64032 92.5301 0.41232Z" fill="white"/>
<mask id="mask0_274_4" style="mask-type:luminance" maskUnits="userSpaceOnUse" x="95" y="0" width="22" height="28">
<path d="M95.3169 0.0283203H116.979V27.9883H95.3169V0.0283203Z" fill="#fff"/>
</mask>
<g mask="url(#mask0_274_4)">
<path fill-rule="evenodd" clip-rule="evenodd" d="M106.291 0.0283203C101.513 0.0283203 98.8119 0.95232 97.2609 3.11832C95.6439 5.38232 95.3179 8.95532 95.3179 13.9853C95.3179 23.8603 96.8429 27.9893 106.292 27.9893C107.427 27.9893 111.306 27.9663 113.572 27.6903C114.452 27.5433 114.848 26.8673 114.848 26.2623V25.1723C114.848 24.3223 114.207 23.6823 113.358 23.6823H106.292C100.96 23.6823 99.9999 22.4233 99.8619 15.2643V12.9493C99.9079 5.62332 100.869 4.33532 106.292 4.33532C111.293 4.33532 112.251 5.47832 112.417 11.9273H104.471V16.2793H114.921C116.979 16.2793 116.979 14.8383 116.979 14.3653V12.9743C116.831 2.93232 114.433 0.0283203 106.291 0.0283203Z" fill="white"/>
</g>
<path fill-rule="evenodd" clip-rule="evenodd" d="M46.929 1.03701C46.715 0.583012 46.259 0.312012 45.706 0.312012H43.572C42.952 0.312012 42.49 0.562012 42.246 1.01201L39.083 5.64201L41.852 9.43501L46.685 2.48901C47.216 1.84201 47.032 1.25901 46.929 1.03701" fill="#74BB11"/>
<path fill-rule="evenodd" clip-rule="evenodd" d="M30.2571 0.959988L30.2541 0.955988C29.7721 0.312988 29.1311 0.312988 28.9201 0.312988H26.8331C26.2981 0.312988 25.8611 0.557988 25.6311 0.986988C25.3961 1.42499 25.4461 1.95299 25.7711 2.44199L33.5031 13.18L24.6131 25.603C24.3021 26.07 24.2581 26.59 24.4931 27.028C24.7231 27.457 25.1611 27.702 25.6951 27.702H27.8291C28.3771 27.702 28.8591 27.417 29.1001 26.967L39.0511 13.229L30.2571 0.959988Z" fill="#009CD9"/>
<path fill-rule="evenodd" clip-rule="evenodd" d="M48.0131 25.9752L42.6271 18.5752L40.2571 21.8452L44.5171 27.5352L44.6271 27.5852C44.8111 27.6642 44.9871 27.7022 45.1651 27.7022H46.9761C47.4141 27.7022 47.7861 27.5072 47.9961 27.1682C48.2121 26.8182 48.2171 26.3852 48.0131 25.9752" fill="#EB2084"/>
<mask id="mask1_274_4" style="mask-type:luminance" maskUnits="userSpaceOnUse" x="0" y="0" width="21" height="28">
<path d="M0 0.0131836H20.952V27.9732H0V0.0131836Z" fill="#fff"/>
</mask>
<g mask="url(#mask1_274_4)">
<path fill-rule="evenodd" clip-rule="evenodd" d="M16.407 16.0742V23.3172C14.295 23.6422 11.075 23.7142 9.977 23.7142C5.123 23.7142 4.592 22.3842 4.592 19.5632C4.592 16.9232 5.578 16.0742 8.65 16.0742H16.407V16.0742ZM9.741 0.014207C8.241 0.014207 6.195 0.052207 3.651 0.359207L3.536 0.384207C2.794 0.596207 2.418 1.08421 2.418 1.83421V2.87721C2.418 3.76721 2.971 4.31921 3.86 4.31921H9.74C14.476 4.31921 16.407 5.60421 16.407 8.75521V11.8172H8.65C2.587 11.8172 0 14.1322 0 19.5632C0 25.6142 2.677 27.9732 9.55 27.9732C12.335 27.9732 17.46 27.7562 19.354 27.1782C20.952 26.7332 20.952 25.5112 20.952 25.1082V8.47021C20.952 2.77821 17.285 0.012207 9.741 0.012207V0.014207Z" fill="white"/>
</g>
</svg>
