<svg width="301" height="50" viewBox="0 0 301 50" fill="none" xmlns="http://www.w3.org/2000/svg">
<path d="M88.0531 24.652C88.5426 26.3154 88.7832 28.0421 88.7671 29.776C88.7985 31.5586 88.528 33.3337 87.9671 35.026C87.4434 36.7412 86.4017 38.2523 84.9851 39.352C83.5247 40.4162 81.7512 40.9631 79.9451 40.906C79.024 40.9268 78.1103 40.7371 77.2736 40.3513C76.437 39.9656 75.6994 39.3939 75.1171 38.68C75.0611 38.596 75.0051 38.568 74.9491 38.596C74.92 38.6126 74.8965 38.6374 74.8816 38.6673C74.8666 38.6972 74.8609 38.7308 74.8651 38.764V40.064C74.8643 40.1351 74.849 40.2053 74.8201 40.2704C74.7912 40.3354 74.7493 40.3938 74.6971 40.442C74.6527 40.4851 74.6001 40.5187 74.5423 40.5407C74.4845 40.5627 74.4228 40.5727 74.3611 40.57H70.4971C70.3606 40.5712 70.2276 40.5269 70.1191 40.444C70.0362 40.3355 69.9919 40.2025 69.9931 40.066V11.67C69.9901 11.6084 69.9998 11.5468 70.0215 11.489C70.0431 11.4313 70.0763 11.3785 70.1191 11.334C70.1676 11.2824 70.2262 11.2413 70.2912 11.2131C70.3562 11.1849 70.4262 11.1703 70.4971 11.17H74.3611C74.4265 11.1684 74.4914 11.1828 74.55 11.2121C74.6086 11.2414 74.6591 11.2846 74.6971 11.338C74.7504 11.376 74.7937 11.4265 74.823 11.4851C74.8523 11.5436 74.8667 11.6085 74.8651 11.674V20.788C74.8609 20.8212 74.8666 20.8548 74.8816 20.8847C74.8965 20.9147 74.92 20.9394 74.9491 20.956C74.9776 20.9694 75.0099 20.9726 75.0405 20.9649C75.0712 20.9573 75.0982 20.9393 75.1171 20.914C75.6983 20.2145 76.4321 19.6576 77.2621 19.2859C78.0921 18.9143 78.9962 18.7378 79.9051 18.77C81.7393 18.6961 83.5449 19.2436 85.0291 20.324C86.4501 21.4291 87.5041 22.9376 88.0531 24.652ZM82.7611 34.69C83.5051 33.1929 83.8522 31.5297 83.7691 29.86C83.8704 28.0645 83.4316 26.2798 82.5091 24.736C82.1576 24.1681 81.6604 23.7047 81.0691 23.3941C80.4778 23.0835 79.8141 22.9371 79.1471 22.97C78.502 22.9538 77.8652 23.1183 77.3086 23.4449C76.752 23.7714 76.2977 24.247 75.9971 24.818C75.2065 26.3609 74.844 28.0875 74.9471 29.818C74.8445 31.4981 75.1772 33.1762 75.9131 34.69C76.2044 35.3079 76.6693 35.8276 77.251 36.1856C77.8328 36.5436 78.5062 36.7244 79.1891 36.706C79.9201 36.72 80.6428 36.5479 81.2891 36.206C81.9063 35.8412 82.4146 35.3177 82.7611 34.69ZM92.6561 40.57C92.5883 40.5791 92.5193 40.5724 92.4545 40.5504C92.3897 40.5285 92.3309 40.4919 92.2825 40.4436C92.2341 40.3952 92.1976 40.3364 92.1756 40.2716C92.1537 40.2068 92.147 40.1378 92.1561 40.07V11.67C92.1531 11.6084 92.1628 11.5468 92.1845 11.489C92.2061 11.4313 92.2393 11.3785 92.2821 11.334C92.3303 11.2817 92.3887 11.2399 92.4537 11.211C92.5187 11.1821 92.5889 11.1668 92.6601 11.166H96.5241C96.65 11.1848 96.7666 11.2435 96.8566 11.3335C96.9466 11.4235 97.0053 11.5401 97.0241 11.666V40.07C97.0233 40.1411 97.008 40.2113 96.9791 40.2764C96.9502 40.3414 96.9083 40.3998 96.8561 40.448C96.8116 40.4907 96.7588 40.5239 96.701 40.5456C96.6433 40.5673 96.5817 40.5769 96.5201 40.574L92.6561 40.57ZM113.625 19.612C113.622 19.5504 113.632 19.4888 113.653 19.431C113.675 19.3733 113.708 19.3205 113.751 19.276C113.799 19.2237 113.858 19.1819 113.923 19.153C113.988 19.1241 114.058 19.1088 114.129 19.108H117.947C118.073 19.1268 118.19 19.1855 118.28 19.2755C118.37 19.3655 118.428 19.4821 118.447 19.608V40.07C118.446 40.1411 118.431 40.2113 118.402 40.2764C118.373 40.3414 118.331 40.3998 118.279 40.448C118.235 40.4895 118.182 40.5217 118.125 40.5427C118.068 40.5636 118.008 40.5729 117.947 40.57H114.129C114.061 40.5791 113.992 40.5724 113.928 40.5504C113.863 40.5285 113.804 40.4919 113.755 40.4436C113.707 40.3952 113.671 40.3364 113.649 40.2716C113.627 40.2068 113.62 40.1378 113.629 40.07V38.722C113.633 38.6888 113.628 38.6552 113.613 38.6253C113.598 38.5954 113.574 38.5706 113.545 38.554C113.489 38.526 113.433 38.554 113.377 38.638C112.756 39.3948 111.964 39.9918 111.065 40.3791C110.166 40.7664 109.187 40.9327 108.211 40.864C106.254 40.9234 104.342 40.2663 102.835 39.016C102.108 38.3569 101.538 37.5431 101.167 36.6345C100.797 35.7258 100.635 34.7456 100.693 33.766V19.612C100.69 19.5504 100.7 19.4888 100.721 19.431C100.743 19.3733 100.776 19.3205 100.819 19.276C100.867 19.2237 100.926 19.1819 100.991 19.153C101.056 19.1241 101.126 19.1088 101.197 19.108H105.057C105.183 19.1268 105.3 19.1855 105.39 19.2755C105.48 19.3655 105.538 19.4821 105.557 19.608V32.38C105.498 33.5177 105.857 34.6379 106.565 35.53C106.933 35.9268 107.383 36.2378 107.884 36.441C108.385 36.6443 108.925 36.7347 109.465 36.706C110.023 36.7317 110.581 36.6403 111.101 36.4378C111.622 36.2352 112.095 35.926 112.489 35.53C112.877 35.106 113.177 34.6093 113.372 34.0686C113.566 33.5279 113.652 32.954 113.623 32.38L113.625 19.612ZM140.506 27.424C140.624 28.2024 140.68 28.9888 140.674 29.776L140.632 31.076C140.641 31.1438 140.634 31.2128 140.613 31.2776C140.591 31.3424 140.554 31.4012 140.506 31.4496C140.457 31.4979 140.398 31.5345 140.334 31.5564C140.269 31.5784 140.2 31.5851 140.132 31.576H126.981C126.953 31.572 126.924 31.5747 126.896 31.5838C126.869 31.593 126.844 31.6083 126.824 31.6287C126.803 31.649 126.788 31.6738 126.779 31.7011C126.77 31.7284 126.767 31.7575 126.771 31.786C126.795 32.4322 126.922 33.0705 127.149 33.676C127.821 35.692 129.459 36.714 132.063 36.742C132.956 36.7646 133.841 36.5608 134.634 36.1496C135.427 35.7383 136.103 35.133 136.599 34.39C136.641 34.3151 136.702 34.2525 136.776 34.2083C136.849 34.1641 136.933 34.1399 137.019 34.138C137.074 34.1376 137.129 34.1487 137.179 34.1703C137.23 34.192 137.275 34.2239 137.313 34.264L139.913 36.406C139.97 36.4381 140.019 36.4821 140.057 36.5351C140.095 36.5881 140.12 36.6487 140.132 36.7127C140.144 36.7767 140.142 36.8426 140.126 36.9057C140.11 36.9688 140.08 37.0276 140.039 37.078C139.155 38.3263 137.953 39.3146 136.557 39.94C135.056 40.6277 133.42 40.9721 131.769 40.948C129.804 41.007 127.864 40.4965 126.183 39.478C124.668 38.4936 123.505 37.0518 122.865 35.362C122.137 33.3446 121.809 31.2048 121.899 29.062C121.858 27.728 122.027 26.3958 122.399 25.114C122.888 23.2582 124 21.6269 125.549 20.494C127.189 19.3221 129.166 18.7168 131.181 18.77C136.697 18.77 139.806 21.6547 140.506 27.424ZM131.181 22.97C130.249 22.9392 129.334 23.2208 128.581 23.77C127.883 24.3088 127.379 25.0609 127.147 25.912C126.956 26.5109 126.843 27.1321 126.811 27.76C126.755 27.9 126.811 27.97 126.979 27.97H135.507C135.536 27.974 135.565 27.9713 135.592 27.9622C135.619 27.953 135.644 27.9377 135.664 27.9173C135.685 27.897 135.7 27.8722 135.709 27.8449C135.718 27.8176 135.721 27.7885 135.717 27.76C135.688 27.2195 135.604 26.6833 135.465 26.16C135.258 25.2208 134.721 24.3867 133.953 23.808C133.15 23.2249 132.173 22.9297 131.181 22.97ZM151.518 40.82C149.931 40.8496 148.352 40.5935 146.856 40.064C145.668 39.6228 144.613 38.8855 143.79 37.922C143.083 37.0568 142.697 35.9734 142.698 34.856V34.48C142.695 34.4184 142.705 34.3568 142.726 34.299C142.748 34.2413 142.781 34.1885 142.824 34.144C142.872 34.0917 142.931 34.0498 142.996 34.021C143.061 33.9921 143.131 33.9768 143.202 33.976H146.902C147.028 33.9948 147.145 34.0535 147.235 34.1435C147.325 34.2335 147.383 34.3501 147.402 34.476V34.56C147.421 34.9383 147.535 35.3058 147.733 35.6287C147.931 35.9515 148.207 36.2195 148.536 36.408C149.422 36.9394 150.444 37.2021 151.476 37.164C152.432 37.2062 153.379 36.973 154.206 36.492C154.518 36.3132 154.779 36.0568 154.963 35.7478C155.147 35.4388 155.248 35.0875 155.256 34.728C155.266 34.4295 155.188 34.1347 155.031 33.8806C154.874 33.6265 154.646 33.4245 154.374 33.3C153.496 32.8395 152.565 32.487 151.602 32.25L150.002 31.75C148.763 31.4011 147.555 30.9517 146.39 30.406C145.435 29.9471 144.591 29.2866 143.916 28.47C143.22 27.5554 142.863 26.4268 142.908 25.278C142.879 24.3708 143.075 23.4705 143.478 22.6572C143.881 21.8439 144.479 21.1428 145.218 20.616C146.996 19.3674 149.138 18.7467 151.308 18.852C152.848 18.8197 154.378 19.1057 155.802 19.692C156.992 20.1486 158.026 20.9354 158.784 21.96C159.483 22.9079 159.852 24.0586 159.834 25.236C159.833 25.3071 159.818 25.3773 159.789 25.4424C159.76 25.5074 159.718 25.5658 159.666 25.614C159.622 25.6567 159.569 25.6899 159.511 25.7116C159.453 25.7333 159.392 25.7429 159.33 25.74H155.76C155.692 25.7491 155.623 25.7424 155.559 25.7204C155.494 25.6985 155.435 25.6619 155.386 25.6136C155.338 25.5652 155.302 25.5064 155.28 25.4416C155.258 25.3768 155.251 25.3078 155.26 25.24C155.253 24.8695 155.148 24.5074 154.957 24.1903C154.765 23.8732 154.493 23.6124 154.168 23.434C153.305 22.8841 152.29 22.6197 151.268 22.678C150.331 22.6401 149.402 22.8578 148.58 23.308C148.271 23.4654 148.013 23.7064 147.835 24.0034C147.657 24.3005 147.566 24.6416 147.572 24.988C147.568 25.3122 147.657 25.6307 147.828 25.9061C147.999 26.1814 148.246 26.402 148.538 26.542C149.608 27.0177 150.719 27.3972 151.856 27.676L152.78 27.928C154.058 28.2989 155.307 28.7621 156.518 29.314C157.511 29.7503 158.388 30.4117 159.08 31.246C159.81 32.145 160.184 33.2812 160.13 34.438C160.16 35.3552 159.96 36.2653 159.55 37.086C159.139 37.9067 158.53 38.6119 157.778 39.138C155.92 40.3423 153.73 40.9315 151.518 40.822V40.82Z" fill="white"/>
<path d="M172.117 40.57C172.014 40.5739 171.912 40.5429 171.828 40.482C171.744 40.421 171.683 40.3337 171.655 40.234L165.691 19.78L165.649 19.654C165.649 19.43 165.789 19.318 166.069 19.318H168.253C168.364 19.3094 168.474 19.344 168.56 19.4144C168.646 19.4848 168.701 19.5856 168.715 19.696L173.167 36.244C173.195 36.3 173.223 36.328 173.251 36.328C173.278 36.3282 173.304 36.3203 173.327 36.3053C173.349 36.2904 173.367 36.269 173.377 36.244L177.913 19.696C177.927 19.5856 177.982 19.4848 178.068 19.4144C178.154 19.344 178.264 19.3094 178.375 19.318H180.391C180.496 19.3059 180.602 19.3337 180.688 19.3959C180.773 19.4582 180.832 19.5503 180.853 19.654L185.431 36.202C185.441 36.2271 185.459 36.2485 185.481 36.2636C185.504 36.2787 185.53 36.2868 185.557 36.2868C185.584 36.2868 185.611 36.2787 185.633 36.2636C185.655 36.2485 185.673 36.2271 185.683 36.202L190.261 19.696C190.275 19.5856 190.33 19.4848 190.416 19.4144C190.502 19.344 190.612 19.3094 190.723 19.318L192.907 19.36C192.963 19.3541 193.019 19.3625 193.071 19.3846C193.122 19.4067 193.167 19.4416 193.201 19.486C193.243 19.5299 193.273 19.5839 193.288 19.6428C193.302 19.7018 193.302 19.7635 193.285 19.822L187.237 40.234C187.209 40.3337 187.148 40.421 187.064 40.482C186.98 40.5429 186.879 40.5739 186.775 40.57H184.547C184.444 40.5739 184.342 40.5429 184.258 40.482C184.174 40.421 184.113 40.3337 184.085 40.234L179.507 24.526C179.497 24.501 179.479 24.4796 179.457 24.4647C179.434 24.4497 179.408 24.4418 179.381 24.442C179.353 24.442 179.325 24.47 179.297 24.526L174.847 40.234C174.819 40.3337 174.758 40.421 174.674 40.482C174.59 40.5429 174.489 40.5739 174.385 40.57H172.117ZM198.317 15.454C198.006 15.4611 197.697 15.4051 197.409 15.2895C197.12 15.1738 196.858 15.0008 196.638 14.7809C196.418 14.5611 196.245 14.299 196.13 14.0104C196.014 13.7218 195.958 13.4128 195.965 13.102C195.951 12.7903 196.004 12.4792 196.12 12.1895C196.236 11.8998 196.412 11.6381 196.637 11.422C197.09 10.9906 197.692 10.75 198.317 10.75C198.943 10.75 199.544 10.9906 199.997 11.422C200.222 11.6381 200.398 11.8998 200.514 12.1895C200.63 12.4792 200.683 12.7903 200.669 13.102C200.676 13.4128 200.62 13.7218 200.505 14.0104C200.389 14.299 200.216 14.5611 199.996 14.7809C199.776 15.0008 199.514 15.1738 199.225 15.2895C198.937 15.4051 198.628 15.4611 198.317 15.454ZM197.137 40.528C197.08 40.5362 197.022 40.531 196.967 40.5128C196.912 40.4946 196.863 40.4639 196.822 40.4231C196.781 40.3823 196.75 40.3326 196.732 40.2779C196.714 40.2232 196.709 40.1651 196.717 40.108V19.696C196.709 19.6389 196.714 19.5807 196.732 19.5261C196.75 19.4714 196.781 19.4217 196.822 19.3809C196.863 19.3401 196.912 19.3094 196.967 19.2912C197.022 19.273 197.08 19.2678 197.137 19.276H199.279C199.336 19.2678 199.394 19.273 199.449 19.2912C199.504 19.3094 199.553 19.3401 199.594 19.3809C199.635 19.4217 199.666 19.4714 199.684 19.5261C199.702 19.5807 199.707 19.6389 199.699 19.696V40.108C199.707 40.1651 199.702 40.2232 199.684 40.2779C199.666 40.3326 199.635 40.3823 199.594 40.4231C199.553 40.4639 199.504 40.4946 199.449 40.5128C199.394 40.531 199.336 40.5362 199.279 40.528H197.137ZM213.89 19.108C214.721 19.0863 215.544 19.2741 216.284 19.654C216.387 19.6968 216.47 19.7767 216.517 19.8778C216.563 19.979 216.57 20.094 216.536 20.2L216.074 22.258C216.066 22.3173 216.043 22.3737 216.007 22.4218C215.972 22.4699 215.924 22.5083 215.87 22.5334C215.816 22.5585 215.756 22.5695 215.696 22.5654C215.636 22.5613 215.579 22.5423 215.528 22.51C215.007 22.3056 214.45 22.2057 213.89 22.216L213.344 22.258C212.662 22.2685 211.989 22.4193 211.368 22.7011C210.746 22.9829 210.189 23.3896 209.732 23.896C208.764 24.9447 208.251 26.3339 208.304 27.76V40.15C208.312 40.2071 208.307 40.2652 208.289 40.3199C208.271 40.3746 208.24 40.4243 208.199 40.4651C208.158 40.5059 208.109 40.5366 208.054 40.5548C207.999 40.573 207.941 40.5782 207.884 40.57H205.747C205.69 40.5782 205.632 40.573 205.577 40.5548C205.522 40.5366 205.473 40.5059 205.432 40.4651C205.391 40.4243 205.361 40.3746 205.342 40.3199C205.324 40.2652 205.319 40.2071 205.327 40.15V19.738C205.319 19.6809 205.324 19.6227 205.342 19.5681C205.361 19.5134 205.391 19.4637 205.432 19.4229C205.473 19.3821 205.522 19.3514 205.577 19.3332C205.632 19.315 205.69 19.3098 205.747 19.318H207.889C207.946 19.3098 208.004 19.315 208.059 19.3332C208.114 19.3514 208.163 19.3821 208.204 19.4229C208.245 19.4637 208.276 19.5134 208.294 19.5681C208.312 19.6227 208.317 19.6809 208.309 19.738V22.3C208.3 22.3594 208.314 22.42 208.347 22.47C208.374 22.4702 208.4 22.4623 208.423 22.4473C208.445 22.4324 208.463 22.411 208.473 22.386C209.002 21.4134 209.767 20.5899 210.699 19.992C211.655 19.3944 212.763 19.0873 213.89 19.108ZM235.031 26.37C235.155 27.345 235.211 28.3273 235.199 29.31V30.654C235.207 30.7111 235.202 30.7693 235.184 30.8239C235.166 30.8786 235.135 30.9283 235.094 30.9691C235.053 31.0099 235.004 31.0406 234.949 31.0588C234.894 31.077 234.836 31.0822 234.779 31.074H221.213C221.19 31.0706 221.167 31.0727 221.145 31.0799C221.123 31.0872 221.103 31.0994 221.087 31.1158C221.071 31.1321 221.058 31.152 221.051 31.1739C221.044 31.1958 221.042 31.2192 221.045 31.242C221.049 32.2411 221.134 33.2383 221.297 34.224C221.567 35.4265 222.27 36.4878 223.271 37.206C224.41 37.9727 225.764 38.3553 227.135 38.298C228.225 38.32 229.299 38.0433 230.243 37.498C231.146 36.9588 231.875 36.1716 232.343 35.23C232.511 34.978 232.707 34.922 232.931 35.062L234.569 36.028C234.62 36.0542 234.665 36.0906 234.701 36.1349C234.738 36.1792 234.765 36.2305 234.78 36.2856C234.796 36.3407 234.801 36.3985 234.793 36.4553C234.786 36.5121 234.767 36.5668 234.737 36.616C234.028 37.9696 232.931 39.0809 231.587 39.808C230.098 40.5855 228.437 40.9755 226.757 40.942C224.985 40.9778 223.243 40.4803 221.757 39.514C220.399 38.5726 219.381 37.2172 218.857 35.65C218.277 33.7738 218.021 31.8123 218.101 29.85C218.101 28.674 218.115 27.722 218.143 26.994C218.186 26.3124 218.299 25.6369 218.479 24.978C218.903 23.2379 219.911 21.6959 221.335 20.61C222.855 19.4973 224.702 18.9211 226.585 18.972C228.721 18.8305 230.829 19.5231 232.465 20.904C233.928 22.3737 234.835 24.3058 235.031 26.37ZM226.589 21.582C225.35 21.5392 224.133 21.9248 223.145 22.674C222.24 23.389 221.615 24.4002 221.381 25.53C221.168 26.4674 221.056 27.4248 221.045 28.386C221.042 28.4088 221.044 28.4322 221.051 28.4541C221.058 28.476 221.071 28.4959 221.087 28.5122C221.103 28.5286 221.123 28.5408 221.145 28.5481C221.167 28.5553 221.19 28.5574 221.213 28.554H232.091C232.114 28.5574 232.137 28.5553 232.159 28.5481C232.181 28.5408 232.201 28.5286 232.217 28.5122C232.234 28.4959 232.246 28.476 232.253 28.4541C232.26 28.4322 232.262 28.4088 232.259 28.386C232.239 27.4851 232.155 26.5868 232.007 25.698C231.747 24.5129 231.078 23.4572 230.117 22.716C229.112 21.9343 227.862 21.5339 226.589 21.586V21.582ZM239.87 40.57C239.813 40.5782 239.755 40.573 239.7 40.5548C239.645 40.5366 239.596 40.5059 239.555 40.4651C239.514 40.4243 239.483 40.3746 239.465 40.3199C239.447 40.2652 239.442 40.2071 239.45 40.15V11.59C239.442 11.5329 239.447 11.4747 239.465 11.4201C239.483 11.3654 239.514 11.3157 239.555 11.2749C239.596 11.2341 239.645 11.2034 239.7 11.1852C239.755 11.167 239.813 11.1618 239.87 11.17H242.012C242.069 11.1618 242.127 11.167 242.182 11.1852C242.237 11.2034 242.286 11.2341 242.327 11.2749C242.368 11.3157 242.399 11.3654 242.417 11.4201C242.435 11.4747 242.44 11.5329 242.432 11.59V40.15C242.44 40.2071 242.435 40.2652 242.417 40.3199C242.399 40.3746 242.368 40.4243 242.327 40.4651C242.286 40.5059 242.237 40.5366 242.182 40.5548C242.127 40.573 242.069 40.5782 242.012 40.57H239.87ZM263.747 26.37C263.871 27.345 263.927 28.3273 263.915 29.31V30.654C263.923 30.7111 263.918 30.7693 263.9 30.8239C263.882 30.8786 263.851 30.9283 263.81 30.9691C263.769 31.0099 263.72 31.0406 263.665 31.0588C263.61 31.077 263.552 31.0822 263.495 31.074H249.928C249.905 31.0706 249.882 31.0727 249.86 31.0799C249.838 31.0872 249.818 31.0994 249.802 31.1158C249.786 31.1321 249.773 31.152 249.766 31.1739C249.759 31.1958 249.757 31.2192 249.76 31.242C249.764 32.2411 249.849 33.2383 250.012 34.224C250.282 35.4265 250.985 36.4878 251.986 37.206C253.125 37.9727 254.479 38.3553 255.85 38.298C256.94 38.32 258.014 38.0433 258.958 37.498C259.861 36.9588 260.59 36.1716 261.058 35.23C261.226 34.978 261.422 34.922 261.646 35.062L263.284 36.028C263.335 36.0542 263.38 36.0906 263.416 36.1349C263.453 36.1792 263.48 36.2305 263.495 36.2856C263.511 36.3407 263.516 36.3985 263.508 36.4553C263.501 36.5121 263.482 36.5668 263.452 36.616C262.743 37.9696 261.646 39.0809 260.302 39.808C258.813 40.5855 257.152 40.9755 255.472 40.942C253.7 40.9778 251.958 40.4803 250.472 39.514C249.114 38.5726 248.096 37.2172 247.572 35.65C246.992 33.7738 246.736 31.8123 246.816 29.85C246.816 28.674 246.83 27.722 246.858 26.994C246.901 26.3124 247.014 25.6369 247.194 24.978C247.618 23.2379 248.626 21.6959 250.05 20.61C251.57 19.4973 253.417 18.9211 255.3 18.972C257.436 18.8305 259.544 19.5231 261.18 20.904C262.643 22.3736 263.55 24.3056 263.747 26.37ZM255.305 21.582C254.066 21.5392 252.849 21.9248 251.861 22.674C250.956 23.389 250.331 24.4002 250.097 25.53C249.884 26.4674 249.772 27.4248 249.761 28.386C249.758 28.4088 249.76 28.4322 249.767 28.4541C249.774 28.476 249.787 28.4959 249.803 28.5122C249.819 28.5286 249.839 28.5408 249.861 28.5481C249.883 28.5553 249.906 28.5574 249.929 28.554H260.807C260.83 28.5574 260.853 28.5553 260.875 28.5481C260.897 28.5408 260.917 28.5286 260.933 28.5122C260.95 28.4959 260.962 28.476 260.969 28.4541C260.976 28.4322 260.978 28.4088 260.975 28.386C260.955 27.4851 260.871 26.5868 260.723 25.698C260.463 24.5129 259.794 23.4572 258.833 22.716C257.827 21.934 256.577 21.5337 255.304 21.586L255.305 21.582ZM274.767 40.78C273.331 40.8043 271.904 40.5475 270.567 40.024C269.474 39.6004 268.506 38.9068 267.753 38.008C267.122 37.2062 266.782 36.2142 266.787 35.194V34.694C266.779 34.6369 266.784 34.5787 266.802 34.5241C266.82 34.4694 266.851 34.4197 266.892 34.3789C266.933 34.3381 266.982 34.3074 267.037 34.2892C267.092 34.271 267.15 34.2658 267.207 34.274H269.223C269.28 34.2658 269.338 34.271 269.393 34.2892C269.448 34.3074 269.497 34.3381 269.538 34.3789C269.579 34.4197 269.61 34.4694 269.628 34.5241C269.646 34.5787 269.651 34.6369 269.643 34.694V35.03C269.663 35.5221 269.803 36.0017 270.053 36.4265C270.302 36.8514 270.651 37.2084 271.071 37.466C272.157 38.1684 273.433 38.5203 274.725 38.474C275.974 38.533 277.209 38.1949 278.253 37.508C278.666 37.2301 279.005 36.855 279.239 36.4156C279.474 35.9762 279.597 35.486 279.597 34.988C279.607 34.6667 279.549 34.3469 279.426 34.05C279.303 33.753 279.118 33.4857 278.883 33.266C278.416 32.8058 277.858 32.4481 277.245 32.216C276.629 31.964 275.662 31.642 274.345 31.25C273.028 30.8902 271.737 30.4412 270.481 29.906C269.505 29.4807 268.631 28.8505 267.919 28.058C267.228 27.1892 266.87 26.1016 266.911 24.992C266.886 24.1609 267.064 23.3362 267.43 22.5896C267.796 21.843 268.339 21.1971 269.011 20.708C270.631 19.5756 272.581 19.0129 274.555 19.108C275.95 19.0805 277.337 19.3377 278.629 19.864C279.732 20.2903 280.692 21.018 281.401 21.964C282.038 22.8108 282.378 23.8443 282.367 24.904V25.03C282.375 25.0871 282.37 25.1453 282.352 25.1999C282.334 25.2546 282.303 25.3043 282.262 25.3451C282.221 25.3859 282.172 25.4166 282.117 25.4348C282.062 25.453 282.004 25.4582 281.947 25.45H279.973C279.916 25.4582 279.858 25.453 279.803 25.4348C279.748 25.4166 279.699 25.3859 279.658 25.3451C279.617 25.3043 279.586 25.2546 279.568 25.1999C279.55 25.1453 279.545 25.0871 279.553 25.03V24.904C279.545 24.42 279.413 23.9462 279.17 23.5273C278.928 23.1084 278.583 22.7582 278.167 22.51C277.081 21.8124 275.802 21.4744 274.513 21.544C273.303 21.4858 272.103 21.7931 271.069 22.426C270.662 22.6665 270.327 23.0114 270.099 23.425C269.87 23.8385 269.756 24.3057 269.769 24.778C269.756 25.2231 269.867 25.6631 270.089 26.0488C270.312 26.4345 270.637 26.7507 271.029 26.962C272.265 27.6234 273.576 28.1312 274.935 28.474C276.274 28.852 277.592 29.3006 278.883 29.818C279.878 30.2302 280.767 30.8619 281.483 31.666C282.237 32.5207 282.629 33.6354 282.575 34.774C282.599 35.6212 282.417 36.4616 282.044 37.2226C281.67 37.9836 281.118 38.6424 280.433 39.142C278.779 40.3024 276.785 40.8788 274.767 40.78ZM292.692 40.78C291.256 40.8043 289.829 40.5475 288.492 40.024C287.399 39.6003 286.431 38.9068 285.678 38.008C285.047 37.2062 284.707 36.2142 284.712 35.194V34.694C284.704 34.6369 284.709 34.5787 284.727 34.5241C284.745 34.4694 284.776 34.4197 284.817 34.3789C284.858 34.3381 284.907 34.3074 284.962 34.2892C285.017 34.271 285.075 34.2658 285.132 34.274H287.147C287.204 34.2658 287.262 34.271 287.317 34.2892C287.372 34.3074 287.421 34.3381 287.462 34.3789C287.503 34.4197 287.534 34.4694 287.552 34.5241C287.57 34.5787 287.575 34.6369 287.567 34.694V35.03C287.587 35.5221 287.728 36.0017 287.977 36.4265C288.226 36.8514 288.575 37.2084 288.995 37.466C290.081 38.1666 291.356 38.5171 292.647 38.47C293.896 38.5291 295.131 38.1909 296.175 37.504C296.588 37.2261 296.927 36.851 297.161 36.4116C297.396 35.9722 297.519 35.482 297.519 34.984C297.529 34.6627 297.471 34.3429 297.348 34.046C297.225 33.749 297.04 33.4817 296.805 33.262C296.338 32.8018 295.78 32.4441 295.167 32.212C294.551 31.96 293.584 31.638 292.267 31.246C290.95 30.8862 289.659 30.4372 288.403 29.902C287.427 29.4767 286.553 28.8465 285.841 28.054C285.15 27.1852 284.792 26.0976 284.833 24.988C284.808 24.1569 284.986 23.3322 285.352 22.5856C285.718 21.839 286.261 21.1931 286.933 20.704C288.553 19.5716 290.503 19.0089 292.477 19.104C293.872 19.0765 295.259 19.3337 296.551 19.86C297.654 20.2863 298.614 21.014 299.323 21.96C299.96 22.8068 300.3 23.8403 300.289 24.9V25.026C300.297 25.0831 300.292 25.1412 300.274 25.1959C300.256 25.2506 300.225 25.3003 300.184 25.3411C300.143 25.3819 300.094 25.4126 300.039 25.4308C299.984 25.449 299.926 25.4542 299.869 25.446H297.895C297.838 25.4542 297.78 25.449 297.725 25.4308C297.67 25.4126 297.621 25.3819 297.58 25.3411C297.539 25.3003 297.508 25.2506 297.49 25.1959C297.472 25.1412 297.467 25.0831 297.475 25.026V24.9C297.467 24.416 297.335 23.9422 297.092 23.5233C296.85 23.1044 296.505 22.7542 296.089 22.506C295.003 21.8084 293.724 21.4704 292.435 21.54C291.225 21.4818 290.025 21.7891 288.991 22.422C288.584 22.6625 288.249 23.0074 288.021 23.421C287.792 23.8345 287.678 24.3017 287.691 24.774C287.678 25.2191 287.789 25.6591 288.011 26.0448C288.234 26.4305 288.559 26.7467 288.951 26.958C290.187 27.6194 291.498 28.1272 292.857 28.47C294.196 28.848 295.514 29.2966 296.805 29.814C297.8 30.2262 298.689 30.8579 299.405 31.662C300.159 32.5167 300.551 33.6315 300.497 34.77C300.521 35.6172 300.339 36.4576 299.966 37.2186C299.593 37.9796 299.04 38.6384 298.355 39.138C296.702 40.2992 294.71 40.8769 292.692 40.78Z" fill="white"/>
<path d="M27.346 50H9.546C8.29253 50.0001 7.05131 49.7534 5.89321 49.2738C4.73511 48.7943 3.6828 48.0913 2.79637 47.205C1.90994 46.3188 1.20676 45.2666 0.726953 44.1086C0.24715 42.9506 0.000131315 41.7095 0 40.456L0 9.542C0.000795527 7.01085 1.00691 4.58367 2.79708 2.79425C4.58724 1.00484 7.01485 -0.000265253 9.546 5.25088e-08L10.7 5.25088e-08L24.032 13.329C23.4104 14.7797 23.1586 16.362 23.2991 17.9341C23.4396 19.5061 23.9681 21.0186 24.8371 22.3361C25.7061 23.6536 26.8885 24.7349 28.2783 25.4829C29.668 26.2309 31.2217 26.6223 32.8 26.622C34.2118 26.6224 35.6061 26.3093 36.8821 25.7053C38.1582 25.1013 39.2843 24.2215 40.179 23.1295C41.0737 22.0374 41.7148 20.7603 42.056 19.3903C42.3971 18.0203 42.4298 16.5917 42.1517 15.2076C41.8736 13.8235 41.2917 12.5183 40.4478 11.3865C39.604 10.2546 38.5194 9.32419 37.2723 8.66244C36.0252 8.0007 34.6468 7.62411 33.2364 7.55988C31.8261 7.49564 30.4191 7.74536 29.117 8.291L20.828 5.25088e-08H40.462C42.9921 0.00185554 45.418 1.00817 47.2065 2.79779C48.9949 4.5874 49.9997 7.01389 50 9.544V40.458C49.9992 42.9878 48.9942 45.4137 47.2057 47.2029C45.4173 48.9921 42.9918 49.9981 40.462 50H37.47L25.035 37.564C25.6568 36.1134 25.9088 34.5312 25.7685 32.9593C25.6282 31.3873 25.1 29.8748 24.2311 28.5572C23.3623 27.2397 22.1801 26.1584 20.7904 25.4104C19.4008 24.6623 17.8472 24.2708 16.269 24.271C14.8568 24.2701 13.4621 24.5828 12.1855 25.1866C10.9089 25.7904 9.78235 26.6701 8.88721 27.7624C7.99207 28.8546 7.35069 30.132 7.00938 31.5023C6.66808 32.8726 6.63539 34.3016 6.91366 35.6861C7.19193 37.0706 7.77422 38.376 8.61847 39.508C9.46272 40.64 10.5479 41.5704 11.7955 42.2319C13.0431 42.8935 14.4221 43.2697 15.8329 43.3333C17.2436 43.397 18.6509 43.1465 19.953 42.6L27.353 50H27.346Z" fill="#00B9FF"/>
</svg>
