<svg xmlns="http://www.w3.org/2000/svg" width="240" height="90" viewBox="0 0 240 90">
  <g id="logo_bluenotehub_brand-white" transform="translate(-1380.5 -525.25)">
    <rect id="Rectangle_144" data-name="Rectangle 144" width="240" height="90" transform="translate(1380.5 525.25)" fill="#fff" opacity="0"/>
    <g id="Group_211" data-name="Group 211" transform="translate(-70 -187)">
      <g id="Group_315" data-name="Group 315">
        <g id="logo_blues" transform="translate(1470.5 732.25)">
          <path id="logo_blues-2" data-name="logo_blues" d="M27.346,50H9.546A9.545,9.545,0,0,1,0,40.456V9.542A9.545,9.545,0,0,1,9.546,0H10.7L24.032,13.329A9.537,9.537,0,0,0,32.8,26.622,9.536,9.536,0,1,0,29.117,8.291L20.828,0H40.462A9.545,9.545,0,0,1,50,9.544V40.458A9.545,9.545,0,0,1,40.462,50H37.47L25.035,37.564a9.536,9.536,0,0,0-8.766-13.293A9.536,9.536,0,1,0,19.953,42.6l7.4,7.4Z" transform="translate(-0.004 0)" fill="#00b9ff"/>
        </g>
        <g id="Group_326" data-name="Group 326" transform="translate(1540.5 731.25)">
          <path id="Path_81" data-name="Path 81" d="M11.525-21.308a6.494,6.494,0,0,1,4.781,1.775A6.512,6.512,0,0,1,18.1-14.689V-2.562a.428.428,0,0,1-.129.314.427.427,0,0,1-.314.129h-3.4a.427.427,0,0,1-.314-.129.428.428,0,0,1-.129-.314V-13.8a3.932,3.932,0,0,0-.96-2.755,3.28,3.28,0,0,0-2.547-1.054,3.368,3.368,0,0,0-2.566,1.035,3.82,3.82,0,0,0-.978,2.736V-2.562a.428.428,0,0,1-.129.314.427.427,0,0,1-.314.129h-3.4a.427.427,0,0,1-.314-.129.428.428,0,0,1-.129-.314V-20.568a.428.428,0,0,1,.129-.314.427.427,0,0,1,.314-.129h3.4a.427.427,0,0,1,.314.129.428.428,0,0,1,.129.314v1.183a.149.149,0,0,0,.074.148q.074.037.111-.074A5.379,5.379,0,0,1,11.525-21.308Zm18.9,19.486a8.424,8.424,0,0,1-5-1.479,7.816,7.816,0,0,1-2.935-4.1,13.975,13.975,0,0,1-.628-4.215,13.838,13.838,0,0,1,.591-4.215,7.6,7.6,0,0,1,2.954-4.03,8.729,8.729,0,0,1,5.058-1.442,8.219,8.219,0,0,1,4.855,1.442,7.7,7.7,0,0,1,2.9,3.993,12.023,12.023,0,0,1,.665,4.215,13.3,13.3,0,0,1-.628,4.215,7.95,7.95,0,0,1-2.917,4.123A8.146,8.146,0,0,1,30.428-1.822Zm0-3.7A3.655,3.655,0,0,0,32.772-6.3a4.372,4.372,0,0,0,1.421-2.181,10.937,10.937,0,0,0,.369-3.106,10.252,10.252,0,0,0-.369-3.106,4.02,4.02,0,0,0-1.4-2.163,3.908,3.908,0,0,0-2.437-.758,3.792,3.792,0,0,0-2.363.758,4.214,4.214,0,0,0-1.44,2.163,11.425,11.425,0,0,0-.369,3.106,11.426,11.426,0,0,0,.369,3.106A4.073,4.073,0,0,0,27.973-6.3,3.923,3.923,0,0,0,30.428-5.519ZM52.542-17.98a.428.428,0,0,1-.129.314.427.427,0,0,1-.314.129H48.334a.163.163,0,0,0-.185.185V-8.44a2.849,2.849,0,0,0,.609,2.034,2.6,2.6,0,0,0,1.938.629H51.8a.427.427,0,0,1,.314.129.428.428,0,0,1,.129.314v2.773a.456.456,0,0,1-.443.481l-1.92.037a7.692,7.692,0,0,1-4.356-1q-1.44-1-1.477-3.771V-17.351a.163.163,0,0,0-.185-.185h-2.1a.427.427,0,0,1-.314-.129.428.428,0,0,1-.129-.314v-2.588a.428.428,0,0,1,.129-.314.427.427,0,0,1,.314-.129h2.1a.163.163,0,0,0,.185-.185v-4.326a.428.428,0,0,1,.129-.314.427.427,0,0,1,.314-.129h3.212a.427.427,0,0,1,.314.129.428.428,0,0,1,.129.314V-21.2a.163.163,0,0,0,.185.185H52.1a.427.427,0,0,1,.314.129.428.428,0,0,1,.129.314Zm19.346,4.289a13.2,13.2,0,0,1,.148,2.071L72-10.474a.392.392,0,0,1-.443.444H60a.163.163,0,0,0-.185.185,5.3,5.3,0,0,0,.332,1.664q.886,2.662,4.32,2.7a4.651,4.651,0,0,0,3.987-2.071.434.434,0,0,1,.369-.222.354.354,0,0,1,.258.111l2.289,1.886a.394.394,0,0,1,.111.592,7.543,7.543,0,0,1-3.046,2.514,9.874,9.874,0,0,1-4.227.887,8.855,8.855,0,0,1-4.892-1.294A7.444,7.444,0,0,1,56.382-6.7a14.559,14.559,0,0,1-.849-5.546,11.257,11.257,0,0,1,.443-3.476,7.416,7.416,0,0,1,2.787-4.086,8.124,8.124,0,0,1,4.929-1.5Q70.965-21.308,71.888-13.691Zm-8.2-3.919a3.657,3.657,0,0,0-2.271.684,3.621,3.621,0,0,0-1.274,1.9,6.428,6.428,0,0,0-.3,1.627q-.074.185.148.185h7.495a.163.163,0,0,0,.185-.185,6.981,6.981,0,0,0-.221-1.405,3.587,3.587,0,0,0-1.311-2.071A3.956,3.956,0,0,0,63.692-17.61Zm21.3-3.7a6.494,6.494,0,0,1,4.781,1.775,6.512,6.512,0,0,1,1.791,4.844V-2.562a.428.428,0,0,1-.129.314.427.427,0,0,1-.314.129h-3.4a.427.427,0,0,1-.314-.129.428.428,0,0,1-.129-.314V-13.8a3.932,3.932,0,0,0-.96-2.755,3.28,3.28,0,0,0-2.547-1.054,3.367,3.367,0,0,0-2.566,1.035,3.82,3.82,0,0,0-.978,2.736V-2.562a.428.428,0,0,1-.129.314.427.427,0,0,1-.314.129h-3.4a.427.427,0,0,1-.314-.129.428.428,0,0,1-.129-.314V-27.556a.428.428,0,0,1,.129-.314A.427.427,0,0,1,76.392-28h3.4a.427.427,0,0,1,.314.129.428.428,0,0,1,.129.314v8.171a.149.149,0,0,0,.074.148q.074.037.111-.074A5.379,5.379,0,0,1,84.995-21.308Zm22.188.739a.428.428,0,0,1,.129-.314.427.427,0,0,1,.314-.129h3.36a.427.427,0,0,1,.314.129.428.428,0,0,1,.129.314V-2.562a.428.428,0,0,1-.129.314.427.427,0,0,1-.314.129h-3.36a.427.427,0,0,1-.314-.129.428.428,0,0,1-.129-.314V-3.745a.149.149,0,0,0-.074-.148q-.074-.037-.148.074a5.381,5.381,0,0,1-4.541,1.96,6.988,6.988,0,0,1-4.707-1.627,5.75,5.75,0,0,1-1.9-4.622v-12.46a.428.428,0,0,1,.129-.314.427.427,0,0,1,.314-.129h3.4a.427.427,0,0,1,.314.129.428.428,0,0,1,.129.314v11.24a4.066,4.066,0,0,0,.9,2.773,3.18,3.18,0,0,0,2.529,1.035,3.519,3.519,0,0,0,2.658-1.035,3.83,3.83,0,0,0,1-2.773Zm24.736,4.437a15.49,15.49,0,0,1,.628,4.511,13.926,13.926,0,0,1-.7,4.622,7.649,7.649,0,0,1-2.621,3.808,7.132,7.132,0,0,1-4.43,1.368,5.318,5.318,0,0,1-4.246-1.96q-.074-.111-.148-.074a.149.149,0,0,0-.074.148v1.146a.428.428,0,0,1-.129.314.427.427,0,0,1-.314.129h-3.4a.427.427,0,0,1-.314-.129.428.428,0,0,1-.129-.314V-27.556a.428.428,0,0,1,.129-.314.427.427,0,0,1,.314-.129h3.4a.427.427,0,0,1,.314.129.428.428,0,0,1,.129.314v8.023a.149.149,0,0,0,.074.148.12.12,0,0,0,.148-.037,5.228,5.228,0,0,1,4.209-1.886,7.235,7.235,0,0,1,4.523,1.368A7.917,7.917,0,0,1,131.919-16.131Zm-4.652,8.837a8.605,8.605,0,0,0,.886-4.252,7.936,7.936,0,0,0-1.108-4.511,3.284,3.284,0,0,0-2.954-1.553,3.042,3.042,0,0,0-2.769,1.627,8.548,8.548,0,0,0-.923,4.4,8.621,8.621,0,0,0,.849,4.289,3.091,3.091,0,0,0,2.88,1.775,3.666,3.666,0,0,0,1.846-.462A3.4,3.4,0,0,0,127.267-7.294Z" transform="translate(-2.48 53.207)" fill="#fff"/>
          <path id="Path_82" data-name="Path 82" d="M13.819-11.813a11.529,11.529,0,0,1,.456,3.441,10.809,10.809,0,0,1-.542,3.641,5.75,5.75,0,0,1-1.981,2.858A5.543,5.543,0,0,1,8.345-.863a4.336,4.336,0,0,1-1.853-.4A4.476,4.476,0,0,1,5.01-2.371q-.057-.057-.1-.028a.1.1,0,0,0-.043.085v.939a.252.252,0,0,1-.285.284H2.415a.252.252,0,0,1-.285-.284V-20.716A.252.252,0,0,1,2.415-21H4.582a.252.252,0,0,1,.285.284v6.343a.1.1,0,0,0,.043.085q.043.028.1-.028a4.276,4.276,0,0,1,1.5-1.1A4.5,4.5,0,0,1,8.345-15.8a5.588,5.588,0,0,1,3.507,1.052A5.8,5.8,0,0,1,13.819-11.813ZM10.8-4.788a7.5,7.5,0,0,0,.713-3.527,6.865,6.865,0,0,0-.912-3.754A2.762,2.762,0,0,0,8.06-13.434a2.637,2.637,0,0,0-2.423,1.451A7.437,7.437,0,0,0,4.9-8.343,7.6,7.6,0,0,0,5.58-4.76,2.721,2.721,0,0,0,8.089-3.224,2.833,2.833,0,0,0,10.8-4.788Zm7.356,3.7a.252.252,0,0,1-.285-.284V-20.716A.252.252,0,0,1,18.153-21H20.32a.252.252,0,0,1,.285.284V-1.375a.252.252,0,0,1-.285.284ZM33.206-15.283a.252.252,0,0,1,.285-.284H35.63a.252.252,0,0,1,.285.284V-1.375a.252.252,0,0,1-.285.284H33.491a.252.252,0,0,1-.285-.284V-2.427a.066.066,0,0,0-.043-.071q-.043-.014-.1.043A4.051,4.051,0,0,1,29.557-.892a6.136,6.136,0,0,1-2.58-.54,4.5,4.5,0,0,1-1.9-1.593,4.457,4.457,0,0,1-.713-2.56v-9.7a.252.252,0,0,1,.285-.284h2.138a.252.252,0,0,1,.285.284v8.845a3.315,3.315,0,0,0,.784,2.332,2.85,2.85,0,0,0,2.21.853,3.059,3.059,0,0,0,2.281-.867,3.158,3.158,0,0,0,.855-2.318Zm18.446,5.148a22.536,22.536,0,0,1,.086,2.617.252.252,0,0,1-.285.284H42.358a.1.1,0,0,0-.114.114,4.911,4.911,0,0,0,.171,1.479,3.041,3.041,0,0,0,1.269,1.778,4.238,4.238,0,0,0,2.409.64,3.664,3.664,0,0,0,3.25-1.735q.143-.284.371-.085l1.625,1.081a.269.269,0,0,1,.086.37,5.529,5.529,0,0,1-2.267,2.019,7.281,7.281,0,0,1-3.321.739,6.388,6.388,0,0,1-3.507-.91,5.554,5.554,0,0,1-2.138-2.588A10.775,10.775,0,0,1,39.507-8.4a12.034,12.034,0,0,1,.314-3.157,5.435,5.435,0,0,1,2.053-3.1A6.109,6.109,0,0,1,45.608-15.8a5.824,5.824,0,0,1,4.305,1.436A6.9,6.9,0,0,1,51.652-10.135Zm-6.044-3.3a3.233,3.233,0,0,0-2.024.612A3.016,3.016,0,0,0,42.5-11.188a6.634,6.634,0,0,0-.257,1.593.1.1,0,0,0,.114.114h6.529A.1.1,0,0,0,49-9.595a8.307,8.307,0,0,0-.171-1.394A3.225,3.225,0,0,0,47.7-12.766,3.262,3.262,0,0,0,45.608-13.434ZM60.063-.92a8.158,8.158,0,0,1-3.008-.512,4.7,4.7,0,0,1-2.01-1.408,3.1,3.1,0,0,1-.713-1.977v-.313a.252.252,0,0,1,.285-.284H56.67a.252.252,0,0,1,.285.284v.142a1.7,1.7,0,0,0,.87,1.394,3.818,3.818,0,0,0,2.21.6,3.574,3.574,0,0,0,2.081-.555,1.659,1.659,0,0,0,.8-1.408A1.333,1.333,0,0,0,62.173-6.2a11.672,11.672,0,0,0-2.395-.867,22.443,22.443,0,0,1-2.723-.924A5.056,5.056,0,0,1,55.2-9.325a3.276,3.276,0,0,1-.756-2.233,3.592,3.592,0,0,1,1.5-3.029A6.465,6.465,0,0,1,59.92-15.71a7.578,7.578,0,0,1,2.922.526A4.455,4.455,0,0,1,64.8-13.719a3.486,3.486,0,0,1,.684,2.1v.085a.252.252,0,0,1-.285.284h-2a.252.252,0,0,1-.285-.284v-.085a1.631,1.631,0,0,0-.813-1.379,3.867,3.867,0,0,0-2.21-.555,3.838,3.838,0,0,0-2.038.484,1.476,1.476,0,0,0-.784,1.308,1.359,1.359,0,0,0,.756,1.251,12.172,12.172,0,0,0,2.438.91,26.186,26.186,0,0,1,2.751.9,4.9,4.9,0,0,1,1.867,1.308,3.28,3.28,0,0,1,.77,2.261,3.634,3.634,0,0,1-1.525,3.072A6.636,6.636,0,0,1,60.063-.92Z" transform="translate(-2.13 21)" fill="#fff"/>
        </g>
      </g>
    </g>
  </g>
</svg>
