<svg width="128" height="100" viewBox="0 0 128 100" fill="none" xmlns="http://www.w3.org/2000/svg">
<path d="M31.6717 51.3435H25.5537V21.3965H40.5987V27.5145H31.6717V33.2985H40.5987V39.4165H31.6717V51.3435Z" fill="white"/>
<path d="M49.5259 45.2015H55.3107V27.5141H49.5259V45.2015ZM46.3836 51.3433V48.3438H43.408V24.3718H46.3836V21.3961H58.453V24.3718H61.4286V48.3438H58.453V51.3433H46.3836ZM43.5746 21.4913H46.3836V24.3718H43.5746V21.4913ZM58.453 21.3961L61.4286 21.396V24.3718H58.453V21.3961ZM58.453 48.3438H61.4286V51.248H58.453V48.3438ZM43.408 48.3438H46.3836V51.3433L43.408 51.3432V48.3438Z" fill="white"/>
<path d="M79.2826 51.3432H64.2375V45.2014H76.1402V39.4167H67.2132V36.441H64.2375V24.3717H67.2132V21.396H82.2582V27.514H70.3555V33.2987H79.2826V36.2744H82.2582V48.3437H79.2826V51.3432ZM64.4042 21.4912H67.2132V24.3717H64.4042V21.4912ZM64.2375 36.441H67.2132V39.4167H64.2376L64.2375 36.441ZM79.2826 33.2987H82.2582L82.2582 36.2744H79.2826V33.2987ZM79.2826 48.3437H82.2582L82.2582 51.248H79.2826L79.2826 48.3437Z" fill="white"/>
<path d="M100.112 51.3432H85.0674V45.2014H96.9701V39.4167H88.0431V36.441H85.0674V24.3717H88.0431V21.396H103.088V27.514H91.1854V33.2987H100.112V36.2744H103.088V48.3437H100.112V51.3432ZM85.234 21.4912H88.0431V24.3717H85.234V21.4912ZM85.0674 36.441H88.0431V39.4167H85.0674L85.0674 36.441ZM100.112 33.2987H103.088L103.088 36.2744H100.112V33.2987ZM100.112 48.3437H103.088L103.088 51.248H100.112L100.112 48.3437Z" fill="white"/>
<path d="M27.703 78.7011V76.5299H25.5525V57.0232H29.9738V74.2552H34.1543V57.0232H38.5757V76.5299H36.4252V78.7011H27.703ZM25.5525 76.5299H27.703V78.7011H25.5525V76.5299ZM36.4252 76.5299H38.5757V78.6322H36.4252V76.5299Z" fill="white"/>
<path d="M45.0267 78.7009H40.6057V57.0229H53.6287V78.7009H49.2077V61.4519H45.0267V78.7009Z" fill="white"/>
<path d="M60.0807 78.7009H55.6587V57.0229H60.0807V78.7009Z" fill="white"/>
<path d="M70.8326 78.7009H66.4116V61.4519H62.1106V57.0229H75.1336V61.4519H70.8326V78.7009Z" fill="white"/>
<path d="M88.0366 78.7009H77.1636V57.0229H88.0366V61.4519H81.5846V65.6389H88.0366V70.0679H81.5846V74.2549H88.0366V78.7009Z" fill="white"/>
<path d="M94.4878 74.2552H98.6683V61.4518H94.4878V74.2552ZM90.0664 78.7011V57.0232H100.939V59.1772H103.09V76.5299H100.939V78.7011H90.0664Z" fill="white"/>
<path d="M113.643 12H15V88.097H113.643V12Z" stroke="white" stroke-width="4"/>
</svg>
