<svg xmlns="http://www.w3.org/2000/svg" xmlns:xlink="http://www.w3.org/1999/xlink" width="104" height="81" version="1.1" viewBox="0 0 104 81"><title>Group 2</title><desc>Created with Sketch.</desc><g id="Page-1" fill="none" fill-rule="evenodd" stroke="none" stroke-width="1"><g id="site" transform="translate(-160.803147, -89.000000)"><g id="Group-2" transform="translate(163.323899, 91.260768)"><g id="g1593" fill="#FFF" fill-rule="nonzero" transform="translate(10.217829, 8.684369)"><g id="text1571" transform="translate(0.248104, 0.000000)"><polygon id="path1919" points="6.206 30.659 .088 30.659 .088 .712 15.133 .712 15.133 6.83 6.206 6.83 6.206 12.614 15.133 12.614 15.133 18.732 6.206 18.732"/><path id="path1921" d="M24.0601557,24.5170177 L29.8448702,24.5170177 L29.8448702,6.82960641 L24.0601557,6.82960641 L24.0601557,24.5170177 Z M20.917843,30.6588166 L20.917843,27.6593507 L17.9421688,27.6593507 L17.9421688,3.68729595 L20.917843,3.68729595 L20.917843,0.711614981 L32.9871829,0.711614981 L32.9871829,3.68729595 L35.9628571,3.68729595 L35.9628571,27.6593507 L32.9871829,27.6593507 L32.9871829,30.6588166 L20.917843,30.6588166 Z M18.108805,0.806844685 L20.917843,0.806844685 L20.917843,3.68729595 L18.108805,3.68729595 L18.108805,0.806844685 Z M32.9871829,0.711525057 L35.9628571,0.711525057 L35.9628571,3.68720602 L32.9871829,3.68720602 L32.9871829,0.711525057 Z M32.9871829,27.6592608 L35.9628571,27.6592608 L35.9628571,30.5635195 L32.9871829,30.5635195 L32.9871829,27.6592608 Z M17.9421688,27.6592608 L20.917843,27.6592608 L20.917843,30.6587267 L17.9421688,30.6587267 L17.9421688,27.6592608 Z"/><path id="path1923" d="M53.8169092,30.6588166 L38.7718951,30.6588166 L38.7718951,24.5170177 L50.6745942,24.5170177 L50.6745942,18.7323078 L41.7475693,18.7323078 L41.7475693,15.7566493 L38.7718951,15.7566493 L38.7718951,3.68729595 L41.7475693,3.68729595 L41.7475693,0.711614981 L56.7925834,0.711614981 L56.7925834,6.82960641 L44.889882,6.82960641 L44.889882,12.6143164 L53.8169092,12.6143164 L53.8169092,15.5899973 L56.7925834,15.5899973 L56.7925834,27.6593507 L53.8169092,27.6593507 L53.8169092,30.6588166 Z M38.9385313,0.806844685 L41.7475693,0.806844685 L41.7475693,3.68729595 L38.9385313,3.68729595 L38.9385313,0.806844685 Z M38.7719018,15.7566493 L41.747576,15.7566493 L41.747576,18.7323078 L38.7719018,18.7323078 L38.7719018,15.7566493 Z M53.8169159,12.6143164 L56.7925901,12.6143164 L56.7925901,15.5899973 L53.8169159,15.5899973 L53.8169159,12.6143164 Z M53.8169159,27.6593507 L56.7925901,27.6593507 L56.7925901,30.5636094 L53.8169159,30.5636094 L53.8169159,27.6593507 Z"/><path id="path1925" d="M74.64664,30.6588166 L59.6016259,30.6588166 L59.6016259,24.5170177 L71.5043273,24.5170177 L71.5043273,18.7323078 L62.5773023,18.7323078 L62.5773023,15.7566493 L59.6016259,15.7566493 L59.6016259,3.68729595 L62.5773023,3.68729595 L62.5773023,0.711614981 L77.6223164,0.711614981 L77.6223164,6.82960641 L65.7196151,6.82960641 L65.7196151,12.6143164 L74.64664,12.6143164 L74.64664,15.5899973 L77.6223164,15.5899973 L77.6223164,27.6593507 L74.64664,27.6593507 L74.64664,30.6588166 Z M59.7682644,0.806844685 L62.5773023,0.806844685 L62.5773023,3.68729595 L59.7682644,3.68729595 L59.7682644,0.806844685 Z M59.6016349,15.7566493 L62.5773113,15.7566493 L62.5773113,18.7323078 L59.6016349,18.7323078 L59.6016349,15.7566493 Z M74.646649,12.6143164 L77.6223254,12.6143164 L77.6223254,15.5899973 L74.646649,15.5899973 L74.646649,12.6143164 Z M74.646649,27.6593507 L77.6223254,27.6593507 L77.6223254,30.5636094 L74.646649,30.5636094 L74.646649,27.6593507 Z"/></g><g id="text1575" transform="translate(0.127883, 35.473579)"><path id="path1928" d="M2.35734791,22.5432945 L2.35734791,20.3720424 L0.206884567,20.3720424 L0.206884567,0.865355398 L4.62823747,0.865355398 L4.62823747,18.0974048 L8.80873794,18.0974048 L8.80873794,0.865355398 L13.2300908,0.865355398 L13.2300908,20.3720424 L11.0796275,20.3720424 L11.0796275,22.5432945 L2.35734791,22.5432945 Z M0.206884567,20.3720424 L2.35734791,20.3720424 L2.35734791,22.5432945 L0.206884567,22.5432945 L0.206884567,20.3720424 Z M11.0796275,20.3720424 L13.2300908,20.3720424 L13.2300908,22.4743558 L11.0796275,22.4743558 L11.0796275,20.3720424 Z"/><polygon id="path1930" points="19.681 22.543 15.26 22.543 15.26 .865 28.283 .865 28.283 22.543 23.862 22.543 23.862 5.294 19.681 5.294"/><polygon id="path1932" points="34.735 22.543 30.313 22.543 30.313 .865 34.735 .865"/><polygon id="path1934" points="45.487 22.543 41.066 22.543 41.066 5.294 36.765 5.294 36.765 .865 49.788 .865 49.788 5.294 45.487 5.294"/><polygon id="path1936" points="62.691 22.543 51.818 22.543 51.818 .865 62.691 .865 62.691 5.294 56.239 5.294 56.239 9.481 62.691 9.481 62.691 13.91 56.239 13.91 56.239 18.097 62.691 18.097"/><path id="path1938" d="M69.1421378,18.0974048 L73.3226383,18.0974048 L73.3226383,5.29401037 L69.1421378,5.29401037 L69.1421378,18.0974048 Z M64.7207849,22.5432945 L64.7207849,0.865355398 L75.5935278,0.865355398 L75.5935278,3.01937283 L77.7439912,3.01937283 L77.7439912,20.3720424 L75.5935278,20.3720424 L75.5935278,22.5432945 L64.7207849,22.5432945 Z"/></g></g><rect id="rect1579" width="98.643" height="76.097" x="0" y="0" stroke="#FFF" stroke-width="4"/></g></g></g></svg>