<svg xmlns="http://www.w3.org/2000/svg" width="195" height="57" fill="none" viewBox="0 0 195 57"><path fill="#66D9FB" d="M181.245 13.4058V26.6592H172.435V13.4058"/><path fill="#C28AEB" d="M181.245 35.3809V48.6724H172.435V35.3809"/><path fill="#7DFA8C" d="M181.105 26.5576H194.536V35.444H181.105"/><path fill="#FF9F1A" d="M159.003 26.5576H172.434V35.444H159.003"/><path fill="#FF3838" d="M181.245 26.5576H172.435V35.3806H181.245V26.5576Z"/><path fill="#fff" d="M10.2575 55.8575H0V0H10.2575V21.0608C12.733 18.1283 16.8969 16.8969 20.5149 16.8969C30.163 16.8969 34.6316 23.5998 34.6316 31.9403V55.8575H24.3742V33.7049C24.3742 29.4648 22.2922 26.1514 17.3539 26.1514C13.0376 26.1514 10.486 29.3886 10.2575 33.5526V55.8575Z"/><path fill="#fff" d="M50.2081 34.0221L59.5388 32.6257C61.697 32.321 62.3952 31.2419 62.3952 29.9344C62.3952 27.2304 60.3132 24.9961 56.0478 24.9961C51.7823 24.9961 49.1037 27.8397 48.799 31.1658L39.646 29.1981C40.2553 23.2569 45.7395 16.7063 55.9208 16.7063C67.9429 16.7063 72.4241 23.4854 72.4241 31.1277V49.7892C72.4329 51.8201 72.5857 53.8479 72.8812 55.8573H63.4743C63.2144 54.3565 63.087 52.8357 63.0934 51.3125C61.8741 53.1365 60.2028 54.6133 58.2427 55.5989C56.2826 56.5845 54.1005 57.0453 51.9092 56.9364C43.8099 56.9364 38.8716 51.4649 38.8716 45.511C38.8716 38.7192 43.8861 34.9361 50.2081 34.0221ZM62.3952 40.4965V38.7954L53.8388 40.0649C51.211 40.4584 49.129 41.9183 49.129 44.8508C49.129 47.0978 50.7413 49.256 54.0673 49.256C58.3963 49.294 62.3952 47.2121 62.3952 40.4965Z"/><path fill="#fff" d="M86.1474 36.815C86.1474 43.6829 90.616 47.5422 95.859 47.5422C97.8155 47.6225 99.7417 47.0391 101.325 45.8869C102.908 44.7346 104.055 43.0811 104.58 41.1947L113.606 44.2034C111.905 50.5508 105.99 56.9998 95.8336 56.9998C93.1814 57.0437 90.5478 56.5499 88.0917 55.5481C85.6356 54.5464 83.4079 53.0574 81.5429 51.1711C79.678 49.2848 78.2145 47.0403 77.2408 44.5729C76.267 42.1056 75.8032 39.4665 75.8773 36.815C75.8773 25.0976 84.5225 16.6936 95.5543 16.6936C105.888 16.6936 111.753 23.041 113.327 29.49L104.2 32.6257C103.751 30.7556 102.666 29.0997 101.13 27.9417C99.5946 26.7838 97.7043 26.1957 95.7829 26.2782C90.5399 26.2275 86.1474 30.0105 86.1474 36.815Z"/><path fill="#fff" d="M138.894 33.8572L154.407 55.8575H141.827L131.798 41.3599L127.558 45.8285V55.8575H117.3V0H127.558V32.0165L140.672 17.8998H154.09L138.894 33.8572Z"/></svg>