<svg xmlns="http://www.w3.org/2000/svg" width="87" height="15" fill="none" viewBox="0 0 87 15"><path fill="#fff" d="M11.381 14L10.146 12.803C8.91733 13.7403 7.448 14.209 5.738 14.209C4.712 14.209 3.819 14.0443 3.059 13.715C2.299 13.373 1.71 12.898 1.292 12.29C0.886667 11.6693 0.684 10.9473 0.684 10.124C0.684 9.288 0.905667 8.53433 1.349 7.863C1.805 7.179 2.48267 6.62167 3.382 6.191C3.05267 5.78567 2.81833 5.39933 2.679 5.032C2.53967 4.652 2.47 4.24033 2.47 3.797C2.47 3.16367 2.63467 2.58733 2.964 2.068C3.29333 1.54867 3.76833 1.14333 4.389 0.851999C5.02233 0.548 5.76967 0.396 6.631 0.396C7.505 0.396 8.246 0.554333 8.854 0.870999C9.462 1.18767 9.918 1.612 10.222 2.144C10.526 2.676 10.6653 3.25867 10.64 3.892H7.581C7.59367 3.55 7.505 3.29033 7.315 3.113C7.13767 2.923 6.897 2.828 6.593 2.828C6.289 2.828 6.03567 2.91667 5.833 3.094C5.63033 3.27133 5.529 3.49933 5.529 3.778C5.529 4.044 5.61133 4.32267 5.776 4.614C5.95333 4.90533 6.22567 5.241 6.593 5.621L9.842 8.794C9.86733 8.73067 9.899 8.65467 9.937 8.566C9.98767 8.47733 10.0383 8.376 10.089 8.262L10.792 7.065H14.041L13.129 8.718C12.787 9.46533 12.3943 10.1747 11.951 10.846L15.162 14H11.381ZM5.89 11.587C6.73867 11.587 7.49233 11.3463 8.151 10.865L5.187 7.996C4.275 8.46467 3.819 9.098 3.819 9.896C3.819 10.3773 4.00267 10.7827 4.37 11.112C4.75 11.4287 5.25667 11.587 5.89 11.587ZM33.8915 3.284C35.2089 3.284 36.2539 3.683 37.0265 4.481C37.8119 5.279 38.2045 6.38733 38.2045 7.806V14H34.9745V8.243C34.9745 7.559 34.7909 7.03333 34.4235 6.666C34.0689 6.286 33.5749 6.096 32.9415 6.096C32.3082 6.096 31.8079 6.286 31.4405 6.666C31.0859 7.03333 30.9085 7.559 30.9085 8.243V14H27.6785V8.243C27.6785 7.559 27.4949 7.03333 27.1275 6.666C26.7729 6.286 26.2789 6.096 25.6455 6.096C25.0122 6.096 24.5119 6.286 24.1445 6.666C23.7899 7.03333 23.6125 7.559 23.6125 8.243V14H20.3635V3.398H23.6125V4.728C23.9419 4.28467 24.3725 3.93633 24.9045 3.683C25.4365 3.417 26.0382 3.284 26.7095 3.284C27.5075 3.284 28.2169 3.455 28.8375 3.797C29.4709 4.139 29.9649 4.62667 30.3195 5.26C30.6869 4.67733 31.1872 4.20233 31.8205 3.835C32.4539 3.46767 33.1442 3.284 33.8915 3.284ZM45.3028 14.152C44.2642 14.152 43.3268 13.9303 42.4908 13.487C41.6675 13.0437 41.0152 12.4103 40.5338 11.587C40.0652 10.7637 39.8308 9.801 39.8308 8.699C39.8308 7.60967 40.0715 6.65333 40.5528 5.83C41.0342 4.994 41.6928 4.35433 42.5288 3.911C43.3648 3.46767 44.3022 3.246 45.3408 3.246C46.3795 3.246 47.3168 3.46767 48.1528 3.911C48.9888 4.35433 49.6475 4.994 50.1288 5.83C50.6102 6.65333 50.8508 7.60967 50.8508 8.699C50.8508 9.78833 50.6038 10.751 50.1098 11.587C49.6285 12.4103 48.9635 13.0437 48.1148 13.487C47.2788 13.9303 46.3415 14.152 45.3028 14.152ZM45.3028 11.34C45.9235 11.34 46.4492 11.112 46.8798 10.656C47.3232 10.2 47.5448 9.54767 47.5448 8.699C47.5448 7.85033 47.3295 7.198 46.8988 6.742C46.4808 6.286 45.9615 6.058 45.3408 6.058C44.7075 6.058 44.1818 6.286 43.7638 6.742C43.3458 7.18533 43.1368 7.83767 43.1368 8.699C43.1368 9.54767 43.3395 10.2 43.7448 10.656C44.1628 11.112 44.6822 11.34 45.3028 11.34ZM55.8235 5.165C56.2035 4.58233 56.6785 4.12633 57.2485 3.797C57.8185 3.455 58.4518 3.284 59.1485 3.284V6.723H58.2555C57.4448 6.723 56.8368 6.90033 56.4315 7.255C56.0262 7.597 55.8235 8.205 55.8235 9.079V14H52.5745V3.398H55.8235V5.165ZM70.6954 8.528C70.6954 8.832 70.6764 9.14867 70.6384 9.478H63.2854C63.3361 10.1367 63.5451 10.6433 63.9124 10.998C64.2924 11.34 64.7548 11.511 65.2994 11.511C66.1101 11.511 66.6738 11.169 66.9904 10.485H70.4484C70.2711 11.1817 69.9481 11.8087 69.4794 12.366C69.0234 12.9233 68.4471 13.3603 67.7504 13.677C67.0538 13.9937 66.2748 14.152 65.4134 14.152C64.3748 14.152 63.4501 13.9303 62.6394 13.487C61.8288 13.0437 61.1954 12.4103 60.7394 11.587C60.2834 10.7637 60.0554 9.801 60.0554 8.699C60.0554 7.597 60.2771 6.63433 60.7204 5.811C61.1764 4.98767 61.8098 4.35433 62.6204 3.911C63.4311 3.46767 64.3621 3.246 65.4134 3.246C66.4394 3.246 67.3514 3.46133 68.1494 3.892C68.9474 4.32267 69.5681 4.937 70.0114 5.735C70.4674 6.533 70.6954 7.464 70.6954 8.528ZM67.3704 7.673C67.3704 7.11567 67.1804 6.67233 66.8004 6.343C66.4204 6.01367 65.9454 5.849 65.3754 5.849C64.8308 5.849 64.3684 6.00733 63.9884 6.324C63.6211 6.64067 63.3931 7.09033 63.3044 7.673H67.3704ZM73.9294 14.152C73.3594 14.152 72.8908 13.9873 72.5234 13.658C72.1688 13.316 71.9914 12.898 71.9914 12.404C71.9914 11.8973 72.1688 11.473 72.5234 11.131C72.8908 10.789 73.3594 10.618 73.9294 10.618C74.4868 10.618 74.9428 10.789 75.2974 11.131C75.6648 11.473 75.8484 11.8973 75.8484 12.404C75.8484 12.898 75.6648 13.316 75.2974 13.658C74.9428 13.9873 74.4868 14.152 73.9294 14.152ZM79.2918 14.152C78.7218 14.152 78.2531 13.9873 77.8858 13.658C77.5311 13.316 77.3538 12.898 77.3538 12.404C77.3538 11.8973 77.5311 11.473 77.8858 11.131C78.2531 10.789 78.7218 10.618 79.2918 10.618C79.8491 10.618 80.3051 10.789 80.6598 11.131C81.0271 11.473 81.2108 11.8973 81.2108 12.404C81.2108 12.898 81.0271 13.316 80.6598 13.658C80.3051 13.9873 79.8491 14.152 79.2918 14.152ZM84.6541 14.152C84.0841 14.152 83.6154 13.9873 83.2481 13.658C82.8934 13.316 82.7161 12.898 82.7161 12.404C82.7161 11.8973 82.8934 11.473 83.2481 11.131C83.6154 10.789 84.0841 10.618 84.6541 10.618C85.2114 10.618 85.6674 10.789 86.0221 11.131C86.3894 11.473 86.5731 11.8973 86.5731 12.404C86.5731 12.898 86.3894 13.316 86.0221 13.658C85.6674 13.9873 85.2114 14.152 84.6541 14.152Z"/></svg>