<svg xmlns="http://www.w3.org/2000/svg" viewBox="0 0 236.1 125.8" xmlns:v="https://vecta.io/nano"><path d="M212.608 10.77h-46.192a1.54 1.54 0 0 0-1.088.451l-2.643 2.643c-2.46-2.4-5.601-3.653-9.246-3.653-4.256 0-7.527 1.68-9.896 4.326l-.001-.007-8.58 8.551h.007c-2.482 2.465-4.072 5.933-4.848 9.717-2.234-5.075-6.913-8.068-13.786-8.068h-7.026v32.306h7.626c4.435 0 11.7-.962 13.982-9.949.491 1.438 1.106 2.771 1.842 3.96 2.648 4.277 6.639 6.538 11.542 6.538 4.146 0 7.354-1.595 9.707-4.124l.006.001 3.655-3.683c1.841 5.024 6.114 7.806 12.347 7.806 4.303 0 7.675-1.323 9.958-3.793h.002l5.809-5.809v8.169a.88.88 0 0 0 .879.879h12.309a.88.88 0 0 0 .622-.257l8.625-8.625a.88.88 0 0 0 .257-.622V28.844a.88.88 0 0 1 .257-.622l4.497-4.497a.88.88 0 0 0 .257-.622V11.649a.88.88 0 0 0-.879-.879zM118.046 49.24V32.787c3.984 0 4.671 4.884 4.671 8.397 0 3.042-.687 8.012-4.671 8.055zM65.378 24.732l-7.755 32.306h8.997l.729-4.155h5.871l.642 4.155h9.039l-6.855-32.306H65.378zm3.129 21.295l1.2-7.501c.342-2.013.555-4.068.813-6.081h.084l.645 6.081.942 7.501h-3.684zm-8.278-21.295H41.676v7.885h4.8v24.421h8.739V32.616h5.013v-7.885zM22.613 35.007c0 2.279.671 4.016 1.723 5.465 1.096 1.49 2.565 2.691 4.251 3.975.545.374 1.052.745 1.428 1.2a2.42 2.42 0 0 1 .675 1.74c0 .013-.003.024-.003.036a1.77 1.77 0 0 1-.032.318c-.002.008-.004.016-.006.024-.171.792-.874 1.386-1.717 1.386h-6.319v7.885h6.665c.761 0 1.525-.057 2.267-.225 4.666-1.055 7.724-5.217 7.724-10.21 0-2.36-.548-4.016-1.555-5.425-.969-1.409-2.398-2.569-4.206-3.81-.466-.371-1.096-.786-1.558-1.285-.275-.294-.527-.622-.685-.995a1.93 1.93 0 0 1-.105-.32 1.69 1.69 0 0 1-.039-.368c0-.017-.005-.032-.005-.049s.003-.023.004-.035c.001-.027.005-.053.008-.079a1.73 1.73 0 0 1 1.722-1.62h6.42v-.175-7.71l-6.984.005c-7.319 0-9.672 6.625-9.672 10.27zm75.886-2.049c0 3.726.645 7.414.987 11.139l-.087.087-6.984-19.453h-8.31v32.306h8.397v-9.468c0-3.042-.387-6.042-.6-9.085l.087-.084 6.51 18.637h8.401V24.732h-8.401v8.226z" fill="#fff"/><path d="M181.382 33.529c0 .814.042 1.928-.215 2.829-.214.855-.769 1.541-2.015 1.541-1.199 0-1.756-.686-2.015-1.585-.259-.857-.213-1.971-.213-2.828v-20.31h-8.741V34.3c0 3.898.859 11.74 10.968 11.74 10.114 0 10.97-7.842 10.97-11.74V13.177h-8.741v20.353zm-27.944-20.911c-8.869 0-12.339 8.829-12.339 16.711s3.471 16.71 12.339 16.71 12.34-8.826 12.34-16.71-3.471-16.711-12.34-16.711zm0 25.281h0c-1.031 0-1.752-.64-2.256-1.582-.05-.094-.099-.191-.145-.291-.196-.425-.354-.898-.483-1.393a12.3 12.3 0 0 1-.127-.542c-.385-1.819-.415-3.804-.415-4.762h0c0-2.01.128-8.569 3.426-8.569h0c3.3 0 3.428 6.559 3.428 8.569s-.128 8.57-3.428 8.57zm39.092-24.722v7.884h4.799v24.425h8.74V21.061h5.012v-7.884H192.53z" fill="#49c5b1"/><path d="M96.465 81.455c.445-2.837 1.612-6.464 3.988-8.495 2.017-1.677 4.207-1.532 4.207-1.532h4.725l1.512-9.583-5.181.002c-4.978 0-17.095 2.865-19.759 19.858-2.059 12.972 4.073 19.358 12.469 19.358h6.284l1.512-9.583-5.499.002c-4.588-.406-4.935-5.771-4.258-10.026zm-20.37-19.611l-6.188 39.219H80.53l6.192-39.219H76.095zm-2.407 0H51.137l-1.51 9.584h5.831l-4.678 29.635h10.623l4.682-29.635h6.094l1.51-9.584zm-33.329.003c-8.747 0-12.816 8.044-13.52 12.469-.454 2.767.049 4.875 1.003 6.636 1.056 1.809 2.567 3.267 4.327 4.826.602.454 1.105.905 1.457 1.457.45.553.651 1.208.504 2.112-.091.596-.381 1.085-.775 1.471-.601.556-1.552.649-1.972.661h-7.255l-1.514 9.584h7.845c7.139 0 12.972-5.633 14.078-12.669.45-2.865.098-4.875-.806-6.587s-2.411-3.119-4.323-4.626c-.45-.45-1.154-.954-1.609-1.56s-.802-1.306-.655-2.108c.069-.494.301-.916.621-1.261a2.61 2.61 0 0 1 .169-.164c.608-.533 1.285-.642 1.638-.661h7.646l1.514-9.584h-8.37l-.001.003zm118.423 24.008l1.463-9.27h-9.077l.835-5.47h9.113l1.459-9.27h-19.74l-6.188 39.219h19.736l1.451-9.22h-9.113l.937-5.988h9.124zm43.738-13.602c.055-.059.112-.113.169-.164.607-.533 1.285-.642 1.638-.661h7.646l1.514-9.584h-8.37l-.001.003c-8.747 0-12.816 8.044-13.52 12.469-.454 2.767.049 4.875 1.003 6.636 1.056 1.809 2.567 3.267 4.327 4.826.602.454 1.105.905 1.457 1.457.45.553.651 1.208.504 2.112-.091.596-.381 1.085-.775 1.471-.601.556-1.552.649-1.972.661h-7.255l-1.514 9.584h6.437 1.408c7.139 0 12.972-5.633 14.078-12.669.45-2.865.098-4.875-.806-6.587s-2.411-3.119-4.323-4.626c-.45-.45-1.154-.954-1.609-1.56s-.802-1.306-.655-2.108c.069-.494.301-.916.621-1.261zm-72.48 9.201l10.388-19.61h-9.859l-9.457 17.853 2.819-17.853h-10.627l-6.188 39.219h10.623l2.868-18.168 3.78 18.168h9.732l-4.08-19.609h.001zm59.057-6.536c1.611-10.364-4.635-13.074-13.854-13.074h-10.262l-6.188 39.219h10.623l2.507-15.902 3.308 15.901h9.732l-3.402-16.353c4.4-1.691 6.864-5.511 7.537-9.792zm-10.576.102c-.36 2.553-2.29 5-5.101 5l-.678-.051 1.565-9.685c2.913-.157 4.792 1.302 4.215 4.737z" fill="#ff5c39"/><path d="M212.607 1.142h-46.192c-1.585 0-3.135.335-4.555.969-2.628-1.015-5.449-1.528-8.422-1.528-6.597 0-12.395 2.492-16.775 7.208l-8.519 8.49-.246.256a22.62 22.62 0 0 0-.634.679c-3.241-1.404-6.9-2.113-10.932-2.113l-84.047.005c-6.361 0-11.839 2.775-15.425 7.813-2.463 3.461-3.875 7.866-3.875 12.084 0 3.004.639 5.811 1.91 8.387-1.209 1.621-1.91 3.624-1.91 5.758v7.884c0 4.198 2.7 7.777 6.455 9.091-1.023 2.17-1.754 4.444-2.102 6.628-.635 3.865-.25 7.523 1.145 10.906-2.017 1.453-3.45 3.683-3.866 6.315l-1.515 9.584a9.62 9.62 0 0 0 2.19 7.756c1.832 2.144 4.5 3.374 7.32 3.374h172.602c11.584 0 21.726-8.943 23.589-20.803.619-3.942.288-7.563-.984-10.794 1.909-1.454 3.261-3.62 3.663-6.163l1.515-9.584a9.62 9.62 0 0 0-6.29-10.578 10.44 10.44 0 0 0 1.396-5.241v-15.06l1.934-1.935c1.984-1.984 3.078-4.623 3.078-7.43V11.649c0-5.794-4.714-10.507-10.508-10.507zm5.693 21.962c0 1.52-.592 2.95-1.667 4.025l-3.345 3.345v17.055c0 1.52-.592 2.95-1.667 4.025l-5.478 5.478h7.344c1.408 0 2.745.616 3.659 1.687s1.314 2.488 1.095 3.878l-1.514 9.584c-.37 2.339-2.386 4.062-4.754 4.062h-1.645c.916.972 1.748 2.059 2.413 3.316 1.459 2.76 1.886 5.894 1.306 9.584-1.499 9.541-9.595 16.735-18.832 16.735H22.613c-1.408 0-2.745-.616-3.659-1.687s-1.314-2.487-1.095-3.878l1.514-9.583c.37-2.339 2.386-4.062 4.754-4.062h2.027c-.896-.973-1.751-2.058-2.469-3.288l-.075-.133c-1.586-2.927-2.098-6.194-1.521-9.709.561-3.53 2.372-7.369 4.84-10.247.438-.51.893-.99 1.365-1.44h-5.681c-2.658 0-4.813-2.155-4.813-4.813v-7.884c0-2.241 1.531-4.124 3.604-4.66-.328-.37-.645-.759-.946-1.169-1.77-2.44-2.658-5.23-2.658-8.317 0-3.194 1.115-6.668 2.983-9.293 2.658-3.734 6.743-5.79 11.502-5.79l84.047-.005c4.842 0 9.002 1.225 12.269 3.547.815-1.337 1.748-2.548 2.79-3.613a5.02 5.02 0 0 1 .172-.18l8.569-8.539c3.454-3.753 8.049-5.735 13.306-5.735 3.184 0 6.146.739 8.755 2.164 1.164-1.038 2.649-1.606 4.222-1.606h46.193a5.7 5.7 0 0 1 5.692 5.692v11.454zm.001 77.959c-2.659 0-4.814 2.155-4.814 4.814s2.155 4.814 4.814 4.814 4.814-2.155 4.814-4.814-2.155-4.814-4.814-4.814zm0 8.99a4.18 4.18 0 0 1-4.176-4.176 4.18 4.18 0 0 1 4.176-4.176 4.18 4.18 0 0 1 4.176 4.176 4.18 4.18 0 0 1-4.176 4.176zm1.876-2.417a2.98 2.98 0 0 1-.032-.355c-.005-.12-.011-.239-.021-.354s-.033-.228-.057-.335a.98.98 0 0 0-.114-.291.71.71 0 0 0-.207-.224c-.087-.063-.2-.109-.34-.134v-.013c.291-.081.502-.23.633-.449s.199-.473.199-.764c0-.387-.13-.693-.384-.916s-.614-.335-1.069-.335h-2.249v4.778h.636v-2.041h1.552c.157 0 .283.023.375.071a.63.63 0 0 1 .228.188c.057.078.099.169.128.273s.048.215.065.331a2.31 2.31 0 0 1 .041.353l.013.34a2.08 2.08 0 0 0 .03.284c.016.084.046.15.091.2h.709c-.068-.081-.117-.173-.152-.277s-.058-.215-.076-.331zm-.905-2.132a.92.92 0 0 1-.352.131 2.58 2.58 0 0 1-.421.035h-1.326v-1.668h1.58c.299 0 .515.077.65.228s.2.348.2.589c0 .173-.029.314-.091.424a.72.72 0 0 1-.24.26z" fill="#4a5c6c"/></svg>