<?xml version="1.0" encoding="UTF-8"?>
<svg width="251px" height="53px" viewBox="0 0 251 53" version="1.1" xmlns="http://www.w3.org/2000/svg" xmlns:xlink="http://www.w3.org/1999/xlink">
    <title>sb-logo-white</title>
    <g id="storyblok-logo-kit" stroke="none" stroke-width="1" fill="none" fill-rule="evenodd">
        <g id="storyblok-partner-logo" transform="translate(-1413.000000, -101.000000)" fill="#FFFFFF" fill-rule="nonzero">
            <g id="sb-logo-white" transform="translate(1413.000000, 101.000000)">
                <path d="M72.9131069,37.088562 C71.0830889,37.088562 69.3053572,36.8267055 67.5276254,36.2506214 C65.8593684,35.7091705 64.3261491,34.816314 63.0310098,33.6320569 L65.3838901,29.6518391 C66.6910458,30.5421508 67.9459152,31.2229776 69.2007847,31.7466906 C70.403368,32.2704033 71.6059512,32.4798885 72.7562482,32.4798885 C73.5928279,32.4798885 74.2725488,32.3227747 74.7431249,32.0085468 C75.2137009,31.7466906 75.4228459,31.2753489 75.4228459,30.6992648 C75.4228459,30.1755518 75.1614147,29.6518391 74.53398,29.3376112 C73.5513119,28.8658917 72.5155832,28.5142261 71.4490925,28.2901855 L67.7890565,27.0856459 C66.7956182,26.6666756 66.0113248,26.2477053 65.3838901,25.7763637 C64.7564553,25.3573933 64.2858793,24.7813092 64.0244481,24.205225 C63.7398624,23.5440587 63.5973455,22.830315 63.6061583,22.1103735 C63.5755508,20.0489068 64.4792085,18.0845869 66.063611,16.7685021 C66.7956182,16.1400466 67.7367703,15.668705 68.7824949,15.302106 C69.8282194,14.935507 70.9785165,14.7783931 72.1810997,14.7783931 C73.8019728,14.7783931 75.3182734,14.9878783 76.7300015,15.4068486 C78.1417297,15.8781902 79.5011716,16.6637595 80.8083274,17.8159279 L78.2463022,21.7437745 C77.2342235,21.0184947 76.1474315,20.403985 75.004556,19.9107794 C74.0111177,19.4918091 73.1222518,19.3346952 72.1810997,19.3346952 C71.5013787,19.3346952 70.873944,19.4394378 70.403368,19.7536655 C69.8805057,20.015522 69.6713608,20.4868636 69.6713608,21.115319 C69.6713608,21.7437745 69.9327919,22.1627448 70.4556542,22.4769725 C70.9785165,22.7912002 72.024241,23.105428 73.4359692,23.472027 C74.7466265,23.802691 76.0382768,24.204803 77.3051501,24.6765666 C78.3508746,25.0955369 79.1874543,25.5668785 79.8671753,26.0382201 C81.1526056,26.9863531 81.8631074,28.528278 81.7494795,30.1231805 C81.7494795,32.2704033 80.965186,33.9462845 79.344313,35.2031954 C77.7757261,36.4601065 75.684277,37.088562 72.9131069,37.088562 Z M98.7947898,35.5697946 C97.905924,35.9363936 96.8601995,36.3029925 95.7099025,36.6172204 C94.5596054,36.931448 93.4093084,37.1409331 92.206725,37.1409331 C91.3701454,37.1409331 90.6381382,37.0361907 89.906131,36.8267055 C89.1944263,36.6188813 88.534979,36.2618433 87.9715407,35.7792798 C87.4486783,35.3603095 87.0303885,34.731854 86.7166711,34.0510272 C86.4029538,33.3178291 86.1938088,32.4275174 86.1938088,31.3800914 L86.1938088,20.1202645 L83.4749251,20.1202645 L83.4749251,15.1973634 L86.2460951,15.1973634 L86.2460951,8.33672469 L92.7295874,8.33672469 L92.7295874,15.1449921 L97.1216305,15.1449921 L97.1216305,20.1202645 L92.7295874,20.1202645 L92.7295874,29.1281261 C92.7295874,29.8089529 92.8864461,30.3326656 93.2524496,30.6992648 C93.6184532,30.9611211 94.0890292,31.1182351 94.6118916,31.1182351 C95.134754,31.1182351 95.6576161,31.0658638 96.1281921,30.8563786 C96.6510545,30.6992648 97.1216305,30.5421508 97.4876341,30.3326656 L98.7425037,35.5697946 L98.7947898,35.5697946 Z M111.029767,37.088562 C109.365992,37.1176567 107.713055,36.8150153 106.167148,36.19825 C103.446225,35.1201312 101.315176,32.9284411 100.311091,30.1755518 C99.2838371,27.4410902 99.2838371,24.4258648 100.311091,21.6914032 C101.315176,18.938514 103.446225,16.7468239 106.167148,15.668705 C107.578876,15.0926209 109.199749,14.7783931 111.029767,14.7783931 C114.212605,14.6283289 117.303553,15.8705417 119.500136,18.1825269 C120.493575,19.1775813 121.225582,20.382121 121.748444,21.6914032 C122.818748,24.4359365 122.818748,27.4833897 121.748444,30.2279232 C120.737974,32.946857 118.631284,35.1140038 115.944673,36.19825 C114.382482,36.8218907 112.711079,37.1246574 111.029767,37.088562 Z M106.324007,25.9858488 C106.324007,27.66173 106.742296,29.0233836 107.631162,30.018438 C108.572315,31.0658638 109.722612,31.5895765 111.082053,31.5895765 C112.395396,31.6149923 113.647896,31.0359748 114.480658,30.018438 C114.898948,29.494725 115.212665,28.9710123 115.474097,28.2378141 C115.735528,27.5569874 115.8401,26.7714181 115.8401,25.9858488 C115.8401,24.2575963 115.369524,22.8959428 114.480658,21.9008883 C113.591792,20.8534626 112.441495,20.3297269 111.082053,20.3297269 C109.773507,20.3267828 108.530154,20.9015714 107.683449,21.9008883 C107.265159,22.4246012 106.899155,22.9483141 106.637724,23.6815121 C106.401978,24.4259172 106.295858,25.2053995 106.324007,25.9858488 Z M139.421189,20.8010913 C137.852602,20.8010913 136.388588,21.0629477 135.081432,21.5866606 C133.930721,21.9752826 132.950942,22.752974 132.310262,23.7862547 L132.310262,36.7219628 L125.774484,36.7219628 L125.774484,15.1973634 L131.7874,15.1973634 L131.7874,19.4918091 C132.519407,18.025413 133.460559,16.8732447 134.663142,16.0876753 C135.813439,15.2497347 137.016023,14.8307644 138.323178,14.7783931 L139.002899,14.7783931 L139.421189,14.8307644 L139.421189,20.74872 L139.421189,20.8010913 Z M142.296932,39.9166114 C143.20622,40.2332226 144.158207,40.4098033 145.120388,40.4403244 C145.904681,40.4403244 146.532116,40.1784679 147.002692,39.6547549 C147.420982,39.1310422 147.786986,38.0836164 148.152989,36.7219628 L139.996338,15.1973634 L146.741261,15.1973634 L151.708453,31.0658638 L156.04821,15.1973634 L162.165698,15.1973634 L153.95676,40.1784679 C152.669117,44.4215044 148.352245,46.9703268 144.022377,46.0440521 C143.499515,45.9393096 142.87208,45.7821958 142.296932,45.5203393 L142.296932,39.9166114 Z M177.642422,37.0888768 C176.021549,37.0888768 174.557535,36.7743342 173.354951,36.041136 C172.133117,35.3688863 171.119985,34.3722266 170.426922,33.1607153 L170.426922,36.7219628 L164.727723,36.7219628 L164.727723,6.76558605 L171.315788,6.76558605 L171.315788,18.7062398 C172.745953,16.1995254 175.441074,14.6886082 178.322143,14.7783931 C179.681585,14.7783931 180.936454,15.0402496 182.086751,15.668705 C183.237048,16.1924179 184.178201,17.0303585 185.067066,18.025413 C187.640848,21.6029896 188.341185,26.201555 186.949371,30.385037 C186.426508,31.7466906 185.694501,32.9512301 184.805635,33.9462845 C182.969765,35.9623126 180.366637,37.1042233 177.642422,37.0888768 Z M175.812404,31.5895988 C177.93482,31.5940555 179.82559,30.247321 180.518164,28.2378141 C181.28484,26.1280819 180.909166,23.7713492 179.524726,22.0056309 C178.707315,20.9274559 177.425216,20.3048211 176.073835,20.3297497 C175.080397,20.3297497 174.139245,20.6963487 173.250379,21.3771755 C172.413799,22.1103735 171.734078,23.0006854 171.263502,24.1004824 L171.263502,28.6044133 C172.107299,30.3862656 173.89579,31.5262481 175.86469,31.5372054 L175.812404,31.5895988 Z M190.870838,6.76558605 L197.406616,6.76558605 L197.406616,29.0233836 C197.406616,30.6992648 198.086337,31.4848341 199.498065,31.4848341 C200.244476,31.4870105 200.98021,31.3072714 201.641801,30.9611211 L202.530666,35.8316509 C200.699408,36.6349957 198.725918,37.0623904 196.726895,37.088562 C194.844591,37.088562 193.380576,36.564849 192.387138,35.6221657 C191.341414,34.57474 190.818551,33.2130866 190.818551,31.3277203 L190.818551,6.76558605 L190.870838,6.76558605 Z M214.870216,37.088562 C213.206441,37.1176567 211.553504,36.8150153 210.007597,36.19825 C207.270596,35.1267709 205.120814,32.9353803 204.099253,30.1755518 C202.587276,26.0594002 203.428464,21.4454016 206.295275,18.1301556 C207.341,17.0827298 208.491297,16.2971605 209.955311,15.668705 C211.367039,15.0926209 212.987912,14.7783931 214.81793,14.7783931 C218.000768,14.6283289 221.091716,15.8705417 223.288299,18.1825269 C224.334024,19.1775813 225.013745,20.382121 225.536607,21.6914032 C227.108274,25.8022039 226.261346,30.4476897 223.340585,33.7367994 C222.347147,34.7842251 221.144564,35.6221657 219.680549,36.19825 C218.134643,36.8150153 216.481705,37.1176567 214.81793,37.088562 L214.870216,37.088562 Z M210.11217,25.9858488 C210.11217,27.66173 210.530459,29.0233836 211.419325,30.018438 C212.360477,31.0658638 213.510774,31.5895765 214.870216,31.5895765 C216.181936,31.6072894 217.43126,31.0297402 218.268821,30.018438 C218.687111,29.494725 219.000828,28.9710123 219.262259,28.2378141 C219.523691,27.5569874 219.628263,26.7714181 219.628263,25.9858488 C219.628263,24.2575963 219.157687,22.8959428 218.268821,21.9008883 C217.379955,20.8534626 216.229658,20.3297269 214.870216,20.3297269 C213.561669,20.3267828 212.318317,20.9015714 211.471611,21.9008883 C211.053322,22.4246012 210.687318,22.9483141 210.425887,23.6815121 C210.164456,24.4147102 210.11217,25.1479082 210.11217,25.9858488 Z M244.045932,36.7219628 L238.451305,28.028329 L236.150711,30.4374083 L236.150711,36.7219628 L229.614933,36.7219628 L229.614933,6.76558605 L236.150711,6.76558605 L236.150711,24.1004824 L243.418497,15.1973634 L250.372565,15.1973634 L242.634204,24.4670814 L251,36.7219628 L244.045932,36.7219628 Z" id="Shape"></path>
                <path d="M26.141466,24.4326241 L15.7578794,24.4326241 L15.7578794,29.3191489 L25.8918606,29.3191489 C26.4909138,29.3191489 27.0400456,29.0748228 27.4893354,28.6839007 C27.8887042,28.2929788 28.1383096,27.7065958 28.1383096,26.973617 C28.1527885,26.3447559 27.9602661,25.7280087 27.5891776,25.2144681 C27.1898089,24.7258156 26.7405192,24.4326241 26.141466,24.4326241 Z M26.4909138,18.5199291 C26.9402034,18.2267376 27.1398879,17.5914894 27.1398879,16.7607801 C27.1398879,16.0278014 26.9402034,15.4902837 26.5907559,15.1482269 C26.2413081,14.8550355 25.7920185,14.6595745 25.2928076,14.6595745 L15.7578794,14.6595745 L15.7578794,19.0574468 L25.0931231,19.0574468 C25.592334,19.0574468 26.091545,18.8131206 26.4909138,18.5199291 Z" id="Shape"></path>
                <path d="M43.0019395,0 L2.33143047,0 C1.03619131,0 -5.67545761e-14,1.0331384 -5.67545761e-14,2.27290449 L-5.67545761e-14,42.8752437 C-5.67545761e-14,44.1150097 1.03619131,44.8898636 2.2796209,44.8898636 L8.28953053,44.8898636 L8.28953053,53 L15.750108,44.9415204 L43.0019395,44.9415204 C44.2453691,44.9415204 45.0225127,44.1666667 45.0225127,42.8752437 L45.0225127,2.32456141 C45.0225127,1.08479532 44.2453691,0.0516569201 42.9501301,0.0516569201 L43.0019395,0 Z M36.1630769,32.9054581 C35.6449812,33.8352826 34.8678377,34.6101364 33.9352655,35.1783625 C32.9508837,35.7982456 31.862883,36.3664716 30.6194533,36.6247563 C29.3760237,36.9346979 28.0289751,37.1929824 26.6301168,37.1929824 L8.28953053,37.1929824 L8.28953053,8.26510722 L29.1169759,8.26510722 C30.1531673,8.26510722 31.0339298,8.47173489 31.862883,8.93664716 C32.6400265,9.34990254 33.3653604,9.91812866 33.9352655,10.5896686 C35.0959778,12.0009396 35.7198013,13.7754282 35.6967908,15.6003899 C35.6967908,16.9434698 35.3341238,18.2348928 34.6605994,19.4746589 C33.962324,20.721663 32.8691042,21.7026618 31.5520255,22.2641326 C33.2099316,22.7290449 34.5051708,23.5555556 35.4895526,24.7436648 C36.4221248,25.9834308 36.8884108,27.5847952 36.8884108,29.5994151 C36.8884108,30.8908382 36.629363,31.9756334 36.1112673,32.9054581 L36.1630769,32.9054581 Z" id="Shape"></path>
            </g>
        </g>
    </g>
</svg>