<svg width="85" height="50" viewBox="0 0 85 50" fill="none" xmlns="http://www.w3.org/2000/svg">
<g clip-path="url(#clip0_1_11)">
<rect x="6" y="20" width="14" height="17" fill="#4A1955"/>
<rect x="12" y="7" width="67" height="29" fill="#4A1955"/>
<rect x="29" y="13" width="24" height="29" fill="#4A1955"/>
<path d="M84.2 12.35L84.2 12.3561L84.4 28.85C84.4 28.851 84.4 28.8519 84.4 28.8529C84.3984 35.0726 79.3257 40.05 73.2 40.05H60.5C58.7744 40.05 57.1464 39.6666 55.7114 38.9969L55.2923 38.8013L55.0647 39.204C53.7889 41.4611 52.3228 43.316 50.5691 44.8752C47.2572 47.7974 43.2738 49.35 38.9 49.35C35.9271 49.35 33.0511 48.1985 30.9452 46.1883L30.9444 46.1875C29.03 44.3688 27.7845 41.8783 27.4972 39.1967L27.413 38.4116L26.7393 38.8234C25.0219 39.8729 22.9129 40.45 20.8 40.45H12.5C8.3651 40.45 5.58347 38.6284 4.04785 37.1907C1.75 34.8899 0.5 31.8214 0.5 28.35C0.5 24.9714 1.7546 21.8069 4.04595 19.611L4.04603 19.6111L4.05355 19.6036C5.58013 18.077 7.5918 17.02 9.80621 16.5386L10.3505 16.4203L10.1743 15.8919C9.79245 14.7462 9.6 13.4999 9.6 12.25C9.6 9.18101 10.7484 6.3108 12.9496 4.10748C15.1633 1.99184 18.0404 0.75 21.1 0.75H73C79.2023 0.75 84.2 6.1041 84.2 12.35ZM31.4904 30.8367L31.4904 30.8367L31.4931 30.8406C32.104 31.6958 33.0702 32.05 33.9 32.05C35.4776 32.05 36.8104 30.7202 36.7 29.0324C36.6965 28.2138 36.4486 27.7148 36.1 27.25L36.1001 27.2499L36.0932 27.2411L30.8409 20.5563L35.987 14.2666L35.987 14.2666L35.9904 14.2623C36.2199 13.9755 36.3793 13.6967 36.4768 13.3881C36.5732 13.0829 36.6 12.7764 36.6 12.45C36.6 10.7739 35.2761 9.45 33.6 9.45C32.6232 9.45 31.7911 9.93969 31.2159 10.6299L31.2055 10.6424L31.1959 10.6555L27.3 16.0011L23.4041 10.6555L23.3945 10.6424L23.3841 10.6299C22.8089 9.93969 21.9768 9.45 21 9.45C19.3239 9.45 18 10.7739 18 12.45C18 13.029 18.1197 13.65 18.6096 14.2623L18.6095 14.2624L18.613 14.2666L23.7591 20.5563L18.5068 27.2411L18.5067 27.241L18.5 27.25C18.1489 27.7182 17.9 28.2209 17.9 29.05C17.9 30.7261 19.2239 32.05 20.9 32.05C21.7667 32.05 22.7015 31.5692 23.2841 30.8701L23.2937 30.8586L23.3025 30.8466C24.0055 29.8926 25.1329 28.3141 26.0826 26.977C26.5579 26.3079 26.9894 25.6982 27.3021 25.2558C27.3377 25.2054 27.3717 25.1572 27.4041 25.1114L27.5004 25.2451C27.8128 25.6793 28.2438 26.2791 28.7187 26.9413C29.6688 28.2665 30.7922 29.8394 31.4904 30.8367ZM47.4 22.7851L42.8698 11.2784C42.6206 10.547 41.7739 9.35 40.1 9.35C38.4239 9.35 37.1 10.6739 37.1 12.35C37.1 12.8056 37.2085 13.2771 37.3462 13.5603L44.3585 29.6589C43.6381 31.4625 42.9574 32.8522 42.1454 33.7996C41.3288 34.7523 40.3871 35.25 39.1 35.25C37.552 35.25 36.2 36.4465 36.2 38.05C36.2 39.6535 37.552 40.85 39.1 40.85C43.9995 40.85 47.0285 37.4171 49.0569 32.8531L49.0576 32.8515L57.5535 13.5609C57.6417 13.3783 57.6721 13.1819 57.686 13.0009C57.7 12.819 57.7 12.6027 57.7 12.3662V12.35C57.7 10.6739 56.3761 9.35 54.7 9.35C53.0261 9.35 52.1794 10.547 51.9302 11.2784L47.4 22.7851ZM58.6007 27.3491L58.6 27.35C58.2573 27.8069 58 28.3098 58 29.05C58 30.4261 59.2239 31.65 60.6 31.65H73.3C74.7915 31.65 75.9 30.4106 75.9 29.05C75.9 27.6739 74.6761 26.45 73.3 26.45H65.9969L75.0809 14.2756C75.4769 13.862 75.7 13.2369 75.7 12.55C75.7 11.0739 74.4761 9.85 73 9.85H61.2C59.7085 9.85 58.6 11.0894 58.6 12.45C58.6 13.9415 59.8394 15.05 61.2 15.05H67.9L67.6021 15.4472L67.6 15.45L64.1021 20.0472L64.1007 20.0491L58.6007 27.3491ZM9.1 28.55C9.1 29.6395 9.40122 30.5363 10.0383 31.1579C10.6733 31.7773 11.5667 32.05 12.6 32.05C13.6333 32.05 14.5267 31.7773 15.1617 31.1579C15.7988 30.5363 16.1 29.6395 16.1 28.55C16.1 27.4169 15.8023 26.4952 15.1661 25.8589C14.5299 25.2228 13.6334 24.95 12.6 24.95C11.5666 24.95 10.6701 25.2228 10.0339 25.8589C9.39768 26.4952 9.1 27.4169 9.1 28.55Z" fill="white" stroke="#4A1955"/>
</g>
<defs>
<clipPath id="clip0_1_11">
<rect width="85" height="50" fill="white"/>
</clipPath>
</defs>
</svg>
