<svg xmlns="http://www.w3.org/2000/svg" id="Layer_2" viewBox="0 0 720.84 178.17"><defs><style>.cls-1{fill:#fff}</style></defs><g id="Background_Image"><g><g><path d="m219.76,61.28v-17.49h76.25v14.75c-15.85,19.59-31.94,39.46-49.08,60.63h49.8v17.47h-77.84v-15.1c15.63-19.39,31.7-39.3,48.6-60.26h-47.73Z" class="cls-1"/><path d="m574.08,109.66c8.57-22.02,17.15-44.05,25.76-66.18h23.27c-13.24,31.55-26.18,62.4-39.15,93.33h-20.9c-13.08-30.74-26.24-61.67-39.7-93.32h23.08c8.74,21.98,17.52,44.09,26.31,66.19.44,0,.89-.02,1.33-.03Z" class="cls-1"/><path d="m664.06,116.42c-7.48-3.74-11.9-10.19-13.4-19.31h70.18c-.65-6.38-.85-11.84-1.82-17.15-5.06-27.84-27.2-43.34-53.44-37.96-37.17,7.63-48.47,51.88-27.56,78.52,14.51,18.49,39.56,23.73,62.36,13.1,4.81-2.24,9.15-5.47,14.27-8.59-5.35-5.65-9.74-10.28-13.95-14.74-11.81,8.18-23.53,12.66-36.64,6.12Zm11.34-55.92c13.95-.4,23.03,10.1,23.57,20.23h-47.42c.54-10.66,11.56-19.88,23.86-20.23Z" class="cls-1"/><path d="m348.49,115.4c-6.3-4.2-10.19-10.02-11.54-18.25h70.89c-1.37-8.28-2.06-15.7-3.88-22.83-6.15-24.04-27.84-37.31-51.95-32.31-37.19,7.72-46.97,49.84-29.72,75.74,13.51,20.28,40.21,26.95,64.47,15.81,4.84-2.22,9.19-5.48,14.43-8.66-5.68-5.21-10.3-9.44-15.05-13.8-17,9.57-27.68,10.94-37.64,4.3Zm15.35-54.84c11.91.95,21.15,9.56,21.18,20.23h-47.46c1.84-12.21,13.85-21.22,26.28-20.23Z" class="cls-1"/><path d="m456.08,116.1c-7.29-3.83-11.14-10.35-12.96-19.03h70.74c-1.03-7.5-1.35-14.15-2.93-20.49-6.65-26.79-26.67-39.41-53.12-34.28-19.13,3.71-31.32,16.02-35.81,34.8-4.74,19.82.02,37.51,16.05,50.89,19.94,16.64,47.33,12.59,65.01-.05,1.35-.96,3.07-1.41,4.88-2.22-6.06-6.4-10.35-10.92-14.56-15.37-11.89,8.09-23.86,12.82-37.31,5.76Zm11.56-55.6c12.29-.71,22.76,7.86,24.04,20.41h-47.36c0-10.31,10.88-19.68,23.32-20.41Z" class="cls-1"/></g><g><path d="m74.5,136.16c17.18,6.64,28.72,3.11,39.01-11.47,8.95-12.69,24.31-17.9,38.56-13.08,14.8,5.01,23.39,17.86,22.91,34.28-.43,14.86-10.35,27.49-25.13,31.09-8.93,2.18-17.96,1.57-25.81-3.72-22.95-15.48-46.27-14.22-69.92-2.06-17.09,8.78-36.73,3.46-45.96-12.61-11.87-20.68-.11-45.69,23.43-50.81,35.58-7.74,59.84-28.17,69.32-64.19,1.3-4.93,1.06-10.25,1.97-15.3C105.97,11.31,119.6-.07,136.47,0c17.07.07,30.75,11.92,33.72,29.2,2.73,15.89-7.27,31.79-23.1,37.67-31.08,11.55-54.08,32.4-69.56,61.63-1.28,2.41-2.04,5.1-3.04,7.66Z" class="cls-1"/><path d="m69.53,36.67c.04,19.47-15.59,35.31-34.75,35.2C15.69,71.76-.14,55.64,0,36.47.14,17.65,16.01,1.41,34.69,1.71c21.57.34,35.19,17.51,34.84,34.97Z" class="cls-1"/></g></g></g></svg>