<svg width="37" height="28" viewBox="0 0 37 28" fill="none" xmlns="http://www.w3.org/2000/svg">
<path d="M30.5652 2.28133C28.2639 1.2254 25.7961 0.44744 23.2159 0.00186911C23.1689 -0.00673026 23.122 0.01476 23.0977 0.0577416C22.7804 0.622224 22.4288 1.35864 22.1826 1.93746C19.4074 1.52198 16.6465 1.52198 13.9282 1.93746C13.682 1.34577 13.3176 0.622224 12.9988 0.0577416C12.9746 0.0161941 12.9277 -0.00529619 12.8807 0.00186911C10.3019 0.446016 7.83414 1.22398 5.53143 2.28133C5.51149 2.28992 5.4944 2.30426 5.48306 2.32288C0.802203 9.31598 -0.480081 16.1372 0.148965 22.8739C0.151811 22.9068 0.170312 22.9383 0.19593 22.9584C3.28423 25.2263 6.27577 26.6032 9.21177 27.5158C9.25875 27.5302 9.30854 27.513 9.33844 27.4743C10.033 26.5259 10.652 25.5258 11.1829 24.4742C11.2142 24.4126 11.1843 24.3395 11.1203 24.3152C10.1383 23.9426 9.20322 23.4885 8.30377 22.9727C8.23263 22.9312 8.22693 22.8294 8.29238 22.7807C8.48166 22.6389 8.67099 22.4913 8.85172 22.3423C8.88442 22.3151 8.92998 22.3093 8.96843 22.3265C14.8774 25.0244 21.2746 25.0244 27.1139 22.3265C27.1524 22.3079 27.1979 22.3136 27.2321 22.3409C27.4128 22.4899 27.6021 22.6389 27.7928 22.7807C27.8583 22.8294 27.854 22.9312 27.7829 22.9727C26.8834 23.4985 25.9484 23.9426 24.9649 24.3137C24.9009 24.3381 24.8724 24.4126 24.9038 24.4742C25.446 25.5244 26.0651 26.5244 26.7468 27.4729C26.7752 27.513 26.8264 27.5302 26.8734 27.5158C29.8237 26.6032 32.8152 25.2263 35.9035 22.9584C35.9305 22.9383 35.9476 22.9082 35.9505 22.8753C36.7033 15.087 34.6895 8.32169 30.6121 2.3243C30.6021 2.30426 30.5851 2.28992 30.5652 2.28133ZM12.0653 18.7719C10.2863 18.7719 8.82039 17.1387 8.82039 15.1328C8.82039 13.127 10.2578 11.4937 12.0653 11.4937C13.8869 11.4937 15.3386 13.1414 15.3101 15.1328C15.3101 17.1387 13.8727 18.7719 12.0653 18.7719ZM24.0626 18.7719C22.2837 18.7719 20.8178 17.1387 20.8178 15.1328C20.8178 13.127 22.2552 11.4937 24.0626 11.4937C25.8843 11.4937 27.3359 13.1414 27.3075 15.1328C27.3075 17.1387 25.8843 18.7719 24.0626 18.7719Z" fill="white"/>
</svg>
