<svg xmlns="http://www.w3.org/2000/svg" width="37" height="37" fill="none" viewBox="0 0 37 37"><g clip-path="url(#clip0_450_4422)"><path fill="#fff" d="M30.8061 6.69881C28.5048 5.64288 26.0371 4.86492 23.4568 4.41935C23.4099 4.41075 23.3629 4.43224 23.3387 4.47522C23.0213 5.0397 22.6698 5.77612 22.4236 6.35494C19.6484 5.93946 16.8875 5.93946 14.1692 6.35494C13.9229 5.76325 13.5586 5.0397 13.2398 4.47522C13.2156 4.43367 13.1687 4.41218 13.1217 4.41935C10.5429 4.8635 8.0751 5.64146 5.77239 6.69881C5.75246 6.7074 5.73537 6.72174 5.72403 6.74036C1.04317 13.7335 -0.239114 20.5547 0.389932 27.2913C0.392778 27.3243 0.411279 27.3558 0.436897 27.3759C3.5252 29.6438 6.51674 31.0207 9.45273 31.9333C9.49972 31.9477 9.54951 31.9305 9.57941 31.8918C10.2739 30.9433 10.893 29.9433 11.4238 28.8917C11.4551 28.8301 11.4252 28.757 11.3612 28.7326C10.3792 28.3601 9.44419 27.906 8.54474 27.3902C8.47359 27.3486 8.4679 27.2469 8.53335 27.1982C8.72262 27.0563 8.91195 26.9088 9.09269 26.7598C9.12539 26.7326 9.17095 26.7268 9.2094 26.744C15.1184 29.4418 21.5156 29.4418 27.3549 26.744C27.3933 26.7254 27.4389 26.7311 27.473 26.7583C27.6538 26.9073 27.8431 27.0563 28.0338 27.1982C28.0992 27.2469 28.095 27.3486 28.0238 27.3902C27.1244 27.916 26.1893 28.3601 25.2059 28.7312C25.1419 28.7556 25.1134 28.8301 25.1447 28.8917C25.6869 29.9418 26.306 30.9419 26.9877 31.8903C27.0162 31.9305 27.0674 31.9477 27.1144 31.9333C30.0646 31.0207 33.0562 29.6438 36.1445 27.3759C36.1715 27.3558 36.1886 27.3257 36.1914 27.2928C36.9443 19.5045 34.9305 12.7392 30.8531 6.74178C30.8431 6.72174 30.8261 6.7074 30.8061 6.69881ZM12.3062 23.1894C10.5272 23.1894 9.06136 21.5561 9.06136 19.5503C9.06136 17.5445 10.4988 15.9112 12.3062 15.9112C14.1279 15.9112 15.5795 17.5588 15.5511 19.5503C15.5511 21.5561 14.1136 23.1894 12.3062 23.1894ZM24.3036 23.1894C22.5246 23.1894 21.0588 21.5561 21.0588 19.5503C21.0588 17.5445 22.4962 15.9112 24.3036 15.9112C26.1253 15.9112 27.5769 17.5588 27.5485 19.5503C27.5485 21.5561 26.1253 23.1894 24.3036 23.1894Z"/></g><defs><clipPath id="clip0_450_4422"><rect width="36.106" height="36.106" fill="#fff" transform="translate(0.240723 0.447021)"/></clipPath></defs></svg>