<svg width="30" height="30" viewBox="0 0 30 30" fill="none" xmlns="http://www.w3.org/2000/svg">
<path d="M14.996 9.99768C12.2417 9.99768 9.99393 12.2454 9.99393 14.9997C9.99393 17.754 12.2417 20.0018 14.996 20.0018C17.7503 20.0018 19.998 17.754 19.998 14.9997C19.998 12.2454 17.7503 9.99768 14.996 9.99768ZM29.9983 14.9997C29.9983 12.9284 30.0171 10.8758 29.9008 8.80815C29.7844 6.40657 29.2366 4.27517 27.4804 2.51902C25.7205 0.759114 23.5929 0.215007 21.1913 0.0986802C19.1199 -0.0176462 17.0673 0.00111615 14.9997 0.00111615C12.9284 0.00111615 10.8758 -0.0176462 8.80815 0.0986802C6.40658 0.215007 4.27517 0.762866 2.51902 2.51902C0.759114 4.27893 0.215007 6.40657 0.0986802 8.80815C-0.0176462 10.8795 0.00111615 12.9321 0.00111615 14.9997C0.00111615 17.0673 -0.0176462 19.1237 0.0986802 21.1913C0.215007 23.5929 0.762867 25.7243 2.51902 27.4804C4.27893 29.2403 6.40658 29.7844 8.80815 29.9008C10.8795 30.0171 12.9321 29.9983 14.9997 29.9983C17.0711 29.9983 19.1237 30.0171 21.1913 29.9008C23.5929 29.7844 25.7243 29.2366 27.4804 27.4804C29.2403 25.7205 29.7844 23.5929 29.9008 21.1913C30.0208 19.1237 29.9983 17.0711 29.9983 14.9997ZM14.996 22.696C10.7369 22.696 7.29966 19.2588 7.29966 14.9997C7.29966 10.7407 10.7369 7.30341 14.996 7.30341C19.255 7.30341 22.6923 10.7407 22.6923 14.9997C22.6923 19.2588 19.255 22.696 14.996 22.696ZM23.0075 8.78564C22.0131 8.78564 21.2101 7.98261 21.2101 6.98821C21.2101 5.9938 22.0131 5.19078 23.0075 5.19078C24.0019 5.19078 24.8049 5.9938 24.8049 6.98821C24.8052 7.22433 24.7589 7.4582 24.6687 7.6764C24.5785 7.89461 24.4461 8.09288 24.2791 8.25984C24.1122 8.42681 23.9139 8.5592 23.6957 8.64942C23.4775 8.73965 23.2436 8.78593 23.0075 8.78564Z" fill="white"/>
</svg>
