<svg xmlns="http://www.w3.org/2000/svg" width="29" height="29" fill="none" viewBox="0 0 29 29"><path fill="#fff" d="M29 2.13235V26.8676C29 27.4332 28.7753 27.9756 28.3755 28.3755C27.9756 28.7753 27.4332 29 26.8676 29H2.13235C1.56682 29 1.02445 28.7753 0.624552 28.3755C0.224658 27.9756 0 27.4332 0 26.8676L0 2.13235C0 1.56682 0.224658 1.02445 0.624552 0.624552C1.02445 0.224658 1.56682 0 2.13235 0L26.8676 0C27.4332 0 27.9756 0.224658 28.3755 0.624552C28.7753 1.02445 29 1.56682 29 2.13235ZM8.52941 11.0882H4.26471V24.7353H8.52941V11.0882ZM8.91323 6.39706C8.91548 6.07447 8.85417 5.75459 8.73279 5.4557C8.61141 5.15681 8.43235 4.88475 8.20583 4.65506C7.97931 4.42537 7.70976 4.24255 7.41258 4.11703C7.11541 3.99151 6.79641 3.92576 6.47382 3.92353H6.39706C5.74104 3.92353 5.11189 4.18413 4.64801 4.64801C4.18413 5.11189 3.92353 5.74104 3.92353 6.39706C3.92353 7.05308 4.18413 7.68223 4.64801 8.14611C5.11189 8.60998 5.74104 8.87059 6.39706 8.87059C6.71967 8.87852 7.04069 8.82282 7.34176 8.70665C7.64284 8.59047 7.91807 8.41612 8.15174 8.19354C8.38541 7.97096 8.57293 7.70452 8.70359 7.40945C8.83425 7.11437 8.90549 6.79644 8.91323 6.47382V6.39706ZM24.7353 16.4447C24.7353 12.3421 22.1253 10.7471 19.5324 10.7471C18.6834 10.7045 17.8381 10.8854 17.0808 11.2715C16.3235 11.6576 15.6807 12.2356 15.2165 12.9476H15.0971V11.0882H11.0882V24.7353H15.3529V17.4768C15.2913 16.7334 15.5255 15.9957 16.0046 15.4239C16.4837 14.8522 17.169 14.4926 17.9118 14.4232H18.0738C19.43 14.4232 20.4365 15.2762 20.4365 17.4256V24.7353H24.7012L24.7353 16.4447Z"/></svg>