<svg xmlns="http://www.w3.org/2000/svg" width="37" height="33" fill="none" viewBox="0 0 37 33"><path fill="#fff" d="M9.75845 12.15C9.43884 12.15 9.13232 12.277 8.90631 12.503C8.68031 12.729 8.55335 13.0355 8.55335 13.3551C8.55335 13.6747 8.68031 13.9813 8.90631 14.2073C9.13232 14.4333 9.43884 14.5602 9.75845 14.5602C10.0781 14.5602 10.3846 14.4333 10.6106 14.2073C10.8366 13.9813 10.9636 13.6747 10.9636 13.3551C10.9636 13.0355 10.8366 12.729 10.6106 12.503C10.3846 12.277 10.0781 12.15 9.75845 12.15ZM8.55335 22.1926C8.55335 21.873 8.68031 21.5665 8.90631 21.3405C9.13232 21.1145 9.43884 20.9875 9.75845 20.9875C10.0781 20.9875 10.3846 21.1145 10.6106 21.3405C10.8366 21.5665 10.9636 21.873 10.9636 22.1926C10.9636 22.5122 10.8366 22.8187 10.6106 23.0447C10.3846 23.2707 10.0781 23.3977 9.75845 23.3977C9.43884 23.3977 9.13232 23.2707 8.90631 23.0447C8.68031 22.8187 8.55335 22.5122 8.55335 22.1926ZM1.32269 6.12448C1.32269 4.73948 1.87288 3.41121 2.85222 2.43187C3.83156 1.45253 5.15983 0.902344 6.54483 0.902344H25.0232C26.4082 0.902344 27.7364 1.45253 28.7158 2.43187C29.6951 3.41121 30.2453 4.73948 30.2453 6.12448V24.6028C30.2453 25.9878 29.6951 27.3161 28.7158 28.2954C27.7364 29.2748 26.4082 29.825 25.0232 29.825H6.54483C5.15983 29.825 3.83156 29.2748 2.85222 28.2954C1.87288 27.3161 1.32269 25.9878 1.32269 24.6028V6.12448ZM6.14313 13.3551C6.14313 13.8299 6.23664 14.3 6.41833 14.7387C6.60002 15.1773 6.86632 15.5758 7.20203 15.9116C7.53775 16.2473 7.9363 16.5136 8.37493 16.6953C8.81356 16.8769 9.28368 16.9705 9.75845 16.9705C10.2332 16.9705 10.7033 16.8769 11.142 16.6953C11.5806 16.5136 11.9792 16.2473 12.3149 15.9116C12.6506 15.5758 12.9169 15.1773 13.0986 14.7387C13.2803 14.3 13.3738 13.8299 13.3738 13.3551C13.3738 12.3963 12.9929 11.4767 12.3149 10.7987C11.6369 10.1207 10.7173 9.73981 9.75845 9.73981C8.79961 9.73981 7.88004 10.1207 7.20203 10.7987C6.52403 11.4767 6.14313 12.3963 6.14313 13.3551ZM9.75845 18.5773C8.79961 18.5773 7.88004 18.9582 7.20203 19.6362C6.52403 20.3142 6.14313 21.2338 6.14313 22.1926C6.14313 23.1514 6.52403 24.071 7.20203 24.749C7.88004 25.427 8.79961 25.8079 9.75845 25.8079C10.7173 25.8079 11.6369 25.427 12.3149 24.749C12.9929 24.071 13.3738 23.1514 13.3738 22.1926C13.3738 21.2338 12.9929 20.3142 12.3149 19.6362C11.6369 18.9582 10.7173 18.5773 9.75845 18.5773ZM15.784 13.3551C15.784 14.0204 16.3239 14.5602 16.9891 14.5602H24.2198C24.5394 14.5602 24.8459 14.4333 25.0719 14.2073C25.2979 13.9813 25.4249 13.6747 25.4249 13.3551C25.4249 13.0355 25.2979 12.729 25.0719 12.503C24.8459 12.277 24.5394 12.15 24.2198 12.15H16.9891C16.6695 12.15 16.363 12.277 16.137 12.503C15.911 12.729 15.784 13.0355 15.784 13.3551ZM16.9891 20.9875C16.6695 20.9875 16.363 21.1145 16.137 21.3405C15.911 21.5665 15.784 21.873 15.784 22.1926C15.784 22.5122 15.911 22.8187 16.137 23.0447C16.363 23.2707 16.6695 23.3977 16.9891 23.3977H24.2198C24.5394 23.3977 24.8459 23.2707 25.0719 23.0447C25.2979 22.8187 25.4249 22.5122 25.4249 22.1926C25.4249 21.873 25.2979 21.5665 25.0719 21.3405C24.8459 21.1145 24.5394 20.9875 24.2198 20.9875H16.9891ZM6.14313 6.12448C6.14313 6.7897 6.68302 7.32959 7.34824 7.32959H24.2198C24.5394 7.32959 24.8459 7.20262 25.0719 6.97662C25.2979 6.75062 25.4249 6.4441 25.4249 6.12448C25.4249 5.80487 25.2979 5.49834 25.0719 5.27234C24.8459 5.04634 24.5394 4.91937 24.2198 4.91937H7.34824C7.02862 4.91937 6.7221 5.04634 6.4961 5.27234C6.27009 5.49834 6.14313 5.80487 6.14313 6.12448Z"/><circle cx="27.102" cy="22.909" r="8.174" fill="#fff" stroke="#D04D29" stroke-width="2.515"/><path fill="#D04D29" d="M29.749 19.8867C29.6382 19.825 29.5163 19.7858 29.3903 19.7712C29.2643 19.7567 29.1367 19.7672 29.0147 19.802C28.8928 19.8368 28.7789 19.8954 28.6796 19.9743C28.5803 20.0531 28.4975 20.1508 28.436 20.2617L26.6436 23.4874L25.6177 22.4616C25.5287 22.3694 25.4221 22.2958 25.3043 22.2452C25.1865 22.1946 25.0599 22.168 24.9317 22.1669C24.8035 22.1658 24.6763 22.1902 24.5577 22.2387C24.439 22.2873 24.3312 22.359 24.2406 22.4496C24.1499 22.5403 24.0782 22.6481 24.0297 22.7667C23.9811 22.8854 23.9567 23.0125 23.9578 23.1407C23.9589 23.2689 23.9856 23.3956 24.0362 23.5134C24.0868 23.6312 24.1603 23.7377 24.2525 23.8268L26.1835 25.7577C26.366 25.9407 26.6122 26.0411 26.8661 26.0411L26.9998 26.0314C27.1478 26.0107 27.289 25.956 27.4122 25.8715C27.5354 25.7869 27.6373 25.675 27.7099 25.5444L30.1236 21.1997C30.1852 21.0889 30.2244 20.967 30.239 20.8411C30.2535 20.7151 30.2431 20.5875 30.2083 20.4656C30.1735 20.3437 30.115 20.2298 30.0362 20.1304C29.9574 20.0311 29.8598 19.9483 29.749 19.8867Z"/></svg>