<svg xmlns="http://www.w3.org/2000/svg" width="24" height="25" fill="none" viewBox="0 0 24 25"><path fill="#fff" d="M20.2501 19.25C20.2501 20.2445 19.855 21.1984 19.1517 21.9016C18.4485 22.6049 17.4946 23 16.5001 23C15.5055 23 14.5517 22.6049 13.8484 21.9016C13.1452 21.1984 12.7501 20.2445 12.7501 19.25C12.7516 18.7853 12.8374 18.3247 13.0032 17.8906L8.68133 15.1156C8.16101 15.6502 7.49306 16.0174 6.76292 16.1703C6.03277 16.3233 5.2736 16.255 4.58249 15.9741C3.89137 15.6933 3.29972 15.2128 2.88318 14.5939C2.46664 13.975 2.24414 13.246 2.24414 12.5C2.24414 11.754 2.46664 11.025 2.88318 10.4061C3.29972 9.78723 3.89137 9.30666 4.58249 9.02584C5.2736 8.74501 6.03277 8.6767 6.76292 8.82964C7.49306 8.98257 8.16101 9.3498 8.68133 9.88436L13.0032 7.10936C12.8374 6.67526 12.7516 6.21469 12.7501 5.74999C12.7478 4.87784 13.0488 4.03202 13.6016 3.35741C14.1543 2.68279 14.9244 2.22136 15.78 2.05213C16.6356 1.88291 17.5234 2.01643 18.2913 2.42981C19.0593 2.8432 19.6596 3.51074 19.9895 4.3181C20.3194 5.12545 20.3583 6.02239 20.0996 6.85528C19.8409 7.68818 19.3006 8.4052 18.5713 8.88355C17.8421 9.3619 16.9692 9.5718 16.1022 9.47731C15.2351 9.38282 14.4279 8.98982 13.8188 8.36561L9.49696 11.1406C9.83433 12.0155 9.83433 12.9845 9.49696 13.8594L13.8188 16.6344C14.3395 16.1019 15.0069 15.7365 15.7361 15.5847C16.4652 15.433 17.223 15.5018 17.9129 15.7824C18.6027 16.063 19.1934 16.5426 19.6097 17.1602C20.0259 17.7777 20.2489 18.5052 20.2501 19.25Z"/></svg>