<svg xmlns="http://www.w3.org/2000/svg" width="31" height="25" fill="none" viewBox="0 0 31 25"><path fill="#fff" d="M30.7527 2.96546C29.6218 3.46658 28.4069 3.80518 27.1297 3.95822C28.4476 3.16969 29.4335 1.92863 29.9035 0.466612C28.6654 1.20203 27.3103 1.71968 25.8972 1.99707C24.947 0.98245 23.6883 0.309944 22.3167 0.0839617C20.945 -0.142021 19.5372 0.0911637 18.3116 0.747312C17.0861 1.40346 16.1115 2.44586 15.5391 3.71268C14.9667 4.97949 14.8286 6.39985 15.1461 7.75322C12.6374 7.62725 10.1831 6.97519 7.9427 5.83934C5.70227 4.70349 3.72571 3.10924 2.14129 1.16006C1.59953 2.09459 1.28802 3.1781 1.28802 4.33203C1.28742 5.37084 1.54323 6.39374 2.03277 7.30997C2.52231 8.2262 3.23043 9.00743 4.09431 9.58435C3.09244 9.55247 2.11267 9.28176 1.23656 8.79474V8.876C1.23645 10.333 1.74043 11.7451 2.66297 12.8728C3.58552 14.0005 4.8698 14.7743 6.2979 15.0628C5.3685 15.3144 4.39409 15.3514 3.44827 15.1712C3.8512 16.4248 4.63606 17.5211 5.69299 18.3065C6.74991 19.0919 8.02599 19.5272 9.34257 19.5513C7.1076 21.3058 4.34743 22.2575 1.50608 22.2533C1.00276 22.2534 0.499872 22.224 0 22.1653C2.88414 24.0196 6.24148 25.0038 9.67033 25C21.2774 25 27.6227 15.3865 27.6227 7.04894C27.6227 6.77806 27.616 6.50447 27.6038 6.23359C28.838 5.34102 29.9034 4.23573 30.75 2.96952L30.7527 2.96546Z"/></svg>