<svg width="24" height="24" viewBox="0 0 24 24" fill="none" xmlns="http://www.w3.org/2000/svg">
<path d="M10 16H14C14.55 16 15 15.55 15 15V10H16.59C17.48 10 17.93 8.92001 17.3 8.29001L12.71 3.70001C12.6175 3.6073 12.5076 3.53376 12.3866 3.48357C12.2657 3.43339 12.136 3.40756 12.005 3.40756C11.874 3.40756 11.7443 3.43339 11.6234 3.48357C11.5024 3.53376 11.3925 3.6073 11.3 3.70001L6.71 8.29001C6.08 8.92001 6.52 10 7.41 10H9V15C9 15.55 9.45 16 10 16ZM6 18H18C18.55 18 19 18.45 19 19C19 19.55 18.55 20 18 20H6C5.45 20 5 19.55 5 19C5 18.45 5.45 18 6 18Z" fill="white"/>
</svg>
