<svg width="35" height="25" viewBox="0 0 35 25" fill="none" xmlns="http://www.w3.org/2000/svg">
<path d="M34.2695 3.83203C34.0703 3.08999 33.6797 2.4133 33.1367 1.86967C32.5938 1.32604 31.9176 0.934552 31.1758 0.734375C28.4453 1.49012e-07 17.5 0 17.5 0C17.5 0 6.55469 -1.49012e-07 3.82422 0.730469C3.08211 0.929996 2.40556 1.32127 1.86252 1.865C1.31948 2.40873 0.92906 3.08577 0.730469 3.82812C-1.49012e-07 6.5625 0 12.2656 0 12.2656C0 12.2656 -1.49012e-07 17.9688 0.730469 20.6992C1.13281 22.207 2.32031 23.3945 3.82422 23.7969C6.55469 24.5312 17.5 24.5312 17.5 24.5312C17.5 24.5312 28.4453 24.5312 31.1758 23.7969C32.6836 23.3945 33.8672 22.207 34.2695 20.6992C35 17.9688 35 12.2656 35 12.2656C35 12.2656 35 6.5625 34.2695 3.83203ZM14.0234 17.5V7.03125L23.0859 12.2266L14.0234 17.5Z" fill="white"/>
</svg>
